  <svg xmlns="http://www.w3.org/2000/svg" width="16" height="18" viewBox="0 0 16 18" fill="none">
    <path
      d="M14.7863 13.6554C14.5319 14.2377 14.2308 14.7737 13.882 15.2664C13.4066 15.9382 13.0172 16.4032 12.7172 16.6615C12.2521 17.0853 11.7538 17.3024 11.2202 17.3147C10.8371 17.3147 10.3751 17.2067 9.83737 16.9876C9.29784 16.7695 8.80202 16.6615 8.34866 16.6615C7.87318 16.6615 7.36324 16.7695 6.81779 16.9876C6.27152 17.2067 5.83144 17.3209 5.49498 17.3322C4.98327 17.3538 4.47322 17.1306 3.96411 16.6615C3.63917 16.3806 3.23273 15.8991 2.74584 15.2171C2.22344 14.4887 1.79395 13.6441 1.45749 12.6811C1.09714 11.641 0.916504 10.6339 0.916504 9.6588C0.916504 8.54186 1.16006 7.57851 1.64788 6.77123C2.03128 6.1228 2.54132 5.61129 3.17968 5.23579C3.81804 4.86028 4.5078 4.66893 5.2506 4.65669C5.65703 4.65669 6.19002 4.78127 6.85237 5.02612C7.51284 5.27179 7.93693 5.39638 8.12286 5.39638C8.26187 5.39638 8.73298 5.2507 9.53164 4.96028C10.2869 4.69095 10.9243 4.57943 11.4465 4.62336C12.8615 4.73652 13.9246 5.28928 14.6316 6.28514C13.3661 7.04499 12.7401 8.10926 12.7525 9.47455C12.7639 10.538 13.1532 11.4229 13.9184 12.1256C14.2651 12.4517 14.6523 12.7038 15.0832 12.8828C14.9897 13.1513 14.8911 13.4085 14.7863 13.6554ZM11.541 1.00042C11.541 1.83394 11.2337 2.6122 10.6212 3.33255C9.88201 4.1889 8.98795 4.68374 8.01842 4.60566C8.00607 4.50566 7.9989 4.40042 7.9989 4.28983C7.9989 3.48965 8.35042 2.63329 8.97467 1.93311C9.28632 1.57859 9.68269 1.28382 10.1634 1.04867C10.643 0.81703 11.0967 0.688929 11.5233 0.666992C11.5358 0.778421 11.541 0.889868 11.541 1.00042Z"
      fill="black"
    />
  </svg>
