<svg xmlns="http://www.w3.org/2000/svg" width="20" height="20" viewBox="0 0 20 20">
  <path d="M18.3332 10.0003C18.3332 5.39799 14.6022 1.66699 9.99984 1.66699C5.3975 1.66699 1.6665 5.39799 1.6665 10.0003C1.6665 13.9083 4.35717 17.1877 7.98684 18.0883V12.547H6.2685V10.0003H7.98684V8.903C7.98684 6.06666 9.2705 4.75199 12.0552 4.75199C12.5832 4.75199 13.4942 4.85566 13.8668 4.95899V7.26733C13.6702 7.24666 13.3285 7.23633 12.9042 7.23633C11.5378 7.23633 11.0098 7.754 11.0098 9.09967V10.0003H13.7318L13.2642 12.547H11.0098V18.2727C15.1362 17.7743 18.3332 14.261 18.3332 10.0003Z" fill="#0866FF"/>
  <path d="M13.2642 12.547L13.7318 10.0003H11.0098V9.09967C11.0098 7.754 11.5378 7.23633 12.9042 7.23633C13.3285 7.23633 13.6702 7.24666 13.8668 7.26733V4.95899C13.4942 4.85566 12.5832 4.75199 12.0552 4.75199C9.2705 4.75199 7.98684 6.06666 7.98684 8.903V10.0003H6.2685V12.547H7.98684V18.0883C8.6315 18.2483 9.30555 18.3337 9.99955 18.3337C10.3412 18.3337 10.6788 18.3127 11.0098 18.2727V12.547H13.2642Z" fill="white"/>
</svg>
