<svg xmlns="http://www.w3.org/2000/svg" width="20" height="20" viewBox="0 0 20 20">
  <path d="M10.1699 8.48513V11.7124H14.7463C14.5453 12.7503 13.9423 13.6291 13.0378 14.22L15.7976 16.3185C17.4055 14.864 18.3332 12.7276 18.3332 10.1898C18.3332 9.59886 18.2791 9.03062 18.1786 8.48522L10.1699 8.48513Z" fill="#4285F4"/>
  <path d="M5.40428 11.5864L4.78185 12.0533L2.57864 13.7351C3.97785 16.4548 6.84563 18.3336 10.1697 18.3336C12.4656 18.3336 14.3906 17.5912 15.7976 16.3185L13.0378 14.22C12.2803 14.72 11.3138 15.023 10.1697 15.023C7.9588 15.023 6.08036 13.5609 5.40776 11.5912L5.40428 11.5864Z" fill="#34A853"/>
  <path d="M2.57863 6.26548C1.99888 7.38665 1.6665 8.65182 1.6665 10.0003C1.6665 11.3487 1.99889 12.6139 2.57864 13.7351C2.57864 13.7426 5.40802 11.5836 5.40802 11.5836C5.23795 11.0836 5.13743 10.5533 5.13743 10.0002C5.13743 9.44709 5.23795 8.91682 5.40802 8.41682L2.57863 6.26548Z" fill="#FBBC05"/>
  <path d="M10.1699 4.98517C11.4222 4.98517 12.5354 5.4094 13.4244 6.2276L15.8595 3.84126C14.3829 2.4928 12.4658 1.66699 10.1699 1.66699C6.84581 1.66699 3.97784 3.5382 2.57863 6.26548L5.40802 8.41682C6.08053 6.44711 7.95898 4.98517 10.1699 4.98517Z" fill="#EA4335"/>
</svg>
