<svg width="277" height="100" viewBox="0 0 277 100" fill="none" xmlns="http://www.w3.org/2000/svg">
<g clip-path="url(#clip0_2_303)">
<path d="M108.771 33.9139V26.4144H128.165V44.1519C126.28 45.9713 123.551 47.5815 119.972 48.9635C116.393 50.3518 112.769 51.0428 109.101 51.0428C104.436 51.0428 100.375 50.0666 96.9094 48.114C93.4443 46.1615 90.8359 43.3659 89.097 39.7334C87.3518 36.1009 86.4823 32.1452 86.4823 27.8724C86.4823 23.2384 87.4533 19.1178 89.4016 15.5107C91.35 11.9036 94.1932 9.14595 97.9439 7.21878C100.8 5.74171 104.36 5 108.612 5C114.146 5 118.468 6.1601 121.578 8.48031C124.687 10.8005 126.693 14.0019 127.581 18.0908L118.646 19.758C118.017 17.571 116.837 15.8467 115.104 14.5788C113.372 13.3109 111.208 12.6833 108.612 12.6833C104.677 12.6833 101.555 13.9258 99.2322 16.4172C96.9094 18.9086 95.748 22.6044 95.748 27.5048C95.748 32.7854 96.9221 36.7539 99.2766 39.3911C101.625 42.0346 104.709 43.3532 108.517 43.3532C110.402 43.3532 112.293 42.9855 114.184 42.2438C116.082 41.5021 117.706 40.6082 119.065 39.5559V33.9075H108.758L108.771 33.9139Z" fill="#D71923"/>
<path d="M133.541 5.76072H142.54V29.8757C142.54 33.7047 142.648 36.1833 142.876 37.3181C143.263 39.1375 144.177 40.6019 145.63 41.7049C147.077 42.808 149.057 43.3595 151.577 43.3595C154.096 43.3595 156.057 42.8397 157.352 41.7937C158.647 40.754 159.427 39.4671 159.694 37.952C159.954 36.4306 160.087 33.9139 160.087 30.3892V5.76072H169.087V29.1467C169.087 34.4907 168.845 38.269 168.357 40.4751C167.868 42.6812 166.973 44.545 165.666 46.0601C164.358 47.5815 162.613 48.786 160.424 49.6862C158.234 50.5864 155.378 51.0365 151.85 51.0365C147.591 51.0365 144.367 50.5484 142.165 49.5658C139.963 48.5832 138.231 47.3089 136.949 45.7368C135.673 44.1709 134.829 42.5227 134.423 40.8047C133.833 38.2563 133.541 34.4907 133.541 29.508V5.76072Z" fill="#D71923"/>
<path d="M179.291 50.2821V5.76072H188.291V50.2821H179.291Z" fill="#D71923"/>
<path d="M197.22 5.76072H213.67C217.376 5.76072 220.206 6.046 222.155 6.6102C224.769 7.37726 227.01 8.74657 228.876 10.7118C230.741 12.677 232.157 15.0796 233.134 17.926C234.105 20.7723 234.594 24.278 234.594 28.4493C234.594 32.1135 234.137 35.2705 233.223 37.9267C232.106 41.1661 230.519 43.7906 228.45 45.7938C226.889 47.3153 224.782 48.4944 222.129 49.3439C220.143 49.9715 217.49 50.2884 214.165 50.2884H197.233V5.76072H197.22ZM206.219 13.2919V42.7826H212.94C215.453 42.7826 217.268 42.6432 218.385 42.3579C219.845 41.9902 221.057 41.3753 222.015 40.5068C222.98 39.6383 223.76 38.2056 224.37 36.2087C224.979 34.2118 225.284 31.4986 225.284 28.0563C225.284 24.614 224.979 21.9705 224.37 20.1321C223.76 18.2873 222.91 16.8546 221.818 15.8213C220.727 14.788 219.337 14.0907 217.655 13.723C216.399 13.4377 213.936 13.2982 210.268 13.2982H206.225L206.219 13.2919Z" fill="#D71923"/>
<path d="M243.104 50.2821V5.76072H276.15V13.2919H252.103V23.1623H274.48V30.6618H252.103V42.7763H277V50.2758H243.098L243.104 50.2821Z" fill="#D71923"/>
<path d="M86.0063 79.2403C86.0063 77.104 86.3237 75.3163 86.9646 73.8709C87.4406 72.8059 88.0943 71.8486 88.9193 70.9992C89.7444 70.1497 90.6455 69.5221 91.6292 69.1164C92.9366 68.5648 94.4407 68.2859 96.1478 68.2859C99.2385 68.2859 101.707 69.2431 103.56 71.1576C105.414 73.0721 106.34 75.7347 106.34 79.1452C106.34 82.5558 105.42 85.174 103.579 87.0821C101.739 88.9903 99.2766 89.9475 96.1986 89.9475C93.1206 89.9475 90.6011 88.9966 88.7607 87.0948C86.9202 85.193 86 82.5812 86 79.2467L86.0063 79.2403ZM90.3663 79.0945C90.3663 81.4655 90.9121 83.2658 92.01 84.4893C93.1079 85.7128 94.4978 86.3277 96.1859 86.3277C97.874 86.3277 99.2575 85.7192 100.343 84.5083C101.422 83.2912 101.967 81.4718 101.967 79.0438C101.967 76.6158 101.441 74.8535 100.387 73.6744C99.3337 72.4952 97.9375 71.9057 96.1922 71.9057C94.447 71.9057 93.0381 72.5016 91.9719 73.6997C90.9057 74.8979 90.3726 76.6982 90.3726 79.1072L90.3663 79.0945Z" fill="#D71923"/>
<path d="M110.319 89.5798V68.6346H124.694V72.1783H114.552V77.1357H123.304V80.6794H114.552V89.5798H110.319Z" fill="#D71923"/>
<path d="M136.346 62.2001H148.264C150.949 62.2001 152.998 62.403 154.407 62.815C156.305 63.3729 157.923 64.3618 159.275 65.7882C160.627 67.2082 161.655 68.9515 162.359 71.0118C163.064 73.0721 163.419 75.6142 163.419 78.6381C163.419 81.2943 163.089 83.5828 162.429 85.5036C161.623 87.8492 160.468 89.751 158.97 91.2027C157.841 92.3058 156.311 93.1616 154.388 93.7765C152.948 94.2329 151.025 94.4612 148.62 94.4612H136.352V62.2065L136.346 62.2001ZM142.863 89.022H147.731C149.552 89.022 150.866 88.9205 151.672 88.7113C152.732 88.4451 153.608 88.0013 154.306 87.3674C155.004 86.7398 155.575 85.7001 156.013 84.2548C156.451 82.8094 156.673 80.8442 156.673 78.3465C156.673 75.8488 156.451 73.9406 156.013 72.603C155.575 71.2654 154.953 70.2258 154.16 69.4777C153.367 68.7297 152.364 68.2225 151.145 67.9626C150.231 67.7597 148.448 67.652 145.795 67.652H142.863V89.022Z" fill="#D71923"/>
<path d="M176.087 62.2001V79.6714C176.087 82.4417 176.169 84.2421 176.328 85.0599C176.607 86.3785 177.273 87.4435 178.32 88.2422C179.368 89.041 180.808 89.4404 182.63 89.4404C184.451 89.4404 185.873 89.06 186.812 88.3056C187.751 87.5512 188.316 86.6194 188.506 85.5227C188.697 84.4196 188.792 82.5939 188.792 80.0454V62.2001H195.31V79.1389C195.31 83.0123 195.132 85.7445 194.783 87.3484C194.428 88.9459 193.78 90.2962 192.835 91.3929C191.889 92.4959 190.62 93.3708 189.033 94.0237C187.447 94.6767 185.378 95 182.82 95C179.736 95 177.4 94.645 175.807 93.935C174.214 93.225 172.958 92.2994 172.031 91.1647C171.105 90.0299 170.495 88.8381 170.203 87.5893C169.778 85.7382 169.562 83.0123 169.562 79.4052V62.2001H176.087Z" fill="#D71923"/>
<path d="M202.906 62.2001H215.815C218.372 62.2001 220.276 62.3079 221.533 62.5171C222.789 62.7326 223.913 63.1764 224.903 63.8484C225.893 64.5203 226.718 65.4205 227.378 66.5426C228.038 67.6646 228.368 68.9198 228.368 70.3145C228.368 71.8233 227.962 73.2116 227.143 74.4731C226.324 75.7347 225.22 76.6792 223.83 77.3132C225.798 77.8837 227.308 78.86 228.368 80.242C229.428 81.6239 229.954 83.2405 229.954 85.1042C229.954 86.5686 229.612 87.995 228.933 89.3833C228.247 90.7716 227.314 91.8747 226.134 92.7051C224.954 93.5356 223.494 94.0428 221.761 94.2329C220.676 94.3534 218.055 94.4231 213.898 94.4548H202.906V62.2001ZM209.424 67.5696V75.031H213.695C216.234 75.031 217.814 74.993 218.429 74.9232C219.546 74.7901 220.422 74.4097 221.063 73.7695C221.704 73.1292 222.021 72.2924 222.021 71.2527C222.021 70.2131 221.749 69.446 221.196 68.8184C220.644 68.1972 219.826 67.8168 218.74 67.6837C218.093 67.6076 216.234 67.5759 213.168 67.5759H209.424V67.5696ZM209.424 80.3941V89.022H215.459C217.808 89.022 219.299 88.9586 219.934 88.8255C220.905 88.648 221.691 88.2169 222.301 87.5386C222.91 86.8539 223.215 85.941 223.215 84.8C223.215 83.83 222.98 83.0123 222.51 82.3339C222.041 81.662 221.361 81.1675 220.473 80.8569C219.584 80.5526 217.655 80.3941 214.691 80.3941H209.424Z" fill="#D71923"/>
<path d="M262.359 94.4548H255.264L252.446 87.1265H239.537L236.872 94.4548H229.954L242.533 62.2001H249.425L262.353 94.4548H262.359ZM250.358 81.6937L245.909 69.7249L241.549 81.6937H250.358Z" fill="#D71923"/>
<path d="M266.96 94.4548V62.2001H273.478V94.4548H266.96Z" fill="#D71923"/>
<path d="M64.7055 34.0511V46.5387H53.0037V52.7695H64.7055V52.7747H71V34.0511H64.7055Z" fill="#D71923"/>
<path d="M64.7055 72.4918H53.0037V78.7226H64.7055V78.7278H71V59.999H64.7055V72.4918Z" fill="#D71923"/>
<path d="M59.6289 58.215H53.3974V62.9583H29.3375V84.8598H7.58755C7.58755 84.8598 5.38788 80.8446 8.71101 63.4732H2.42174C-0.376413 73.0171 -0.827897 82.795 1.47677 91.0906H35.6215V69.1891H59.6289V58.215Z" fill="#D71923"/>
<path d="M47.1501 72.1174H40.4828V78.7227H47.1501V72.1174Z" fill="#D71923"/>
<path d="M39.6324 46.5439H33.3431V52.7747H39.6324V46.5439Z" fill="#D71923"/>
<path d="M48.1896 46.5439H41.9003V52.7747H48.1896V46.5439Z" fill="#D71923"/>
<path d="M28.8073 42.5391H60.6736V0C59.2089 0.592916 57.046 1.5343 54.3844 2.86056V36.3083H44.7457V8.25402C42.7193 9.51266 40.6089 10.9169 38.4512 12.472V36.3083H28.8125V20.258C26.6864 22.1928 24.5759 24.2784 22.5233 26.5148V54.7615H10.0655L12.3071 39.9386C9.94472 43.7614 7.81854 47.8858 6.01786 52.3379L3.12521 60.9924H28.8178V42.5391H28.8073Z" fill="#D71923"/>
<path d="M15.835 93.7692H9.54572V100H15.835V93.7692Z" fill="#D71923"/>
<path d="M24.3974 93.7692H18.1082V100H24.3974V93.7692Z" fill="#D71923"/>
</g>
<defs>
<clipPath id="clip0_2_303">
<rect width="277" height="100" fill="white"/>
</clipPath>
</defs>
</svg>
