<svg width="212" height="100" viewBox="0 0 212 100" fill="none" xmlns="http://www.w3.org/2000/svg">
<g clip-path="url(#clip0_2_280)">
<path d="M25.2743 32.1265V23.7938H46.8012V43.5021C44.7091 45.5237 41.6801 47.3128 37.7072 48.8483C33.7343 50.3909 29.7121 51.1587 25.6406 51.1587C20.4632 51.1587 15.9549 50.074 12.1089 47.9045C8.26276 45.735 5.36763 42.6287 3.43754 38.5927C1.5004 34.5566 0.53535 30.1613 0.53535 25.4138C0.53535 20.2648 1.61311 15.6864 3.77565 11.6785C5.9382 7.67063 9.09397 4.60661 13.257 2.46531C16.4269 0.824118 20.3787 0 25.0982 0C31.2407 0 36.0377 1.289 39.4894 3.86701C42.941 6.44502 45.1669 10.0021 46.1531 14.5453L36.235 16.3978C35.5376 13.9677 34.2274 12.0518 32.3044 10.6431C30.3813 9.23434 27.9793 8.53701 25.0982 8.53701C20.7309 8.53701 17.2652 9.91759 14.687 12.6858C12.1089 15.454 10.8198 19.5605 10.8198 25.0053C10.8198 30.8727 12.1229 35.2821 14.7363 38.2123C17.3426 41.1495 20.7661 42.6146 24.9926 42.6146C27.0847 42.6146 29.1838 42.2061 31.283 41.382C33.3892 40.5579 35.1925 39.5647 36.6999 38.3954V32.1195H25.2602L25.2743 32.1265Z" fill="#D71923"/>
<path d="M52.7675 0.845249H62.7561V27.6396C62.7561 31.8941 62.8759 34.6482 63.1295 35.909C63.5592 37.9305 64.5735 39.5577 66.1866 40.7833C67.7927 42.0089 69.9904 42.6217 72.7869 42.6217C75.5835 42.6217 77.7601 42.0441 79.1971 40.8819C80.6341 39.7267 81.5005 38.2968 81.7964 36.6134C82.0852 34.9229 82.2331 32.1265 82.2331 28.2102V0.845249H92.2217V26.8296C92.2217 32.7675 91.954 36.9656 91.4116 39.4168C90.8692 41.868 89.876 43.9389 88.4249 45.6223C86.9738 47.3128 85.0367 48.6511 82.6065 49.6513C80.1762 50.6515 77.0064 51.1516 73.0898 51.1516C68.3632 51.1516 64.7848 50.6093 62.3405 49.5175C59.8962 48.4257 57.9731 47.0099 56.5502 45.2631C55.1344 43.5233 54.1975 41.6919 53.7467 39.7831C53.0916 36.9515 52.7675 32.7675 52.7675 27.2311V0.845249Z" fill="#D71923"/>
<path d="M103.549 50.3134V0.845249H113.537V50.3134H103.549Z" fill="#D71923"/>
<path d="M123.448 0.845249H141.707C145.82 0.845249 148.962 1.16222 151.125 1.78911C154.027 2.6414 156.513 4.16285 158.584 6.34641C160.655 8.52997 162.226 11.1995 163.311 14.3622C164.389 17.5248 164.931 21.42 164.931 26.0548C164.931 30.1261 164.424 33.6339 163.41 36.5852C162.17 40.1845 160.409 43.1007 158.112 45.3265C156.38 47.017 154.041 48.3271 151.096 49.271C148.892 49.9683 145.947 50.3205 142.256 50.3205H123.462V0.845249H123.448ZM133.437 9.21321V41.9807H140.897C143.686 41.9807 145.701 41.8257 146.94 41.5088C148.561 41.1002 149.906 40.417 150.97 39.452C152.04 38.487 152.907 36.8951 153.583 34.6763C154.259 32.4576 154.597 29.4428 154.597 25.6181C154.597 21.7933 154.259 18.8561 153.583 16.8134C152.907 14.7637 151.963 13.1718 150.751 12.0237C149.54 10.8755 147.997 10.1007 146.13 9.69219C144.736 9.37522 142.003 9.22026 137.931 9.22026H133.444L133.437 9.21321Z" fill="#D71923"/>
<path d="M174.377 50.3134V0.845249H211.056V9.21321H184.366V20.1803H209.203V28.5131H184.366V41.9737H212V50.3064H174.37L174.377 50.3134Z" fill="#D71923"/>
<path d="M0.00704026 82.4893C0.00704026 80.1155 0.359253 78.1292 1.07071 76.5232C1.59902 75.3399 2.32457 74.2763 3.2403 73.3324C4.15604 72.3885 5.1563 71.6912 6.24814 71.2404C7.69923 70.6276 9.36869 70.3177 11.2636 70.3177C14.694 70.3177 17.4342 71.3813 19.4911 73.5085C21.548 75.6357 22.5764 78.5941 22.5764 82.3836C22.5764 86.1731 21.555 89.0822 19.5122 91.2024C17.4694 93.3225 14.7363 94.3861 11.3199 94.3861C7.90351 94.3861 5.107 93.3296 3.0642 91.2165C1.0214 89.1033 0 86.2013 0 82.4963L0.00704026 82.4893ZM4.84636 82.3273C4.84636 84.9616 5.45215 86.962 6.67079 88.3215C7.88942 89.6809 9.43209 90.3642 11.3058 90.3642C13.1796 90.3642 14.7152 89.688 15.9197 88.3426C17.1172 86.9902 17.723 84.9687 17.723 82.2709C17.723 79.5732 17.1384 77.615 15.969 76.3048C14.7997 74.9947 13.25 74.3396 11.3129 74.3396C9.37573 74.3396 7.81194 75.0018 6.62852 76.333C5.44511 77.6643 4.8534 79.6647 4.8534 82.3413L4.84636 82.3273Z" fill="#D71923"/>
<path d="M26.9931 93.9776V70.7051H42.948V74.6425H31.6915V80.1507H41.4054V84.0882H31.6915V93.9776H26.9931Z" fill="#D71923"/>
<path d="M55.881 63.5557H69.1099C72.0896 63.5557 74.3648 63.7811 75.9286 64.2389C78.0348 64.8588 79.8311 65.9576 81.3315 67.5424C82.8319 69.1202 83.973 71.0573 84.7549 73.3465C85.5368 75.6357 85.9313 78.4602 85.9313 81.8201C85.9313 84.7714 85.565 87.3142 84.8324 89.4485C83.9378 92.0547 82.6558 94.1678 80.9933 95.7808C79.7395 97.0064 78.0419 97.9573 75.9075 98.6405C74.3085 99.1477 72.1741 99.4013 69.5044 99.4013H55.8881V63.5627L55.881 63.5557ZM63.1154 93.3577H68.5182C70.5399 93.3577 71.998 93.245 72.8926 93.0126C74.069 92.7168 75.0411 92.2237 75.8159 91.5193C76.5908 90.822 77.2247 89.6668 77.7108 88.0609C78.1968 86.4549 78.4434 84.2713 78.4434 81.4961C78.4434 78.7208 78.1968 76.6007 77.7108 75.1145C77.2247 73.6282 76.5344 72.4731 75.6539 71.6419C74.7734 70.8107 73.6604 70.2472 72.308 69.9584C71.2936 69.733 69.3142 69.6133 66.3697 69.6133H63.1154V93.3577Z" fill="#D71923"/>
<path d="M99.9914 63.5557V82.9682C99.9914 86.0463 100.083 88.0468 100.259 88.9554C100.569 90.4205 101.309 91.6039 102.471 92.4914C103.633 93.3789 105.232 93.8226 107.254 93.8226C109.276 93.8226 110.853 93.4 111.896 92.5618C112.938 91.7236 113.565 90.6882 113.777 89.4696C113.988 88.244 114.094 86.2154 114.094 83.3838V63.5557H121.328V82.3766C121.328 86.6803 121.131 89.7161 120.743 91.4982C120.349 93.2732 119.63 94.7735 118.581 95.9921C117.531 97.2177 116.122 98.1898 114.361 98.9153C112.6 99.6408 110.304 100 107.465 100C104.042 100 101.449 99.6055 99.6814 98.8166C97.9133 98.0277 96.5186 96.9994 95.4902 95.7385C94.4617 94.4777 93.7855 93.1535 93.4615 91.7659C92.9895 89.7091 92.75 86.6803 92.75 82.6724V63.5557H99.9914Z" fill="#D71923"/>
<path d="M129.76 63.5557H144.088C146.926 63.5557 149.04 63.6754 150.434 63.9079C151.829 64.1473 153.076 64.6404 154.175 65.3871C155.274 66.1337 156.189 67.1339 156.922 68.3806C157.655 69.6274 158.021 71.022 158.021 72.5717C158.021 74.2481 157.57 75.7907 156.661 77.1924C155.753 78.5941 154.527 79.6436 152.984 80.348C155.168 80.9819 156.844 82.0666 158.021 83.6022C159.197 85.1377 159.782 86.9339 159.782 89.0047C159.782 90.6318 159.402 92.2167 158.648 93.7592C157.887 95.3018 156.852 96.5274 155.541 97.4502C154.231 98.3729 152.611 98.9364 150.688 99.1477C149.483 99.2815 146.574 99.359 141.96 99.3942H129.76V63.5557ZM136.994 69.5217V77.8122H141.735C144.553 77.8122 146.306 77.77 146.99 77.6925C148.23 77.5445 149.202 77.1219 149.913 76.4105C150.625 75.6991 150.977 74.7693 150.977 73.6141C150.977 72.459 150.674 71.6067 150.061 70.9093C149.448 70.2191 148.539 69.7964 147.335 69.6485C146.616 69.564 144.552 69.5288 141.15 69.5288H136.994V69.5217ZM136.994 83.7712V93.3577H143.693C146.299 93.3577 147.955 93.2873 148.659 93.1394C149.737 92.9422 150.61 92.4632 151.287 91.7095C151.963 90.9488 152.301 89.9345 152.301 88.6666C152.301 87.5889 152.04 86.6803 151.519 85.9266C150.998 85.18 150.244 84.6306 149.258 84.2854C148.272 83.9473 146.13 83.7712 142.841 83.7712H136.994Z" fill="#D71923"/>
<path d="M195.749 99.3942H187.874L184.746 91.2517H170.419L167.46 99.3942H159.782L173.743 63.5557H181.393L195.742 99.3942H195.749ZM182.429 85.2152L177.491 71.9166L172.652 85.2152H182.429Z" fill="#D71923"/>
<path d="M200.856 99.3942V63.5557H208.09V99.3942H200.856Z" fill="#D71923"/>
</g>
<defs>
<clipPath id="clip0_2_280">
<rect width="212" height="100" fill="white"/>
</clipPath>
</defs>
</svg>
