<svg width="32" height="22" viewBox="0 0 32 22" fill="none" xmlns="http://www.w3.org/2000/svg">
<mask id="mask0_243_11453" style="mask-type:alpha" maskUnits="userSpaceOnUse" x="0" y="0" width="32" height="22">
<rect x="0.5" width="31" height="22" fill="#016FD0"/>
</mask>
<g mask="url(#mask0_243_11453)">
<rect x="0.5" width="31" height="22" rx="4" fill="white"/>
<path d="M6.52979 16.8306V11.7832H11.6936L12.2476 12.5307L12.82 11.7832H31.5633V16.4825C31.5633 16.4825 31.0732 16.8256 30.5062 16.8306H20.1277L19.503 16.035V16.8306H17.4561V15.4724C17.4561 15.4724 17.1765 15.662 16.572 15.662H15.8753V16.8306H12.7762L12.2229 16.0671L11.6612 16.8306H6.52979Z" fill="#016FD0"/>
<path d="M0.5 7.97858L1.66446 5.16895H3.67827L4.33912 6.74279V5.16895H6.84247L7.23587 6.30647L7.61726 5.16895H18.8547V5.74082C18.8547 5.74082 19.4455 5.16895 20.4163 5.16895L24.0625 5.18213L24.7119 6.73538V5.16895H26.8068L27.3834 6.06116V5.16895H29.4976V10.2164H27.3834L26.8309 9.32124V10.2164H23.7529L23.4434 9.4207H22.616L22.3115 10.2164H20.2241C19.3887 10.2164 18.8547 9.65615 18.8547 9.65615V10.2164H15.7075L15.0829 9.4207V10.2164H3.37994L3.07062 9.4207H2.24581L1.93868 10.2164H0.5V7.97858Z" fill="#016FD0"/>
<path d="M2.07597 5.79102L0.505371 9.57079H1.52791L1.81771 8.81391H3.50243L3.79072 9.57079H4.83579L3.26669 5.79102H2.07597ZM2.65707 6.67068L3.17059 7.9933H2.14204L2.65707 6.67068Z" fill="white"/>
<path d="M4.94385 9.56982V5.79004L6.39694 5.79563L7.24211 8.23259L8.06703 5.79004H9.50851V9.56982H8.59557V6.78472L7.62785 9.56982H6.8272L5.85678 6.78472V9.56982H4.94385Z" fill="white"/>
<path d="M10.1338 9.56985V5.79004H13.1129V6.63553H11.0563V7.28207H13.0648V8.07782H11.0563V8.74924H13.1129V9.56985H10.1338Z" fill="white"/>
<path d="M13.6406 5.79102V9.57083H14.5536V8.228H14.938L16.0326 9.57083H17.1482L15.947 8.17827C16.44 8.13521 16.9485 7.69724 16.9485 7.01728C16.9485 6.22188 16.3454 5.79102 15.6722 5.79102H13.6406ZM14.5536 6.6365H15.5971C15.8475 6.6365 16.0296 6.83919 16.0296 7.03437C16.0296 7.28549 15.7936 7.43225 15.6107 7.43225H14.5536V6.6365Z" fill="white"/>
<path d="M18.2549 9.56985H17.3228V5.79004H18.2549V9.56985Z" fill="white"/>
<path d="M20.4645 9.56985H20.2633C19.2898 9.56985 18.6987 8.77597 18.6987 7.69549C18.6987 6.58831 19.2832 5.79004 20.5126 5.79004H21.5216V6.68526H20.4757C19.9766 6.68526 19.6237 7.08839 19.6237 7.70481C19.6237 8.43682 20.0273 8.74426 20.6087 8.74426H20.8489L20.4645 9.56985Z" fill="white"/>
<path d="M22.4519 5.79102L20.8813 9.57079H21.9039L22.1937 8.81391H23.8784L24.1667 9.57079H25.2118L23.6427 5.79102H22.4519ZM23.033 6.67068L23.5466 7.9933H22.518L23.033 6.67068Z" fill="white"/>
<path d="M25.3174 9.56985V5.79004H26.4781L27.9601 8.16486V5.79004H28.873V9.56985H27.7499L26.2303 7.13287V9.56985H25.3174Z" fill="white"/>
<path d="M7.15479 16.1841V12.4043H10.1339V13.2498H8.07734V13.8963H10.0858V14.6921H8.07734V15.3635H10.1339V16.1841H7.15479Z" fill="white"/>
<path d="M21.7515 16.1841V12.4043H24.7305V13.2498H22.674V13.8963H24.6729V14.6921H22.674V15.3635H24.7305V16.1841H21.7515Z" fill="white"/>
<path d="M10.2499 16.1841L11.7003 14.3175L10.2153 12.4043H11.3655L12.2499 13.587L13.1373 12.4043H14.2424L12.7769 14.2942L14.2301 16.1841H13.0801L12.2214 15.02L11.3835 16.1841H10.2499Z" fill="white"/>
<path d="M14.3374 12.4053V16.1851H15.2744V14.9915H16.2354C17.0485 14.9915 17.6648 14.545 17.6648 13.6766C17.6648 12.9573 17.1814 12.4053 16.354 12.4053H14.3374ZM15.2744 13.2601H16.2864C16.5491 13.2601 16.7369 13.4267 16.7369 13.6953C16.7369 13.9475 16.55 14.1304 16.2834 14.1304H15.2744V13.2601Z" fill="white"/>
<path d="M18.062 12.4043V16.1841H18.975V14.8413H19.3593L20.454 16.1841H21.5696L20.3684 14.7915C20.8614 14.7485 21.3699 14.3105 21.3699 13.6306C21.3699 12.8352 20.7668 12.4043 20.0936 12.4043H18.062ZM18.975 13.2498H20.0185C20.2689 13.2498 20.451 13.4525 20.451 13.6477C20.451 13.8988 20.215 14.0455 20.032 14.0455H18.975V13.2498Z" fill="white"/>
<path d="M25.154 16.1841V15.3635H26.9811C27.2514 15.3635 27.3685 15.2123 27.3685 15.0464C27.3685 14.8875 27.2518 14.7269 26.9811 14.7269H26.1554C25.4378 14.7269 25.0381 14.2743 25.0381 13.5948C25.0381 12.9888 25.4041 12.4043 26.4706 12.4043H28.2484L27.864 13.2548H26.3264C26.0325 13.2548 25.942 13.4144 25.942 13.5668C25.942 13.7235 26.0538 13.8963 26.2784 13.8963H27.1433C27.9433 13.8963 28.2904 14.366 28.2904 14.9812C28.2904 15.6425 27.9036 16.1841 27.0997 16.1841H25.154Z" fill="white"/>
<path d="M28.5041 16.1841V15.3635H30.3312C30.6015 15.3635 30.7186 15.2123 30.7186 15.0464C30.7186 14.8875 30.6019 14.7269 30.3312 14.7269H29.5055C28.7879 14.7269 28.3882 14.2743 28.3882 13.5948C28.3882 12.9888 28.7542 12.4043 29.8207 12.4043H31.5622L31.2141 13.2548H29.6765C29.3826 13.2548 29.2921 13.4144 29.2921 13.5668C29.2921 13.7235 29.4039 13.8963 29.6285 13.8963H30.4934C31.2934 13.8963 31.6405 14.366 31.6405 14.9812C31.6405 15.6425 31.2537 16.1841 30.4498 16.1841H28.5041Z" fill="white"/>
</g>
</svg>
