<svg xmlns="http://www.w3.org/2000/svg" width="21" height="16" viewBox="0 0 21 16" fill="none">
  <path fill-rule="evenodd" clip-rule="evenodd" d="M6.22326 13.9899V14.8021V15.6144H5.86613V15.4172C5.75286 15.5635 5.58098 15.6553 5.34735 15.6553C4.88679 15.6553 4.52573 15.2985 4.52573 14.8021C4.52573 14.3061 4.88679 13.949 5.34735 13.949C5.58098 13.949 5.75286 14.0408 5.86613 14.1871V13.9899H6.22326ZM5.39179 14.282C5.08265 14.282 4.89347 14.5166 4.89347 14.8021C4.89347 15.0877 5.08265 15.3223 5.39179 15.3223C5.68717 15.3223 5.88658 15.0978 5.88658 14.8021C5.88658 14.5065 5.68717 14.282 5.39179 14.282ZM18.2916 14.8021C18.2916 14.5166 18.4808 14.282 18.7899 14.282C19.0857 14.282 19.2847 14.5065 19.2847 14.8021C19.2847 15.0978 19.0857 15.3223 18.7899 15.3223C18.4808 15.3223 18.2916 15.0877 18.2916 14.8021ZM19.6218 13.3375V14.8021V15.6144H19.2643V15.4172C19.151 15.5635 18.9791 15.6553 18.7455 15.6553C18.2849 15.6553 17.9239 15.2985 17.9239 14.8021C17.9239 14.3061 18.2849 13.949 18.7455 13.949C18.9791 13.949 19.151 14.0408 19.2643 14.1871V13.3375H19.6218ZM10.6563 14.2653C10.8863 14.2653 11.0342 14.4081 11.072 14.6594H10.2197C10.2578 14.4248 10.4018 14.2653 10.6563 14.2653ZM9.84525 14.8021C9.84525 14.2956 10.1819 13.949 10.6633 13.949C11.1235 13.949 11.4397 14.2956 11.4433 14.8021C11.4433 14.8496 11.4397 14.894 11.4362 14.9379H10.2165C10.2681 15.2305 10.4777 15.3359 10.7078 15.3359C10.8726 15.3359 11.048 15.2744 11.1856 15.1659L11.3607 15.4277C11.1613 15.5942 10.9347 15.6553 10.6873 15.6553C10.1957 15.6553 9.84525 15.3188 9.84525 14.8021ZM14.9756 14.8021C14.9756 14.5166 15.1648 14.282 15.4739 14.282C15.7693 14.282 15.9687 14.5065 15.9687 14.8021C15.9687 15.0978 15.7693 15.3223 15.4739 15.3223C15.1648 15.3223 14.9756 15.0877 14.9756 14.8021ZM16.3054 13.9899V14.8021V15.6144H15.9483V15.4172C15.8346 15.5635 15.6631 15.6553 15.4295 15.6553C14.9689 15.6553 14.6079 15.2985 14.6079 14.8021C14.6079 14.3061 14.9689 13.949 15.4295 13.949C15.6631 13.949 15.8346 14.0408 15.9483 14.1871V13.9899H16.3054ZM12.9587 14.8021C12.9587 15.295 13.3056 15.6553 13.835 15.6553C14.0824 15.6553 14.2472 15.6008 14.4257 15.4615L14.2542 15.176C14.1201 15.2713 13.9793 15.3223 13.8244 15.3223C13.5392 15.3188 13.3296 15.1149 13.3296 14.8021C13.3296 14.4894 13.5392 14.2855 13.8244 14.282C13.9793 14.282 14.1201 14.333 14.2542 14.4283L14.4257 14.1428C14.2472 14.0035 14.0824 13.949 13.835 13.949C13.3056 13.949 12.9587 14.3093 12.9587 14.8021ZM17.1301 14.1871C17.2229 14.0443 17.357 13.949 17.5631 13.949C17.6355 13.949 17.7386 13.9626 17.8176 13.9934L17.7075 14.3264C17.632 14.2956 17.5564 14.2855 17.4841 14.2855C17.2505 14.2855 17.1336 14.4349 17.1336 14.7037V15.6144H16.7761V13.9899H17.1301V14.1871ZM7.98958 14.119C7.81771 14.007 7.58093 13.949 7.31977 13.949C6.90365 13.949 6.63581 14.1463 6.63581 14.4691C6.63581 14.7341 6.83522 14.8975 7.20257 14.9484L7.3713 14.9722C7.56717 14.9994 7.65959 15.0503 7.65959 15.1422C7.65959 15.2678 7.52902 15.3394 7.28516 15.3394C7.03777 15.3394 6.85921 15.2612 6.73886 15.1694L6.57052 15.4444C6.76639 15.5872 7.01378 15.6553 7.28162 15.6553C7.75596 15.6553 8.03088 15.4343 8.03088 15.125C8.03088 14.8395 7.81456 14.6901 7.45704 14.6391L7.2887 14.615C7.13413 14.5948 7.01024 14.5645 7.01024 14.4555C7.01024 14.3365 7.12705 14.2653 7.32292 14.2653C7.53256 14.2653 7.7355 14.3435 7.83501 14.4046L7.98958 14.119ZM12.165 14.1871C12.2574 14.0443 12.3915 13.949 12.5976 13.949C12.67 13.949 12.7731 13.9626 12.8521 13.9934L12.742 14.3264C12.6665 14.2956 12.591 14.2855 12.5186 14.2855C12.285 14.2855 12.1681 14.4349 12.1681 14.7037V15.6144H11.811V13.9899H12.165V14.1871ZM9.54982 13.9899H8.96575V13.497H8.60469V13.9899H8.27156V14.3128H8.60469V15.0538C8.60469 15.4308 8.75257 15.6553 9.17499 15.6553C9.32995 15.6553 9.50852 15.6078 9.62179 15.5296L9.51874 15.227C9.41216 15.288 9.29534 15.3188 9.20252 15.3188C9.02396 15.3188 8.96575 15.2098 8.96575 15.0468V14.3128H9.54982V13.9899ZM4.20988 14.5948V15.6144H3.84882V14.7103C3.84882 14.4349 3.732 14.282 3.48815 14.282C3.25099 14.282 3.08619 14.4318 3.08619 14.7138V15.6144H2.72513V14.7103C2.72513 14.4349 2.60517 14.282 2.368 14.282C2.12376 14.282 1.96565 14.4318 1.96565 14.7138V15.6144H1.60498L1.60498 13.9899H1.9625V14.1902C2.09662 14 2.2681 13.949 2.44352 13.949C2.69445 13.949 2.87301 14.058 2.98629 14.2381C3.13771 14.0101 3.35403 13.9455 3.56367 13.949C3.96248 13.9525 4.20988 14.2108 4.20988 14.5948Z" fill="#231F20"/>
  <path d="M13.2843 11.2297H7.87158V1.6084H13.2843V11.2297Z" fill="#FF5F00"/>
  <path d="M8.21481 6.41916C8.21481 4.46744 9.13869 2.7289 10.5774 1.60852C9.52532 0.78924 8.1975 0.30024 6.75444 0.30024C3.33815 0.30024 0.568848 3.03973 0.568848 6.41916C0.568848 9.79859 3.33815 12.5381 6.75444 12.5381C8.1975 12.5381 9.52532 12.0491 10.5774 11.2298C9.13869 10.1094 8.21481 8.37088 8.21481 6.41916Z" fill="#EB001B"/>
  <path d="M20.5866 6.41916C20.5866 9.79859 17.8173 12.5381 14.401 12.5381C12.958 12.5381 11.6301 12.0491 10.5776 11.2298C12.0168 10.1094 12.9406 8.37088 12.9406 6.41916C12.9406 4.46744 12.0168 2.7289 10.5776 1.60852C11.6301 0.78924 12.958 0.30024 14.401 0.30024C17.8173 0.30024 20.5866 3.03973 20.5866 6.41916Z" fill="#F79E1B"/>
</svg>
