<svg width="21" height="14" viewBox="0 0 21 14" fill="none" xmlns="http://www.w3.org/2000/svg">
<path d="M4.39966 0.583984H9.44266C10.1466 0.583984 10.5845 1.15926 10.4202 1.8674L8.07236 11.974C7.90666 12.6796 7.20185 13.2554 6.4974 13.2554H1.45489C0.751921 13.2554 0.3131 12.6796 0.47732 11.974L2.82618 1.8674C2.9904 1.15926 3.69485 0.583984 4.39966 0.583984Z" fill="#E21836"/>
<path d="M9.02288 0.583008H14.8222C15.526 0.583008 15.2087 1.15829 15.0431 1.86642L12.6956 11.973C12.5309 12.6787 12.5822 13.2544 11.8769 13.2544H6.07762C5.37231 13.2544 4.93583 12.6787 5.10152 11.973L7.44891 1.86642C7.61558 1.15829 8.31856 0.583008 9.02288 0.583008Z" fill="#00447C"/>
<path d="M14.592 0.583008H19.635C20.3399 0.583008 20.7778 1.15829 20.6122 1.86642L18.2647 11.973C18.099 12.6787 17.3937 13.2544 16.6889 13.2544H11.6482C10.9429 13.2544 10.5054 12.6787 10.6706 11.973L13.0185 1.86642C13.1827 1.15829 13.8867 0.583008 14.592 0.583008Z" fill="#007B84"/>
<path d="M5.71666 3.82156C5.19807 3.82686 5.04491 3.82156 4.99599 3.80997C4.97718 3.89957 4.62723 5.51806 4.62625 5.51942C4.5509 5.84687 4.49608 6.08028 4.30985 6.231C4.20414 6.31862 4.08073 6.3609 3.93765 6.3609C3.70767 6.3609 3.57369 6.24641 3.5512 6.02926L3.5469 5.9547C3.5469 5.9547 3.61696 5.51609 3.61696 5.51363C3.61696 5.51363 3.98424 4.0387 4.05 3.84374C4.05344 3.83265 4.05443 3.82686 4.05529 3.82156C3.34039 3.82784 3.21366 3.82156 3.20494 3.80997C3.20014 3.82587 3.18244 3.91731 3.18244 3.91731L2.80742 5.57968L2.77521 5.72067L2.71289 6.18183C2.71289 6.31863 2.73969 6.43028 2.79303 6.52468C2.96389 6.82403 3.45126 6.86889 3.72697 6.86889C4.08221 6.86889 4.41544 6.79322 4.64063 6.65507C5.03151 6.4235 5.13378 6.06155 5.22498 5.73989L5.26727 5.57488C5.26727 5.57488 5.64561 4.04302 5.7099 3.84374C5.71236 3.83265 5.71334 3.82686 5.71666 3.82156ZM7.00395 5.05732C6.91275 5.05732 6.74607 5.07951 6.59635 5.15308C6.54202 5.18105 6.49064 5.21334 6.43644 5.24551L6.48536 5.06841L6.45856 5.03859C6.14106 5.10304 6.07002 5.11167 5.77673 5.15308L5.75215 5.16947C5.7181 5.45255 5.68786 5.66538 5.56162 6.22181C5.51356 6.42688 5.46366 6.63392 5.41363 6.8385L5.42715 6.8645C5.72769 6.8486 5.81889 6.8486 6.08009 6.85292L6.10124 6.82987C6.13443 6.65943 6.13873 6.6195 6.21223 6.27431C6.24677 6.11065 6.3188 5.75104 6.35433 5.62299C6.4196 5.59267 6.48401 5.56285 6.54547 5.56285C6.69186 5.56285 6.67404 5.6909 6.66839 5.74192C6.66212 5.82757 6.60877 6.10732 6.55407 6.34751L6.51756 6.50255C6.49212 6.61704 6.46422 6.72832 6.43877 6.84182L6.44984 6.8645C6.74607 6.8486 6.83642 6.8486 7.08938 6.85292L7.11913 6.82987C7.16485 6.56367 7.17825 6.49244 7.25938 6.10485L7.30019 5.92677C7.37947 5.57825 7.4193 5.40153 7.35931 5.25759C7.29589 5.09627 7.14371 5.05732 7.00395 5.05732ZM8.44201 5.42222C8.28455 5.45254 8.18412 5.47275 8.08431 5.48581C7.98536 5.50171 7.88887 5.51613 7.7367 5.53733L7.72465 5.54829L7.71359 5.55704C7.69773 5.67067 7.68667 5.76889 7.66565 5.88437C7.64783 6.00379 7.62042 6.13947 7.5758 6.33444C7.54126 6.48368 7.52343 6.53569 7.50377 6.58819C7.48459 6.64069 7.46345 6.69171 7.42461 6.83848L7.4337 6.85204L7.44132 6.86449C7.58354 6.85771 7.67659 6.8529 7.77222 6.85204C7.86773 6.84859 7.96668 6.85204 8.11984 6.8529L8.13323 6.84194L8.14762 6.82986C8.16974 6.6975 8.17306 6.66188 8.18658 6.59731C8.19998 6.52805 8.22309 6.43217 8.27975 6.17607C8.30655 6.05579 8.33642 5.93588 8.3642 5.81314C8.39309 5.69088 8.42332 5.57048 8.45209 5.4502L8.44778 5.43565L8.44201 5.42222ZM8.44536 4.93023C8.30229 4.84556 8.05116 4.87243 7.88215 4.98938C7.71363 5.10399 7.69445 5.26667 7.83704 5.35244C7.97766 5.43477 8.22976 5.41024 8.3973 5.2923C8.56545 5.17523 8.58647 5.01403 8.44536 4.93023ZM9.31065 6.89102C9.60012 6.89102 9.89685 6.81104 10.1202 6.57368C10.292 6.38118 10.3708 6.09477 10.3981 5.97683C10.487 5.58592 10.4178 5.4034 10.3309 5.29224C10.1989 5.12279 9.96556 5.06844 9.72354 5.06844C9.578 5.06844 9.23137 5.08286 8.96058 5.33316C8.76612 5.5137 8.67627 5.7587 8.62206 5.99359C8.56736 6.23292 8.50443 6.66377 8.89961 6.8241C9.02154 6.8766 9.19732 6.89102 9.31065 6.89102ZM9.28803 6.01146C9.35478 5.71544 9.43357 5.46699 9.63466 5.46699C9.79225 5.46699 9.80368 5.65185 9.73361 5.94886C9.72108 6.01479 9.66355 6.25991 9.58574 6.3643C9.53141 6.44132 9.46713 6.48803 9.39608 6.48803C9.37494 6.48803 9.24919 6.48803 9.24722 6.30083C9.24624 6.2084 9.26505 6.114 9.28803 6.01146ZM11.1217 6.85295L11.1444 6.82991C11.1764 6.65947 11.1817 6.61941 11.2528 6.27435C11.2883 6.11068 11.3618 5.75107 11.3963 5.62303C11.4617 5.59259 11.525 5.56276 11.5885 5.56276C11.7339 5.56276 11.7162 5.69081 11.7104 5.74183C11.7051 5.8276 11.6518 6.10723 11.5961 6.34743L11.5615 6.50246C11.5351 6.61707 11.5064 6.72823 11.4809 6.84186L11.492 6.86454C11.7892 6.84864 11.8761 6.84864 12.1305 6.85295L12.1613 6.82991C12.2059 6.56359 12.2179 6.49235 12.3015 6.10489L12.3413 5.92669C12.421 5.57817 12.4613 5.40157 12.4023 5.25762C12.337 5.0963 12.1839 5.05736 12.0461 5.05736C11.9548 5.05736 11.7872 5.07942 11.6384 5.15312C11.5851 5.18109 11.5318 5.21326 11.4794 5.24555L11.525 5.06845L11.5006 5.0385C11.1832 5.10308 11.1107 5.11171 10.8178 5.15312L10.7953 5.16951C10.7597 5.45259 10.7309 5.6653 10.6046 6.22185C10.5566 6.42692 10.5067 6.63396 10.4567 6.83853L10.4701 6.86454C10.7712 6.84864 10.861 6.84864 11.1217 6.85295ZM13.3055 6.86448C13.3241 6.77303 13.4351 6.23103 13.4361 6.23103C13.4361 6.23103 13.5306 5.83333 13.5364 5.81892C13.5364 5.81892 13.5662 5.77751 13.5959 5.76112H13.6397C14.0526 5.76112 14.5188 5.76112 14.8842 5.49159C15.1329 5.30673 15.3029 5.03376 15.3787 4.702C15.3984 4.62066 15.4129 4.52392 15.4129 4.42718C15.4129 4.30012 15.3875 4.17441 15.3139 4.07619C15.1276 3.8148 14.7565 3.81 14.3281 3.80802C14.3268 3.80802 14.117 3.81 14.117 3.81C13.5686 3.81677 13.3487 3.8148 13.2584 3.80371C13.2508 3.84376 13.2364 3.915 13.2364 3.915C13.2364 3.915 13.0399 4.8277 13.0399 4.82918C13.0399 4.82918 12.5699 6.7697 12.5478 6.86115C13.0266 6.85536 13.2229 6.85536 13.3055 6.86448ZM13.6694 5.24314C13.6694 5.24314 13.8783 4.33228 13.8773 4.33573L13.884 4.28903L13.887 4.25341L13.9704 4.26204C13.9704 4.26204 14.4012 4.29913 14.4112 4.30012C14.5812 4.36605 14.6513 4.536 14.6024 4.75783C14.5578 4.96056 14.4266 5.131 14.2581 5.21332C14.1193 5.28307 13.9493 5.28886 13.7741 5.28886H13.6608L13.6694 5.24314ZM14.9697 6.02834C14.9145 6.26422 14.8511 6.69506 15.2443 6.84861C15.3697 6.9021 15.482 6.918 15.5962 6.91221C15.7168 6.90567 15.8285 6.84504 15.932 6.75779C15.9227 6.79365 15.9134 6.82951 15.904 6.8655L15.9218 6.88854C16.2047 6.87659 16.2924 6.87659 16.5989 6.87893L16.6267 6.85773C16.6714 6.594 16.7136 6.33791 16.8298 5.83337C16.8865 5.5917 16.943 5.35237 17.0012 5.11168L16.9921 5.08519C16.6757 5.14397 16.5911 5.15654 16.2868 5.1998L16.2637 5.21866C16.2606 5.24318 16.2574 5.26672 16.2545 5.29026C16.2071 5.2136 16.1385 5.14816 16.0327 5.10737C15.8974 5.05401 15.5795 5.12278 15.3063 5.37221C15.1143 5.55029 15.0221 5.7943 14.9697 6.02834ZM15.6342 6.04275C15.7019 5.75203 15.7797 5.50605 15.9813 5.50605C16.1088 5.50605 16.1759 5.62399 16.1623 5.82511C16.1514 5.87527 16.1398 5.92814 16.1259 5.98791C16.1057 6.0743 16.0838 6.15995 16.0626 6.24573C16.0409 6.30439 16.0157 6.35973 15.9881 6.39657C15.9362 6.47027 15.8128 6.51599 15.7418 6.51599C15.7216 6.51599 15.5972 6.51599 15.5929 6.33212C15.5919 6.24055 15.6107 6.14628 15.6342 6.04275ZM19.1043 5.08283L19.0798 5.05486C18.7667 5.11845 18.7101 5.12856 18.4224 5.1675L18.4013 5.1887C18.4003 5.19215 18.3994 5.19745 18.398 5.20225L18.397 5.19745C18.1829 5.69274 18.1891 5.5859 18.0148 5.97582C18.0139 5.95808 18.0139 5.94699 18.0129 5.92813L17.9692 5.08283L17.9418 5.05486C17.6139 5.11845 17.6061 5.12856 17.3033 5.1675L17.2797 5.1887C17.2763 5.1988 17.2763 5.20989 17.2744 5.22197L17.2763 5.22628C17.3142 5.42026 17.3051 5.377 17.3431 5.68313C17.3608 5.83336 17.3844 5.98445 17.4021 6.13283C17.432 6.38116 17.4487 6.50341 17.4852 6.88237C17.2806 7.22078 17.2322 7.34883 17.0353 7.64584L17.0366 7.64879L16.898 7.86865C16.8821 7.89182 16.8678 7.90772 16.8476 7.9145C16.8255 7.92547 16.7967 7.92744 16.7568 7.92744H16.6799L16.5657 8.30825L16.9575 8.31502C17.1875 8.31404 17.332 8.2062 17.4098 8.06127L17.6562 7.63807H17.6522L17.6782 7.60825C17.8439 7.25061 19.1043 5.08283 19.1043 5.08283ZM14.9697 10.0842H14.8035L15.4186 8.04445H15.6226L15.6874 7.83433L15.6937 8.06799C15.6861 8.21243 15.7994 8.34047 16.0971 8.31928H16.4414L16.5599 7.92651H16.4303C16.3558 7.92651 16.3213 7.90766 16.3256 7.86723L16.3193 7.62951H15.6818V7.63074C15.4756 7.63505 14.86 7.65058 14.7354 7.68386C14.5846 7.7228 14.4257 7.83741 14.4257 7.83741L14.4881 7.62704H13.8917L13.7674 8.04445L13.1441 10.1154H13.0231L12.9045 10.5053H14.0924L14.0526 10.6353H14.6379L14.6768 10.5053H14.841L14.9697 10.0842ZM14.4823 8.45891C14.3868 8.4854 14.2091 8.56575 14.2091 8.56575L14.3671 8.04445H14.841L14.7267 8.42428C14.7267 8.42428 14.5803 8.4329 14.4823 8.45891ZM14.4914 9.20364C14.4914 9.20364 14.3426 9.22237 14.2446 9.24455C14.1481 9.27389 13.9672 9.36631 13.9672 9.36631L14.1304 8.82382H14.6067L14.4914 9.20364ZM14.2259 10.089H13.7506L13.8884 9.63115H14.3622L14.2259 10.089ZM15.3706 8.82382H16.0558L15.9573 9.1435H15.263L15.1588 9.493H15.7663L15.3063 10.1424C15.2741 10.19 15.2452 10.2069 15.2131 10.2204C15.1809 10.2368 15.1387 10.256 15.0897 10.256H14.9212L14.8054 10.6388H15.2462C15.4753 10.6388 15.6107 10.5343 15.7106 10.3971L16.026 9.96427L16.0937 10.4037C16.1081 10.4861 16.1671 10.5343 16.2071 10.553C16.2512 10.5752 16.2968 10.6132 16.3612 10.6189C16.4303 10.6219 16.4802 10.6242 16.5134 10.6242H16.73L16.86 10.1958H16.7746C16.7255 10.1958 16.6411 10.1876 16.6267 10.1722C16.6123 10.1534 16.6123 10.1246 16.6046 10.0807L16.5359 9.64027H16.2545L16.3779 9.493H17.0708L17.1774 9.1435H16.5359L16.6358 8.82382H17.2754L17.394 8.42957H15.4873L15.3706 8.82382ZM9.5838 10.178L9.74372 9.64463H10.401L10.5211 9.24792H9.8632L9.96362 8.91961H10.6065L10.7256 8.53547H9.11708L9.00043 8.91961H9.36587L9.26839 9.24792H8.90197L8.78053 9.6514H9.14584L8.9327 10.3571C8.90394 10.4505 8.94622 10.4861 8.97302 10.5295C9.00043 10.5718 9.02821 10.5997 9.09065 10.6156C9.15506 10.63 9.19919 10.6387 9.25917 10.6387H10.0001L10.1321 10.1992L9.8037 10.2444C9.74028 10.2444 9.56463 10.2368 9.5838 10.178ZM9.65919 7.62464L9.49263 7.92645C9.45699 7.99238 9.4249 8.0333 9.39602 8.05215C9.37057 8.06805 9.32018 8.07471 9.24716 8.07471H9.16026L9.0441 8.46082H9.33271C9.47149 8.46082 9.57806 8.40979 9.62895 8.38428C9.68365 8.35495 9.69803 8.37171 9.74031 8.3308L9.83779 8.24613H10.739L10.8586 7.84413H10.1989L10.3141 7.62464H9.65919ZM10.9897 10.1858C10.9743 10.1636 10.9854 10.1245 11.0089 10.0432L11.2552 9.22572H12.1315C12.2592 9.22388 12.3514 9.2224 12.4114 9.21808C12.4758 9.2113 12.5459 9.18826 12.6222 9.14685C12.701 9.10347 12.7413 9.05775 12.7754 9.00525C12.8133 8.95287 12.8743 8.83826 12.9267 8.66153L13.2363 7.62707L12.3269 7.63237C12.3269 7.63237 12.0469 7.67377 11.9236 7.7195C11.7993 7.77052 11.6215 7.91298 11.6215 7.91298L11.7036 7.62941H11.1419L10.3554 10.2444C10.3275 10.346 10.3089 10.4197 10.3046 10.4639C10.3031 10.5116 10.3645 10.5588 10.4044 10.5944C10.4514 10.63 10.521 10.6242 10.5878 10.63C10.658 10.6353 10.7578 10.6387 10.8956 10.6387H11.3272L11.4598 10.1901L11.0733 10.2267C11.032 10.2267 11.0021 10.2045 10.9897 10.1858ZM11.4142 8.67361H12.3346L12.2761 8.85748C12.2678 8.8618 12.2482 8.84837 12.1545 8.85946H11.3575L11.4142 8.67361ZM11.5985 8.05692H12.5267L12.4599 8.27838C12.4599 8.27838 12.0225 8.27407 11.9524 8.28701C11.6441 8.3405 11.4641 8.50564 11.4641 8.50564L11.5985 8.05692ZM12.2967 9.47322C12.289 9.50071 12.277 9.51747 12.2602 9.53004C12.2415 9.54212 12.2112 9.54643 12.1661 9.54643H12.035L12.0427 9.3225H11.4972L11.4751 10.4172C11.4742 10.4962 11.4818 10.542 11.5395 10.5786C11.5971 10.6243 11.7747 10.6301 12.0138 10.6301H12.3557L12.4791 10.2203L12.1815 10.2367L12.0825 10.2425C12.069 10.2367 12.0561 10.2314 12.0417 10.217C12.0292 10.2045 12.008 10.2122 12.0115 10.1332L12.0138 9.85255L12.3259 9.83961C12.4944 9.83961 12.5665 9.78465 12.6279 9.73227C12.6866 9.68211 12.7057 9.62444 12.7279 9.54643L12.7802 9.29798H12.3514L12.2967 9.47322Z" fill="#FEFEFE"/>
</svg>
