<svg xmlns="http://www.w3.org/2000/svg" width="22" height="20" viewBox="0 0 22 20" fill="none">
<path d="M9 20V18H22V20H9ZM10 17C10 15.65 10.425 14.4708 11.275 13.4625C12.125 12.4542 13.2 11.8333 14.5 11.6V10.975C14.5 10.6917 14.5958 10.4542 14.7875 10.2625C14.9792 10.0708 15.2167 9.975 15.5 9.975C15.7833 9.975 16.0208 10.0708 16.2125 10.2625C16.4042 10.4542 16.5 10.6917 16.5 10.975V11.6C17.7833 11.8333 18.8542 12.4542 19.7125 13.4625C20.5708 14.4708 21 15.65 21 17H10ZM0 11H4V0H0V11ZM6 11H7.975L15.025 8.375C15.3083 8.25833 15.5417 8.07083 15.725 7.8125C15.9083 7.55417 16 7.26667 16 6.95C16 6.68333 15.9083 6.45833 15.725 6.275C15.5417 6.09167 15.3167 6 15.05 6H12L10.25 6.675L9.9 5.75L12 5H19C19.5333 5 20 4.80833 20.4 4.425C20.8 4.04167 21 3.56667 21 3L13 0L6 1.95V11Z" fill="currentColor"/>
</svg>
