<svg xmlns="http://www.w3.org/2000/svg" width="16" height="19" viewBox="0 0 16 19" fill="none">
<path d="M4 19H1V15.95C0.7 15.6167 0.458333 15.2458 0.275 14.8375C0.0916667 14.4292 0 13.9833 0 13.5V4C0 2.61667 0.641667 1.60417 1.925 0.9625C3.20833 0.320833 5.23333 0 8 0C10.8667 0 12.9167 0.308333 14.15 0.925C15.3833 1.54167 16 2.56667 16 4V13.5C16 13.9833 15.9083 14.4292 15.725 14.8375C15.5417 15.2458 15.3 15.6167 15 15.95V19H12V17H4V19ZM2 8H14V5H2V8ZM4.5 14C4.91667 14 5.27083 13.8542 5.5625 13.5625C5.85417 13.2708 6 12.9167 6 12.5C6 12.0833 5.85417 11.7292 5.5625 11.4375C5.27083 11.1458 4.91667 11 4.5 11C4.08333 11 3.72917 11.1458 3.4375 11.4375C3.14583 11.7292 3 12.0833 3 12.5C3 12.9167 3.14583 13.2708 3.4375 13.5625C3.72917 13.8542 4.08333 14 4.5 14ZM11.5 14C11.9167 14 12.2708 13.8542 12.5625 13.5625C12.8542 13.2708 13 12.9167 13 12.5C13 12.0833 12.8542 11.7292 12.5625 11.4375C12.2708 11.1458 11.9167 11 11.5 11C11.0833 11 10.7292 11.1458 10.4375 11.4375C10.1458 11.7292 10 12.0833 10 12.5C10 12.9167 10.1458 13.2708 10.4375 13.5625C10.7292 13.8542 11.0833 14 11.5 14Z" fill="currentColor"/>
</svg>
