<svg xmlns="http://www.w3.org/2000/svg" width="18" height="18" viewBox="0 0 18 18">
  <path d="M5.99984 13.167L8.99984 10.167L11.9998 13.167L13.1665 12.0003L10.1665 9.00033L13.1665 6.00033L11.9998 4.83366L8.99984 7.83366L5.99984 4.83366L4.83317 6.00033L7.83317 9.00033L4.83317 12.0003L5.99984 13.167ZM8.99984 17.3337C7.84706 17.3337 6.76373 17.1149 5.74984 16.6774C4.73595 16.2399 3.854 15.6462 3.104 14.8962C2.354 14.1462 1.76025 13.2642 1.32275 12.2503C0.885254 11.2364 0.666504 10.1531 0.666504 9.00033C0.666504 7.84755 0.885254 6.76421 1.32275 5.75033C1.76025 4.73644 2.354 3.85449 3.104 3.10449C3.854 2.35449 4.73595 1.76074 5.74984 1.32324C6.76373 0.885742 7.84706 0.666992 8.99984 0.666992C10.1526 0.666992 11.2359 0.885742 12.2498 1.32324C13.2637 1.76074 14.1457 2.35449 14.8957 3.10449C15.6457 3.85449 16.2394 4.73644 16.6769 5.75033C17.1144 6.76421 17.3332 7.84755 17.3332 9.00033C17.3332 10.1531 17.1144 11.2364 16.6769 12.2503C16.2394 13.2642 15.6457 14.1462 14.8957 14.8962C14.1457 15.6462 13.2637 16.2399 12.2498 16.6774C11.2359 17.1149 10.1526 17.3337 8.99984 17.3337ZM8.99984 15.667C10.8609 15.667 12.4373 15.0212 13.729 13.7295C15.0207 12.4378 15.6665 10.8614 15.6665 9.00033C15.6665 7.13921 15.0207 5.56283 13.729 4.27116C12.4373 2.97949 10.8609 2.33366 8.99984 2.33366C7.13873 2.33366 5.56234 2.97949 4.27067 4.27116C2.979 5.56283 2.33317 7.13921 2.33317 9.00033C2.33317 10.8614 2.979 12.4378 4.27067 13.7295C5.56234 15.0212 7.13873 15.667 8.99984 15.667Z" fill="currentColor"/>
</svg>
