<svg xmlns="http://www.w3.org/2000/svg" width="16" height="14" viewBox="0 0 16 14" fill="none">
<path d="M3 12.0485V13.7152H0.5V6.21517L2.54167 0.381836H13.4583L15.5 6.21517V13.7152H13V12.0485H3ZM2.83333 4.5485H13.1667L12.2917 2.0485H3.70833L2.83333 4.5485ZM4.25 9.5485C4.59722 9.5485 4.89236 9.42698 5.13542 9.18392C5.37847 8.94086 5.5 8.64573 5.5 8.2985C5.5 7.95128 5.37847 7.65614 5.13542 7.41309C4.89236 7.17003 4.59722 7.0485 4.25 7.0485C3.90278 7.0485 3.60764 7.17003 3.36458 7.41309C3.12153 7.65614 3 7.95128 3 8.2985C3 8.64573 3.12153 8.94086 3.36458 9.18392C3.60764 9.42698 3.90278 9.5485 4.25 9.5485ZM11.75 9.5485C12.0972 9.5485 12.3924 9.42698 12.6354 9.18392C12.8785 8.94086 13 8.64573 13 8.2985C13 7.95128 12.8785 7.65614 12.6354 7.41309C12.3924 7.17003 12.0972 7.0485 11.75 7.0485C11.4028 7.0485 11.1076 7.17003 10.8646 7.41309C10.6215 7.65614 10.5 7.95128 10.5 8.2985C10.5 8.64573 10.6215 8.94086 10.8646 9.18392C11.1076 9.42698 11.4028 9.5485 11.75 9.5485ZM2.16667 10.3818H13.8333V6.21517H2.16667V10.3818Z" fill="currentColor"/>
</svg>
