<svg xmlns="http://www.w3.org/2000/svg" width="14" height="14" viewBox="0 0 14 14" fill="none">
<path d="M7.00065 10.9997C8.11176 10.9997 9.05621 10.6108 9.83399 9.83301C10.6118 9.05523 11.0007 8.11079 11.0007 6.99967C11.0007 5.88856 10.6118 4.94412 9.83399 4.16634C9.05621 3.38856 8.11176 2.99967 7.00065 2.99967V6.99967L4.16732 9.83301C4.55621 10.1997 4.99232 10.4858 5.47565 10.6913C5.95898 10.8969 6.46732 10.9997 7.00065 10.9997ZM7.00065 13.6663C6.07843 13.6663 5.21176 13.4913 4.40065 13.1413C3.58954 12.7913 2.88398 12.3163 2.28398 11.7163C1.68398 11.1163 1.20898 10.4108 0.858984 9.59968C0.508984 8.78856 0.333984 7.9219 0.333984 6.99967C0.333984 6.07745 0.508984 5.21079 0.858984 4.39967C1.20898 3.58856 1.68398 2.88301 2.28398 2.28301C2.88398 1.68301 3.58954 1.20801 4.40065 0.858008C5.21176 0.508008 6.07843 0.333008 7.00065 0.333008C7.92287 0.333008 8.78954 0.508008 9.60065 0.858008C10.4118 1.20801 11.1173 1.68301 11.7173 2.28301C12.3173 2.88301 12.7923 3.58856 13.1423 4.39967C13.4923 5.21079 13.6673 6.07745 13.6673 6.99967C13.6673 7.9219 13.4923 8.78856 13.1423 9.59968C12.7923 10.4108 12.3173 11.1163 11.7173 11.7163C11.1173 12.3163 10.4118 12.7913 9.60065 13.1413C8.78954 13.4913 7.92287 13.6663 7.00065 13.6663ZM7.00065 12.333C8.48954 12.333 9.75065 11.8163 10.784 10.783C11.8173 9.74967 12.334 8.48856 12.334 6.99967C12.334 5.51079 11.8173 4.24967 10.784 3.21634C9.75065 2.18301 8.48954 1.66634 7.00065 1.66634C5.51176 1.66634 4.25065 2.18301 3.21732 3.21634C2.18398 4.24967 1.66732 5.51079 1.66732 6.99967C1.66732 8.48856 2.18398 9.74967 3.21732 10.783C4.25065 11.8163 5.51176 12.333 7.00065 12.333Z" fill="currentColor"/>
</svg>
