<svg xmlns="http://www.w3.org/2000/svg" width="18" height="18" viewBox="0 0 18 18" fill="none">
<path d="M9 16.5C7.9625 16.5 6.9875 16.3031 6.075 15.9094C5.1625 15.5156 4.36875 14.9813 3.69375 14.3063C3.01875 13.6313 2.48438 12.8375 2.09063 11.925C1.69688 11.0125 1.5 10.0375 1.5 9C1.5 7.9625 1.69688 6.9875 2.09063 6.075C2.48438 5.1625 3.01875 4.36875 3.69375 3.69375C4.36875 3.01875 5.1625 2.48438 6.075 2.09063C6.9875 1.69688 7.9625 1.5 9 1.5C10.0375 1.5 11.0125 1.69688 11.925 2.09063C12.8375 2.48438 13.6313 3.01875 14.3063 3.69375C14.9813 4.36875 15.5156 5.1625 15.9094 6.075C16.3031 6.9875 16.5 7.9625 16.5 9C16.5 9.3375 16.4813 9.66875 16.4438 9.99375C16.4063 10.3188 16.3438 10.6375 16.2563 10.95C16.0813 10.75 15.8781 10.5813 15.6469 10.4438C15.4156 10.3063 15.1625 10.2125 14.8875 10.1625C14.925 9.975 14.9531 9.78438 14.9719 9.59063C14.9906 9.39688 15 9.2 15 9C15 7.325 14.4188 5.90625 13.2563 4.74375C12.0938 3.58125 10.675 3 9 3C7.325 3 5.90625 3.58125 4.74375 4.74375C3.58125 5.90625 3 7.325 3 9C3 10.675 3.58125 12.0938 4.74375 13.2563C5.90625 14.4188 7.325 15 9 15C9.6375 15 10.2469 14.9063 10.8281 14.7188C11.4094 14.5313 11.9438 14.2688 12.4313 13.9313C12.5813 14.1438 12.7656 14.3313 12.9844 14.4938C13.2031 14.6563 13.4375 14.7813 13.6875 14.8688C13.05 15.3813 12.3344 15.7813 11.5406 16.0688C10.7469 16.3563 9.9 16.5 9 16.5ZM14.4375 13.5C14.175 13.5 13.9531 13.4094 13.7719 13.2281C13.5906 13.0469 13.5 12.825 13.5 12.5625C13.5 12.3 13.5906 12.0781 13.7719 11.8969C13.9531 11.7156 14.175 11.625 14.4375 11.625C14.7 11.625 14.9219 11.7156 15.1031 11.8969C15.2844 12.0781 15.375 12.3 15.375 12.5625C15.375 12.825 15.2844 13.0469 15.1031 13.2281C14.9219 13.4094 14.7 13.5 14.4375 13.5ZM11.475 12.525L8.25 9.3V5.25H9.75V8.7L12.525 11.475L11.475 12.525Z" fill="currentColor"/>
</svg>
