<svg xmlns="http://www.w3.org/2000/svg" width="18" height="18" viewBox="0 0 18 18" fill="none">
<path d="M9 15.75C8.075 15.75 7.20312 15.5719 6.38438 15.2156C5.56563 14.8594 4.85 14.375 4.2375 13.7625C3.625 13.15 3.14063 12.4344 2.78438 11.6156C2.42813 10.7969 2.25 9.925 2.25 9C2.25 8.45 2.3125 7.91563 2.4375 7.39688C2.5625 6.87813 2.74375 6.39062 2.98125 5.93438C3.21875 5.47813 3.50313 5.05313 3.83438 4.65938C4.16563 4.26562 4.5375 3.9125 4.95 3.6L10.05 8.7L9 9.75L4.95 5.7C4.575 6.15 4.28125 6.65313 4.06875 7.20938C3.85625 7.76562 3.75 8.3625 3.75 9C3.75 10.45 4.2625 11.6875 5.2875 12.7125C6.3125 13.7375 7.55 14.25 9 14.25C10.45 14.25 11.6875 13.7375 12.7125 12.7125C13.7375 11.6875 14.25 10.45 14.25 9C14.25 7.6625 13.8219 6.50938 12.9656 5.54063C12.1094 4.57188 11.0375 4 9.75 3.825V5.25H8.25V2.25H9C9.925 2.25 10.7969 2.42813 11.6156 2.78438C12.4344 3.14063 13.15 3.625 13.7625 4.2375C14.375 4.85 14.8594 5.56563 15.2156 6.38438C15.5719 7.20312 15.75 8.075 15.75 9C15.75 9.925 15.5719 10.7969 15.2156 11.6156C14.8594 12.4344 14.375 13.15 13.7625 13.7625C13.15 14.375 12.4344 14.8594 11.6156 15.2156C10.7969 15.5719 9.925 15.75 9 15.75ZM5.25 9.75C5.0375 9.75 4.85938 9.67813 4.71563 9.53438C4.57188 9.39063 4.5 9.2125 4.5 9C4.5 8.7875 4.57188 8.60938 4.71563 8.46563C4.85938 8.32188 5.0375 8.25 5.25 8.25C5.4625 8.25 5.64063 8.32188 5.78438 8.46563C5.92813 8.60938 6 8.7875 6 9C6 9.2125 5.92813 9.39063 5.78438 9.53438C5.64063 9.67813 5.4625 9.75 5.25 9.75ZM9 13.5C8.7875 13.5 8.60938 13.4281 8.46563 13.2844C8.32188 13.1406 8.25 12.9625 8.25 12.75C8.25 12.5375 8.32188 12.3594 8.46563 12.2156C8.60938 12.0719 8.7875 12 9 12C9.2125 12 9.39063 12.0719 9.53438 12.2156C9.67813 12.3594 9.75 12.5375 9.75 12.75C9.75 12.9625 9.67813 13.1406 9.53438 13.2844C9.39063 13.4281 9.2125 13.5 9 13.5ZM12.75 9.75C12.5375 9.75 12.3594 9.67813 12.2156 9.53438C12.0719 9.39063 12 9.2125 12 9C12 8.7875 12.0719 8.60938 12.2156 8.46563C12.3594 8.32188 12.5375 8.25 12.75 8.25C12.9625 8.25 13.1406 8.32188 13.2844 8.46563C13.4281 8.60938 13.5 8.7875 13.5 9C13.5 9.2125 13.4281 9.39063 13.2844 9.53438C13.1406 9.67813 12.9625 9.75 12.75 9.75Z" fill="currentColor"/>
</svg>
