<svg xmlns="http://www.w3.org/2000/svg" width="16" height="16" viewBox="0 0 16 16" fill="none">
<path d="M4 14.6663C3.44444 14.6663 2.97222 14.4719 2.58333 14.083C2.19444 13.6941 2 13.2219 2 12.6663V10.6663H4V1.33301H14V12.6663C14 13.2219 13.8056 13.6941 13.4167 14.083C13.0278 14.4719 12.5556 14.6663 12 14.6663H4ZM12 13.333C12.1889 13.333 12.3472 13.2691 12.475 13.1413C12.6028 13.0136 12.6667 12.8552 12.6667 12.6663V2.66634H5.33333V10.6663H11.3333V12.6663C11.3333 12.8552 11.3972 13.0136 11.525 13.1413C11.6528 13.2691 11.8111 13.333 12 13.333ZM6 5.99967V4.66634H12V5.99967H6ZM6 7.99967V6.66634H12V7.99967H6Z" fill="currentColor"/>
</svg>
