<svg xmlns="http://www.w3.org/2000/svg" width="20" height="21" viewBox="0 0 20 21" fill="none">
<path d="M1.66602 17.7145V4.17285L5.83268 1.04785L9.99935 4.17285V6.04785H18.3327V17.7145H1.66602ZM3.33268 16.0479H4.99935V14.3812H3.33268V16.0479ZM3.33268 12.7145H4.99935V11.0479H3.33268V12.7145ZM3.33268 9.38118H4.99935V7.71452H3.33268V9.38118ZM3.33268 6.04785H4.99935V4.38118H3.33268V6.04785ZM6.66602 6.04785H8.33268V4.38118H6.66602V6.04785ZM6.66602 16.0479H16.666V7.71452H6.66602V16.0479ZM11.666 11.0479V9.38118H14.9994V11.0479H11.666ZM11.666 14.3812V12.7145H14.9994V14.3812H11.666ZM8.33268 11.0479V9.38118H9.99935V11.0479H8.33268ZM8.33268 14.3812V12.7145H9.99935V14.3812H8.33268Z" fill="currentColor"/>
</svg>
