<svg xmlns="http://www.w3.org/2000/svg" width="20" height="20" viewBox="0 0 20 20" fill="none">
<path d="M9.87565 19.1667L1.64648 10.9375L7.93815 4.64583L10.9798 7.6875L11.5632 7.10417L7.10482 2.64583L1.41732 8.33333L2.22982 9.14583L1.04232 10.3333L-0.916016 8.375L7.14648 0.3125L9.72982 2.89583L12.3132 0.3125L20.5215 8.52083L9.87565 19.1667ZM9.89648 16.8333L18.1673 8.52083L12.2923 2.64583L10.8965 4.04167L13.9382 7.08333L10.9798 10.0417L7.93815 7L4.00065 10.9375L4.60482 11.5417L7.70898 8.4375L8.87565 9.60417L5.77148 12.7083L6.35482 13.2917L9.45898 10.1875L10.6465 11.375L7.54232 14.4792L8.12565 15.0625L11.2298 11.9583L12.3965 13.125L9.29232 16.2292L9.89648 16.8333Z" fill="currentColor"/>
</svg>
