<svg xmlns="http://www.w3.org/2000/svg" width="18" height="18" viewBox="0 0 18 18" fill="none">
<path d="M8.16699 13.167H9.83366V8.16699H8.16699V13.167ZM9.00033 6.50033C9.23644 6.50033 9.43435 6.42046 9.59408 6.26074C9.7538 6.10102 9.83366 5.9031 9.83366 5.66699C9.83366 5.43088 9.7538 5.23296 9.59408 5.07324C9.43435 4.91352 9.23644 4.83366 9.00033 4.83366C8.76422 4.83366 8.5663 4.91352 8.40658 5.07324C8.24685 5.23296 8.16699 5.43088 8.16699 5.66699C8.16699 5.9031 8.24685 6.10102 8.40658 6.26074C8.5663 6.42046 8.76422 6.50033 9.00033 6.50033ZM9.00033 17.3337C7.84755 17.3337 6.76421 17.1149 5.75033 16.6774C4.73644 16.2399 3.85449 15.6462 3.10449 14.8962C2.35449 14.1462 1.76074 13.2642 1.32324 12.2503C0.885742 11.2364 0.666992 10.1531 0.666992 9.00033C0.666992 7.84755 0.885742 6.76421 1.32324 5.75033C1.76074 4.73644 2.35449 3.85449 3.10449 3.10449C3.85449 2.35449 4.73644 1.76074 5.75033 1.32324C6.76421 0.885742 7.84755 0.666992 9.00033 0.666992C10.1531 0.666992 11.2364 0.885742 12.2503 1.32324C13.2642 1.76074 14.1462 2.35449 14.8962 3.10449C15.6462 3.85449 16.2399 4.73644 16.6774 5.75033C17.1149 6.76421 17.3337 7.84755 17.3337 9.00033C17.3337 10.1531 17.1149 11.2364 16.6774 12.2503C16.2399 13.2642 15.6462 14.1462 14.8962 14.8962C14.1462 15.6462 13.2642 16.2399 12.2503 16.6774C11.2364 17.1149 10.1531 17.3337 9.00033 17.3337Z" fill="currentColor"/>
</svg>
