<svg xmlns="http://www.w3.org/2000/svg" width="27" height="36" viewBox="0 0 27 36" fill="none">
  <path d="M26.584 1.10742V34.7637L13.5986 29.1992L13.5 29.1572L13.4014 29.1992L0.416992 34.7637V1.10742H26.584ZM16.9287 8.22656C16.2273 8.22659 15.5505 8.36897 14.9004 8.65234C14.347 8.89357 13.879 9.21581 13.5 9.62012C13.1241 9.21714 12.6655 8.89468 12.126 8.65332C11.4889 8.36833 10.8028 8.22656 10.0713 8.22656C8.86075 8.22668 7.81343 8.66704 6.94238 9.53809C6.07139 10.4092 5.63086 11.4564 5.63086 12.667C5.63086 13.2944 5.72261 13.878 5.90723 14.415C6.09459 14.9599 6.46968 15.5881 7.0166 16.2959C7.56591 17.0068 8.33696 17.849 9.3252 18.8213C10.3128 19.7929 11.6485 21.0417 13.332 22.5664L13.502 22.7197L13.6699 22.5654C15.2897 21.0727 16.6005 19.8404 17.6025 18.8701C18.6068 17.8977 19.3866 17.0554 19.9365 16.3438C20.4839 15.6354 20.8655 15.0003 21.0684 14.4424C21.2695 13.8891 21.3691 13.2968 21.3691 12.667C21.3691 11.4563 20.9288 10.4092 20.0576 9.53809C19.1865 8.66697 18.1394 8.22656 16.9287 8.22656Z"
        fill="currentColor"
        stroke="currentColor"
        stroke-width="0.5"/>
</svg>
