<svg xmlns="http://www.w3.org/2000/svg" width="21" height="24" viewBox="0 0 21 24" fill="none">
<path d="M9.99999 23.6673C9.35832 23.6673 8.80902 23.4388 8.35207 22.9819C7.89513 22.525 7.66666 21.9756 7.66666 21.334H12.3333C12.3333 21.9756 12.1049 22.525 11.6479 22.9819C11.191 23.4388 10.6417 23.6673 9.99999 23.6673ZM0.666656 20.1673V17.834H2.99999V9.66732C2.99999 8.05343 3.4861 6.6194 4.45832 5.36523C5.43055 4.11107 6.69443 3.28954 8.24999 2.90065V0.333984H11.75V2.46315C11.5361 2.89093 11.3805 3.32843 11.2833 3.77565C11.1861 4.22287 11.1472 4.67982 11.1667 5.14648C10.9722 5.1076 10.7826 5.07357 10.5979 5.0444C10.4132 5.01523 10.2139 5.00065 9.99999 5.00065C8.71666 5.00065 7.61805 5.4576 6.70416 6.37148C5.79027 7.28537 5.33332 8.38398 5.33332 9.66732V17.834H14.6667V10.3382C15.0167 10.4937 15.391 10.6152 15.7896 10.7027C16.1882 10.7902 16.5917 10.834 17 10.834V17.834H19.3333V20.1673H0.666656ZM17 8.50065C16.0278 8.50065 15.2014 8.16037 14.5208 7.47982C13.8403 6.79926 13.5 5.97287 13.5 5.00065C13.5 4.02843 13.8403 3.20204 14.5208 2.52148C15.2014 1.84093 16.0278 1.50065 17 1.50065C17.9722 1.50065 18.7986 1.84093 19.4792 2.52148C20.1597 3.20204 20.5 4.02843 20.5 5.00065C20.5 5.97287 20.1597 6.79926 19.4792 7.47982C18.7986 8.16037 17.9722 8.50065 17 8.50065Z" fill="currentColor"/>
</svg>
