<svg xmlns="http://www.w3.org/2000/svg" width="21" height="20" viewBox="0 0 21 20" fill="none">
<path d="M9.84141 20C9.59141 20 9.34141 19.95 9.09141 19.85C8.84141 19.75 8.61641 19.6 8.41641 19.4L1.26641 12.25C1.06641 12.05 0.920573 11.8292 0.828906 11.5875C0.73724 11.3458 0.691406 11.1 0.691406 10.85C0.691406 10.6 0.73724 10.35 0.828906 10.1C0.920573 9.85 1.06641 9.625 1.26641 9.425L10.0664 0.6C10.2497 0.416667 10.4664 0.270833 10.7164 0.1625C10.9664 0.0541667 11.2247 0 11.4914 0H18.6664C19.2164 0 19.6872 0.195833 20.0789 0.5875C20.4706 0.979167 20.6664 1.45 20.6664 2V9.175C20.6664 9.44167 20.6164 9.69583 20.5164 9.9375C20.4164 10.1792 20.2747 10.3917 20.0914 10.575L11.2664 19.4C11.0664 19.6 10.8414 19.75 10.5914 19.85C10.3414 19.95 10.0914 20 9.84141 20ZM16.1664 6C16.5831 6 16.9372 5.85417 17.2289 5.5625C17.5206 5.27083 17.6664 4.91667 17.6664 4.5C17.6664 4.08333 17.5206 3.72917 17.2289 3.4375C16.9372 3.14583 16.5831 3 16.1664 3C15.7497 3 15.3956 3.14583 15.1039 3.4375C14.8122 3.72917 14.6664 4.08333 14.6664 4.5C14.6664 4.91667 14.8122 5.27083 15.1039 5.5625C15.3956 5.85417 15.7497 6 16.1664 6Z" fill="currentColor"/>
</svg>
