<svg xmlns="http://www.w3.org/2000/svg" width="18" height="18" viewBox="0 0 18 18" fill="none">
<path d="M9 8.25C10.875 8.25 12.4688 7.95625 13.7813 7.36875C15.0938 6.78125 15.75 6.075 15.75 5.25C15.75 4.425 15.0938 3.71875 13.7813 3.13125C12.4688 2.54375 10.875 2.25 9 2.25C7.125 2.25 5.53125 2.54375 4.21875 3.13125C2.90625 3.71875 2.25 4.425 2.25 5.25C2.25 6.075 2.90625 6.78125 4.21875 7.36875C5.53125 7.95625 7.125 8.25 9 8.25ZM9 10.125C9.5125 10.125 10.1531 10.0719 10.9219 9.96563C11.6906 9.85938 12.4313 9.6875 13.1438 9.45C13.8563 9.2125 14.4688 8.90313 14.9813 8.52188C15.4938 8.14063 15.75 7.675 15.75 7.125V9C15.75 9.55 15.4938 10.0156 14.9813 10.3969C14.4688 10.7781 13.8563 11.0875 13.1438 11.325C12.4313 11.5625 11.6906 11.7344 10.9219 11.8406C10.1531 11.9469 9.5125 12 9 12C8.4875 12 7.84688 11.9469 7.07813 11.8406C6.30938 11.7344 5.56875 11.5625 4.85625 11.325C4.14375 11.0875 3.53125 10.7781 3.01875 10.3969C2.50625 10.0156 2.25 9.55 2.25 9V7.125C2.25 7.675 2.50625 8.14063 3.01875 8.52188C3.53125 8.90313 4.14375 9.2125 4.85625 9.45C5.56875 9.6875 6.30938 9.85938 7.07813 9.96563C7.84688 10.0719 8.4875 10.125 9 10.125ZM9 13.875C9.5125 13.875 10.1531 13.8219 10.9219 13.7156C11.6906 13.6094 12.4313 13.4375 13.1438 13.2C13.8563 12.9625 14.4688 12.6531 14.9813 12.2719C15.4938 11.8906 15.75 11.425 15.75 10.875V12.75C15.75 13.3 15.4938 13.7656 14.9813 14.1469C14.4688 14.5281 13.8563 14.8375 13.1438 15.075C12.4313 15.3125 11.6906 15.4844 10.9219 15.5906C10.1531 15.6969 9.5125 15.75 9 15.75C8.4875 15.75 7.84688 15.6969 7.07813 15.5906C6.30938 15.4844 5.56875 15.3125 4.85625 15.075C4.14375 14.8375 3.53125 14.5281 3.01875 14.1469C2.50625 13.7656 2.25 13.3 2.25 12.75V10.875C2.25 11.425 2.50625 11.8906 3.01875 12.2719C3.53125 12.6531 4.14375 12.9625 4.85625 13.2C5.56875 13.4375 6.30938 13.6094 7.07813 13.7156C7.84688 13.8219 8.4875 13.875 9 13.875Z" fill="currentColor"/>
</svg>
