<svg xmlns="http://www.w3.org/2000/svg" width="20" height="20" viewBox="0 0 20 20" fill="none">
<path d="M5.83268 18.3337V17.5003H4.16602V5.00033H7.49935V1.66699H12.4993V5.00033H15.8327V17.5003H14.166V18.3337H12.4993V17.5003H7.49935V18.3337H5.83268ZM9.16602 5.00033H10.8327V3.33366H9.16602V5.00033ZM9.99935 10.0003C10.7355 10.0003 11.4542 9.90658 12.1556 9.71908C12.857 9.53158 13.5271 9.25033 14.166 8.87533V6.66699H5.83268V8.87533C6.47157 9.25033 7.14171 9.53158 7.8431 9.71908C8.54449 9.90658 9.26324 10.0003 9.99935 10.0003ZM9.16602 12.5003V11.6253C8.58268 11.5559 8.01324 11.4517 7.45768 11.3128C6.90213 11.1739 6.36046 10.9864 5.83268 10.7503V15.8337H14.166V10.7503C13.6382 10.9864 13.0966 11.1739 12.541 11.3128C11.9855 11.4517 11.416 11.5559 10.8327 11.6253V12.5003H9.16602Z" fill="currentColor"/>
</svg>
