<svg width="33" height="22" viewBox="0 0 33 22" fill="none" xmlns="http://www.w3.org/2000/svg">
<rect x="1" y="0.5" width="31" height="21" rx="3.5" fill="white" stroke="#F3F3F3"/>
<path d="M14.7081 15.0881H12.5776L13.9102 7.3877H16.0405L14.7081 15.0881Z" fill="#15195A"/>
<path d="M22.4309 7.57588C22.0107 7.42008 21.3441 7.24805 20.52 7.24805C18.4161 7.24805 16.9345 8.29656 16.9255 9.79561C16.908 10.9016 17.9862 11.5159 18.7926 11.8847C19.6169 12.2615 19.8971 12.5075 19.8971 12.8434C19.8887 13.3592 19.231 13.597 18.6176 13.597C17.7671 13.597 17.3113 13.4744 16.6187 13.1874L16.3382 13.0644L16.04 14.793C16.5397 15.0057 17.4603 15.1945 18.4161 15.2028C20.6515 15.2028 22.1069 14.1705 22.1241 12.573C22.1326 11.6964 21.5633 11.0247 20.3358 10.4759C19.5907 10.1236 19.1343 9.88598 19.1343 9.52548C19.1431 9.19775 19.5203 8.86208 20.3615 8.86208C21.0541 8.84563 21.5629 9.00122 21.9484 9.15692L22.1411 9.23869L22.4309 7.57588Z" fill="#15195A"/>
<path fill-rule="evenodd" clip-rule="evenodd" d="M26.2444 7.3877H27.8923L29.6111 15.088H27.6384C27.6384 15.088 27.4454 14.2032 27.3842 13.9329H24.6489C24.5698 14.1376 24.2018 15.088 24.2018 15.088H21.9663L25.1309 8.0266C25.3501 7.52684 25.7362 7.3877 26.2444 7.3877ZM26.1131 10.2056C26.1131 10.2056 25.438 11.9177 25.2625 12.3601H27.0334C26.9458 11.9751 26.5423 10.1319 26.5423 10.1319L26.3934 9.46838C26.3307 9.63923 26.2401 9.87413 26.1789 10.0326C26.1374 10.14 26.1096 10.2122 26.1131 10.2056Z" fill="#15195A"/>
<path d="M6.77441 7.3877C7.23898 7.40393 7.61561 7.54338 7.73828 8.03516L8.48242 11.5713L8.4834 11.5732L8.71191 12.6387L10.7979 7.3877H13.0508L9.70215 15.0801H7.44922L5.5498 8.38867C4.89478 8.03085 4.14727 7.7427 3.31152 7.54297L3.34668 7.3877H6.77441Z" fill="#15195A"/>
</svg>
