<svg width="24" height="23" viewBox="0 0 24 23" fill="none" xmlns="http://www.w3.org/2000/svg">
<g clip-path="url(#clip0_1241_3241)">
<path d="M12 23C18.6274 23 24 17.8513 24 11.5C24 5.14873 18.6274 0 12 0C5.37258 0 0 5.14873 0 11.5C0 17.8513 5.37258 23 12 23Z" fill="#0052B4"/>
<path d="M12.0003 4.5L12.3888 5.64591H13.646L12.6289 6.35411L13.0174 7.50002L12.0003 6.79178L10.9831 7.50002L11.3716 6.35411L10.3545 5.64591H11.6117L12.0003 4.5Z" fill="#FFDA44"/>
<path d="M6.83523 6.55029L7.95554 7.09726L8.84453 6.24536L8.64779 7.43534L9.76806 7.98236L8.52629 8.17085L8.32961 9.36092L7.75881 8.28733L6.51709 8.47587L7.40607 7.62392L6.83523 6.55029Z" fill="#FFDA44"/>
<path d="M4.6958 11.5001L5.89153 11.1277V9.92285L6.63047 10.8977L7.82625 10.5253L7.08718 11.5001L7.82625 12.4748L6.63047 12.1025L5.89153 13.0773V11.8724L4.6958 11.5001Z" fill="#FFDA44"/>
<path d="M6.83523 16.4497L7.40603 15.3761L6.51709 14.5242L7.75886 14.7127L8.32956 13.6392L8.52629 14.8292L9.76801 15.0177L8.64789 15.5647L8.84453 16.7547L7.95554 15.9027L6.83523 16.4497Z" fill="#FFDA44"/>
<path d="M12.0003 18.4999L11.6117 17.354H10.3545L11.3717 16.6458L10.9831 15.5L12.0003 16.2081L13.0174 15.5L12.6289 16.6458L13.646 17.354H12.3888L12.0003 18.4999Z" fill="#FFDA44"/>
<path d="M17.1652 16.4497L16.0449 15.9028L15.1559 16.7547L15.3526 15.5646L14.2324 15.0177L15.4741 14.8292L15.6708 13.6392L16.2416 14.7127L17.4833 14.5242L16.5943 15.3762L17.1652 16.4497Z" fill="#FFDA44"/>
<path d="M19.3047 11.5001L18.1089 11.8724V13.0773L17.37 12.1025L16.1743 12.4748L16.9133 11.5001L16.1743 10.5253L17.37 10.8977L18.1089 9.92285V11.1277L19.3047 11.5001Z" fill="#FFDA44"/>
<path d="M17.1652 6.55025L16.5944 7.62388L17.4833 8.47582L16.2415 8.28724L15.6708 9.36083L15.4741 8.1708L14.2324 7.98227L15.3526 7.4353L15.1559 6.24536L16.0449 7.09726L17.1652 6.55025Z" fill="#FFDA44"/>
</g>
<defs>
<clipPath id="clip0_1241_3241">
<rect width="24" height="23" fill="white"/>
</clipPath>
</defs>
</svg>
