<svg width="23" height="23" viewBox="0 0 23 23" fill="none" xmlns="http://www.w3.org/2000/svg">
<g clip-path="url(#clip0_1241_4439)">
<path d="M11.5 23C17.8513 23 23 17.8513 23 11.5C23 5.14873 17.8513 0 11.5 0C5.14873 0 0 5.14873 0 11.5C0 17.8513 5.14873 23 11.5 23Z" fill="#D80027"/>
<path d="M11.0291 9.39697L11.9727 10.6972L13.5008 10.2017L12.5558 11.5009L13.4992 12.8011L11.9716 12.3037L11.0266 13.6029L11.0276 11.9964L9.5 11.499L11.0282 11.0036L11.0291 9.39697Z" fill="#F0F0F0"/>
<path d="M8.45408 14.75C6.65918 14.75 5.20407 13.2949 5.20407 11.5C5.20407 9.70513 6.65918 8.25002 8.45408 8.25002C9.01371 8.25002 9.54029 8.39157 10 8.64066C9.2788 7.93529 8.29245 7.5 7.20408 7.5C4.99491 7.5 3.2041 9.29086 3.2041 11.5C3.2041 13.7091 4.99496 15.5 7.20408 15.5C8.29254 15.5 9.27884 15.0646 10 14.3593C9.54029 14.6085 9.01371 14.75 8.45408 14.75Z" fill="#F0F0F0"/>
</g>
<defs>
<clipPath id="clip0_1241_4439">
<rect width="23" height="23" fill="white"/>
</clipPath>
</defs>
</svg>
