<svg width="25" height="24" viewBox="0 0 25 24" fill="none" xmlns="http://www.w3.org/2000/svg">
<g clip-path="url(#clip0_1241_4546)">
<path d="M12.5 24C19.4036 24 25 18.6274 25 12C25 5.37258 19.4036 0 12.5 0C5.59644 0 0 5.37258 0 12C0 18.6274 5.59644 24 12.5 24Z" fill="#F0F0F0"/>
<path d="M11.9565 11.9998H25C25 10.9167 24.8496 9.86749 24.5694 8.86938H11.9565V11.9998Z" fill="#D80027"/>
<path d="M11.9565 5.7391H23.1653C22.4001 4.54041 21.4218 3.48089 20.2811 2.60864H11.9565V5.7391Z" fill="#D80027"/>
<path d="M12.4998 24C15.4417 24 18.1456 23.0239 20.2809 21.3914H4.71875C6.854 23.0239 9.55796 24 12.4998 24Z" fill="#D80027"/>
<path d="M1.83472 18.2608H23.1654C23.7797 17.2985 24.2561 16.2467 24.5694 15.1304H0.430664C0.743994 16.2467 1.22041 17.2985 1.83472 18.2608Z" fill="#D80027"/>
<path d="M5.79023 1.87397H6.92935L5.86978 2.61295L6.27451 3.80869L5.21499 3.0697L4.15547 3.80869L4.50508 2.7757C3.57217 3.52172 2.75449 4.39575 2.08066 5.36963H2.44565L1.77119 5.84002C1.66611 6.0083 1.56533 6.17925 1.46875 6.35273L1.79082 7.30434L1.18994 6.88523C1.04058 7.18903 0.903955 7.49967 0.781152 7.81678L1.13599 8.86528H2.44565L1.38608 9.60427L1.79082 10.8L0.731299 10.061L0.0966309 10.5037C0.0331055 10.9939 0 11.4932 0 12H12.5C12.5 5.37262 12.5 4.59131 12.5 0C10.0307 0 7.72876 0.687656 5.79023 1.87397ZM6.27451 10.8L5.21499 10.061L4.15547 10.8L4.5602 9.60427L3.50063 8.86528H4.8103L5.21499 7.66955L5.61968 8.86528H6.92935L5.86978 9.60427L6.27451 10.8ZM5.86978 6.10861L6.27451 7.30434L5.21499 6.56536L4.15547 7.30434L4.5602 6.10861L3.50063 5.36963H4.8103L5.21499 4.17389L5.61968 5.36963H6.92935L5.86978 6.10861ZM10.7582 10.8L9.69868 10.061L8.63916 10.8L9.0439 9.60427L7.98433 8.86528H9.29399L9.69868 7.66955L10.1034 8.86528H11.413L10.3535 9.60427L10.7582 10.8ZM10.3535 6.10861L10.7582 7.30434L9.69868 6.56536L8.63916 7.30434L9.0439 6.10861L7.98433 5.36963H9.29399L9.69868 4.17389L10.1034 5.36963H11.413L10.3535 6.10861ZM10.3535 2.61295L10.7582 3.80869L9.69868 3.0697L8.63916 3.80869L9.0439 2.61295L7.98433 1.87397H9.29399L9.69868 0.678234L10.1034 1.87397H11.413L10.3535 2.61295Z" fill="#0052B4"/>
</g>
<defs>
<clipPath id="clip0_1241_4546">
<rect width="25" height="24" fill="white"/>
</clipPath>
</defs>
</svg>
