<svg width="24" height="23" viewBox="0 0 24 23" fill="none" xmlns="http://www.w3.org/2000/svg">
<g clip-path="url(#clip0_1241_4524)">
<path d="M12 23C18.6274 23 24 17.8513 24 11.5C24 5.14873 18.6274 0 12 0C5.37258 0 0 5.14873 0 11.5C0 17.8513 5.37258 23 12 23Z" fill="#F0F0F0"/>
<path d="M2.48081 4.49854C1.5382 5.67383 0.827434 7.02845 0.413574 8.50004H6.65629L2.48081 4.49854Z" fill="#0052B4"/>
<path d="M23.5869 8.50024C23.173 7.02869 22.4622 5.67407 21.5196 4.49878L17.3442 8.50024H23.5869Z" fill="#0052B4"/>
<path d="M0.413574 14.5002C0.82748 15.9718 1.53825 17.3264 2.48081 18.5017L6.65615 14.5002H0.413574Z" fill="#0052B4"/>
<path d="M19.3058 2.37738C18.0794 1.47405 16.6659 0.7929 15.1304 0.39624V6.3788L19.3058 2.37738Z" fill="#0052B4"/>
<path d="M4.69434 20.6227C5.92073 21.526 7.33424 22.2072 8.86977 22.6039V16.6213L4.69434 20.6227Z" fill="#0052B4"/>
<path d="M8.86973 0.39624C7.33419 0.7929 5.92068 1.47405 4.69434 2.37734L8.86973 6.37876V0.39624Z" fill="#0052B4"/>
<path d="M15.1309 22.6039C16.6664 22.2072 18.0799 21.526 19.3063 20.6228L15.1309 16.6213V22.6039Z" fill="#0052B4"/>
<path d="M17.3442 14.5002L21.5196 18.5017C22.4622 17.3265 23.173 15.9718 23.5869 14.5002H17.3442Z" fill="#0052B4"/>
<path d="M23.8984 10H13.5653H13.5653V0.0973457C13.0529 0.0334219 12.5305 0 12 0C11.4694 0 10.9471 0.0334219 10.4348 0.0973457V9.99992V9.99997H0.101578C0.034875 10.491 0 10.9916 0 11.5C0 12.0085 0.034875 12.509 0.101578 13H10.4347H10.4347V22.9027C10.9471 22.9666 11.4694 23 12 23C12.5305 23 13.0529 22.9666 13.5652 22.9027V13.0001V13H23.8984C23.9651 12.509 24 12.0085 24 11.5C24 10.9916 23.9651 10.491 23.8984 10Z" fill="#D80027"/>
<path d="M15.1304 14.5L20.4852 19.6317C20.7315 19.3958 20.9664 19.1491 21.1906 18.8934L16.6061 14.5H15.1304V14.5Z" fill="#D80027"/>
<path d="M8.86951 14.5H8.86941L3.51465 19.6317C3.76084 19.8677 4.01823 20.0928 4.28504 20.3076L8.86951 15.9141V14.5Z" fill="#D80027"/>
<path d="M8.86976 8.49999V8.4999L3.51495 3.36816C3.26866 3.60409 3.03373 3.85076 2.80957 4.10645L7.39409 8.49995H8.86976V8.49999Z" fill="#D80027"/>
<path d="M15.1304 8.50011L20.4852 3.36832C20.239 3.1323 19.9817 2.90715 19.7148 2.69238L15.1304 7.08588V8.50011Z" fill="#D80027"/>
</g>
<defs>
<clipPath id="clip0_1241_4524">
<rect width="24" height="23" fill="white"/>
</clipPath>
</defs>
</svg>
