<svg xmlns="http://www.w3.org/2000/svg" width="25" height="23" viewBox="0 0 25 23" fill="none">
<g clip-path="url(#clip0_1241_4519)">
<path d="M12.5 23C19.4036 23 25 17.8513 25 11.5C25 5.14873 19.4036 0 12.5 0C5.59644 0 0 5.14873 0 11.5C0 17.8513 5.59644 23 12.5 23Z" fill="#F0F0F0"/>
<path d="M7.06543 15.5L8.15239 22.2848C9.50649 22.7471 10.9712 23 12.5002 23C17.8747 23 22.4565 19.8792 24.2227 15.5H7.06543Z" fill="black"/>
<path d="M7.06543 7.50002L8.15239 0.715201C9.50649 0.25291 10.9712 0 12.5002 0C17.8747 0 22.4565 3.12081 24.2227 7.50002H7.06543Z" fill="#6DA544"/>
<path d="M0 11.5C0 16.4446 3.39224 20.6599 8.1522 22.2847V0.715332C3.39224 2.3402 0 6.55545 0 11.5Z" fill="#A2001D"/>
</g>
<defs>
<clipPath id="clip0_1241_4519">
<rect width="25" height="23" fill="white"/>
</clipPath>
</defs>
</svg>
