<svg xmlns="http://www.w3.org/2000/svg" width="20" height="20" viewBox="0 0 20 20" fill="none">
<path d="M9.16699 18.3337V14.8753L6.45866 17.542L5.29199 16.3753L9.16699 12.5003V10.8337H7.50033L3.62533 14.7087L2.45866 13.542L5.12533 10.8337H1.66699V9.16699H5.12533L2.45866 6.45866L3.62533 5.29199L7.50033 9.16699H9.16699V7.50033L5.29199 3.62533L6.45866 2.45866L9.16699 5.12533V1.66699H10.8337V5.12533L13.542 2.45866L14.7087 3.62533L10.8337 7.50033V9.16699H12.5003L16.3753 5.29199L17.542 6.45866L14.8753 9.16699H18.3337V10.8337H14.8753L17.542 13.542L16.3753 14.7087L12.5003 10.8337H10.8337V12.5003L14.7087 16.3753L13.542 17.542L10.8337 14.8753V18.3337H9.16699Z" fill="currentColor"/>
</svg>
