<svg xmlns="http://www.w3.org/2000/svg" width="20" height="16" viewBox="0 0 20 16" fill="none">
<path d="M3.33301 15.5C2.63856 15.5 2.04829 15.2569 1.56217 14.7708C1.07606 14.2847 0.833008 13.6944 0.833008 13C0.833008 12.4583 0.989258 11.9722 1.30176 11.5417C1.61426 11.1111 2.01356 10.8125 2.49967 10.6458V5.35417C2.01356 5.1875 1.61426 4.88889 1.30176 4.45833C0.989258 4.02778 0.833008 3.54167 0.833008 3C0.833008 2.30556 1.07606 1.71528 1.56217 1.22917C2.04829 0.743056 2.63856 0.5 3.33301 0.5C4.02745 0.5 4.61773 0.743056 5.10384 1.22917C5.58995 1.71528 5.83301 2.30556 5.83301 3C5.83301 3.54167 5.67676 4.02778 5.36426 4.45833C5.05176 4.88889 4.65245 5.1875 4.16634 5.35417V7.16667H9.16634V5.35417C8.68023 5.1875 8.28092 4.88889 7.96842 4.45833C7.65592 4.02778 7.49967 3.54167 7.49967 3C7.49967 2.30556 7.74273 1.71528 8.22884 1.22917C8.71495 0.743056 9.30523 0.5 9.99967 0.5C10.6941 0.5 11.2844 0.743056 11.7705 1.22917C12.2566 1.71528 12.4997 2.30556 12.4997 3C12.4997 3.54167 12.3434 4.02778 12.0309 4.45833C11.7184 4.88889 11.3191 5.1875 10.833 5.35417V7.16667H15.833V5.35417C15.3469 5.1875 14.9476 4.88889 14.6351 4.45833C14.3226 4.02778 14.1663 3.54167 14.1663 3C14.1663 2.30556 14.4094 1.71528 14.8955 1.22917C15.3816 0.743056 15.9719 0.5 16.6663 0.5C17.3608 0.5 17.9511 0.743056 18.4372 1.22917C18.9233 1.71528 19.1663 2.30556 19.1663 3C19.1663 3.54167 19.0101 4.02778 18.6976 4.45833C18.3851 4.88889 17.9858 5.1875 17.4997 5.35417V8.83333H10.833V10.6458C11.3191 10.8125 11.7184 11.1111 12.0309 11.5417C12.3434 11.9722 12.4997 12.4583 12.4997 13C12.4997 13.6944 12.2566 14.2847 11.7705 14.7708C11.2844 15.2569 10.6941 15.5 9.99967 15.5C9.30523 15.5 8.71495 15.2569 8.22884 14.7708C7.74273 14.2847 7.49967 13.6944 7.49967 13C7.49967 12.4583 7.65592 11.9722 7.96842 11.5417C8.28092 11.1111 8.68023 10.8125 9.16634 10.6458V8.83333H4.16634V10.6458C4.65245 10.8125 5.05176 11.1111 5.36426 11.5417C5.67676 11.9722 5.83301 12.4583 5.83301 13C5.83301 13.6944 5.58995 14.2847 5.10384 14.7708C4.61773 15.2569 4.02745 15.5 3.33301 15.5Z" fill="currentColor"/>
</svg>
