<svg xmlns="http://www.w3.org/2000/svg" width="12" height="18" viewBox="0 0 12 18" fill="none">
<path d="M5.16699 4.00033H6.83366V2.33366H5.16699V4.00033ZM6.00033 9.00033C4.94477 9.00033 3.93783 8.78158 2.97949 8.34408C2.02116 7.90658 1.08366 7.41699 0.166992 6.87533V4.00033H3.50033V0.666992H8.50033V4.00033H11.8337V6.87533C10.917 7.41699 9.97949 7.90658 9.02116 8.34408C8.06283 8.78158 7.05588 9.00033 6.00033 9.00033ZM1.83366 17.3337V16.5003H0.166992V8.75033C0.94477 9.22255 1.74685 9.62533 2.57324 9.95866C3.39963 10.292 4.26421 10.5142 5.16699 10.6253V11.5003H6.83366V10.6253C7.73644 10.5142 8.60102 10.292 9.42741 9.95866C10.2538 9.62533 11.0559 9.22255 11.8337 8.75033V16.5003H10.167V17.3337H8.50033V16.5003H3.50033V17.3337H1.83366Z" fill="currentColor"/>
</svg>
