  <svg
    xmlns="http://www.w3.org/2000/svg"
    width="19"
    height="13"
    viewBox="0 0 19 13"
    fill="currentColor"
  >
    <path d="M0.610352 12.833V0.333008H2.27702V8.66634H8.94368V1.99967H18.9437V12.833H17.277V10.333H2.27702V12.833H0.610352ZM5.61035 7.83301C4.91591 7.83301 4.32563 7.58995 3.83952 7.10384C3.35341 6.61773 3.11035 6.02745 3.11035 5.33301C3.11035 4.63856 3.35341 4.04829 3.83952 3.56217C4.32563 3.07606 4.91591 2.83301 5.61035 2.83301C6.3048 2.83301 6.89507 3.07606 7.38118 3.56217C7.8673 4.04829 8.11035 4.63856 8.11035 5.33301C8.11035 6.02745 7.8673 6.61773 7.38118 7.10384C6.89507 7.58995 6.3048 7.83301 5.61035 7.83301ZM5.61035 6.16634C5.84646 6.16634 6.04438 6.08648 6.2041 5.92676C6.36382 5.76704 6.44368 5.56912 6.44368 5.33301C6.44368 5.0969 6.36382 4.89898 6.2041 4.73926C6.04438 4.57954 5.84646 4.49967 5.61035 4.49967C5.37424 4.49967 5.17632 4.57954 5.0166 4.73926C4.85688 4.89898 4.77702 5.0969 4.77702 5.33301C4.77702 5.56912 4.85688 5.76704 5.0166 5.92676C5.17632 6.08648 5.37424 6.16634 5.61035 6.16634ZM5.61035 6.16634C5.37424 6.16634 5.17632 6.08648 5.0166 5.92676C4.85688 5.76704 4.77702 5.56912 4.77702 5.33301C4.77702 5.0969 4.85688 4.89898 5.0166 4.73926C5.17632 4.57954 5.37424 4.49967 5.61035 4.49967C5.84646 4.49967 6.04438 4.57954 6.2041 4.73926C6.36382 4.89898 6.44368 5.0969 6.44368 5.33301C6.44368 5.56912 6.36382 5.76704 6.2041 5.92676C6.04438 6.08648 5.84646 6.16634 5.61035 6.16634Z" />
  </svg>
