  <svg
    xmlns="http://www.w3.org/2000/svg"
    width="18"
    height="14"
    viewBox="0 0 18 14"
    fill="currentColor"
  >
    <path d="M6.88867 10.333L9.22201 8.58301L11.5137 10.333L10.6387 7.49967L12.972 5.66634H10.1387L9.22201 2.83301L8.30534 5.66634H5.47201L7.76367 7.49967L6.88867 10.333ZM0.888672 13.6663V8.66634C1.34701 8.66634 1.73937 8.50315 2.06576 8.17676C2.39214 7.85037 2.55534 7.45801 2.55534 6.99967C2.55534 6.54134 2.39214 6.14898 2.06576 5.82259C1.73937 5.4962 1.34701 5.33301 0.888672 5.33301V0.333008H17.5553V5.33301C17.097 5.33301 16.7046 5.4962 16.3783 5.82259C16.0519 6.14898 15.8887 6.54134 15.8887 6.99967C15.8887 7.45801 16.0519 7.85037 16.3783 8.17676C16.7046 8.50315 17.097 8.66634 17.5553 8.66634V13.6663H0.888672Z" />
  </svg>
