  <svg
    xmlns="http://www.w3.org/2000/svg"
    width="21"
    height="20"
    viewBox="0 0 21 20"
    fill="currentColor"
  >
    <path d="M5.88867 14.9997V16.6663H3.38867V9.16634L5.43034 3.33301H16.347L18.3887 9.16634V16.6663H15.8887V14.9997H5.88867ZM5.72201 7.49967H16.0553L15.1803 4.99967H6.59701L5.72201 7.49967ZM7.13867 12.4997C7.48589 12.4997 7.78103 12.3781 8.02409 12.1351C8.26714 11.892 8.38867 11.5969 8.38867 11.2497C8.38867 10.9025 8.26714 10.6073 8.02409 10.3643C7.78103 10.1212 7.48589 9.99967 7.13867 9.99967C6.79145 9.99967 6.49631 10.1212 6.25326 10.3643C6.0102 10.6073 5.88867 10.9025 5.88867 11.2497C5.88867 11.5969 6.0102 11.892 6.25326 12.1351C6.49631 12.3781 6.79145 12.4997 7.13867 12.4997ZM14.6387 12.4997C14.9859 12.4997 15.281 12.3781 15.5241 12.1351C15.7671 11.892 15.8887 11.5969 15.8887 11.2497C15.8887 10.9025 15.7671 10.6073 15.5241 10.3643C15.281 10.1212 14.9859 9.99967 14.6387 9.99967C14.2914 9.99967 13.9963 10.1212 13.7533 10.3643C13.5102 10.6073 13.3887 10.9025 13.3887 11.2497C13.3887 11.5969 13.5102 11.892 13.7533 12.1351C13.9963 12.3781 14.2914 12.4997 14.6387 12.4997Z" />
  </svg>
