  <svg
    xmlns="http://www.w3.org/2000/svg"
    width="17"
    height="18"
    viewBox="0 0 17 18"
    fill="currentColor"
  >
    <path
      d="M3.86084 13.5837L10.1108 10.667L13.0275 4.41699L6.77751 7.33366L3.86084 13.5837ZM8.44417 9.83366C8.20806 9.83366 8.01015 9.7538 7.85042 9.59408C7.6907 9.43435 7.61084 9.23644 7.61084 9.00033C7.61084 8.76422 7.6907 8.5663 7.85042 8.40658C8.01015 8.24685 8.20806 8.16699 8.44417 8.16699C8.68029 8.16699 8.8782 8.24685 9.03792 8.40658C9.19765 8.5663 9.27751 8.76422 9.27751 9.00033C9.27751 9.23644 9.19765 9.43435 9.03792 9.59408C8.8782 9.7538 8.68029 9.83366 8.44417 9.83366ZM8.44417 17.3337C7.2914 17.3337 6.20806 17.1149 5.19417 16.6774C4.18028 16.2399 3.29834 15.6462 2.54834 14.8962C1.79834 14.1462 1.20459 13.2642 0.76709 12.2503C0.32959 11.2364 0.11084 10.1531 0.11084 9.00033C0.11084 7.84755 0.32959 6.76421 0.76709 5.75033C1.20459 4.73644 1.79834 3.85449 2.54834 3.10449C3.29834 2.35449 4.18028 1.76074 5.19417 1.32324C6.20806 0.885742 7.2914 0.666992 8.44417 0.666992C9.59695 0.666992 10.6803 0.885742 11.6942 1.32324C12.7081 1.76074 13.59 2.35449 14.34 3.10449C15.09 3.85449 15.6838 4.73644 16.1213 5.75033C16.5588 6.76421 16.7775 7.84755 16.7775 9.00033C16.7775 10.1531 16.5588 11.2364 16.1213 12.2503C15.6838 13.2642 15.09 14.1462 14.34 14.8962C13.59 15.6462 12.7081 16.2399 11.6942 16.6774C10.6803 17.1149 9.59695 17.3337 8.44417 17.3337Z"
      className="fill-[#F8F8F8] group-data-[status=active]:fill-gray-700"
    />
  </svg>
