<svg xmlns="http://www.w3.org/2000/svg" width="21" height="20" viewBox="0 0 21 20" fill="none">
<path d="M5.87533 14.2917L3.20866 12.8333L4.08366 11.9583L6.16699 12.25L9.41699 9L2.91699 5.45833L4.08366 4.29167L12.042 6.33333L15.3128 3.10417C15.5489 2.86806 15.8441 2.75 16.1982 2.75C16.5524 2.75 16.8475 2.86806 17.0837 3.10417C17.3198 3.34028 17.4378 3.63542 17.4378 3.98958C17.4378 4.34375 17.3198 4.63889 17.0837 4.875L13.8337 8.125L15.8753 16.0833L14.7087 17.25L11.167 10.75L7.91699 14L8.20866 16.0833L7.33366 16.9583L5.87533 14.2917Z" fill="currentColor"/>
</svg>
