<svg width="20" height="30" viewBox="0 0 20 30" fill="none" xmlns="http://www.w3.org/2000/svg">
<g clip-path="url(#clip0_3899_23118)">
<path d="M6.17329 25.0178L2.17212 29.0232C1.81216 29.3836 2.06735 30 2.57598 30H17.4235C17.9327 30 18.1873 29.3836 17.8274 29.0232L13.8262 25.0178C11.7127 22.902 8.28626 22.902 6.17271 25.0178H6.17329Z" fill="url(#paint0_linear_3899_23118)"/>
<path d="M17.4235 30H2.576C2.06737 30 1.81159 29.3836 2.17214 29.0232L5.00913 26.1826H14.9904L17.828 29.0232C18.1879 29.3836 17.9327 30 17.4235 30Z" fill="url(#paint1_linear_3899_23118)"/>
<path d="M17.828 29.0232L13.8268 25.0178C12.2898 23.4791 10.0591 23.0607 8.14343 23.7598L8.12061 23.7809L14.3331 30H17.4241C17.9333 30 18.1879 29.3836 17.828 29.0232Z" fill="url(#paint2_linear_3899_23118)"/>
<path d="M20 10.0107C20 4.48184 15.523 0 10 0C4.47703 0 0 4.48184 0 10.0107C0 15.5396 6.7369 24.4723 10 24.4723C13.2631 24.4723 20 15.5396 20 10.0107Z" fill="url(#paint3_linear_3899_23118)"/>
<path d="M9.99989 18.4002C14.5504 18.4002 18.2393 14.7073 18.2393 10.152C18.2393 5.59657 14.5504 1.90371 9.99989 1.90371C5.4494 1.90371 1.7605 5.59657 1.7605 10.152C1.7605 14.7073 5.4494 18.4002 9.99989 18.4002Z" fill="url(#paint4_linear_3899_23118)"/>
<path d="M10 24.4723C9.30641 24.4723 8.45537 24.0656 7.54639 23.3777V0.304688C8.33129 0.106641 9.15306 0 10 0C15.523 0 20 4.48184 20 10.0107C20 15.5396 13.2631 24.4723 10 24.4723Z" fill="url(#paint5_linear_3899_23118)"/>
<path d="M0.155029 11.5652C1.17698 17.0643 7.02831 24.4723 9.99992 24.4723C12.9715 24.4723 18.8229 17.0643 19.8448 11.5652H0.155029Z" fill="url(#paint6_linear_3899_23118)"/>
<path d="M9.99995 17.2564C13.9194 17.2564 17.0968 14.0757 17.0968 10.152C17.0968 6.22825 13.9194 3.04746 9.99995 3.04746C6.08045 3.04746 2.90308 6.22825 2.90308 10.152C2.90308 14.0757 6.08045 17.2564 9.99995 17.2564Z" fill="url(#paint7_linear_3899_23118)"/>
<path d="M14.11 8.89687H11.2531V6.18961C11.2531 5.8357 11.3668 5.83476 11.0127 5.83476H9.09103C8.73751 5.83476 8.74617 5.77406 8.74617 6.12797L8.74561 8.89687H5.91784C5.56431 8.89687 5.68677 8.89203 5.68677 9.24652V11.1694C5.68677 11.5233 5.66485 11.4064 6.01896 11.4064L8.74619 11.407L8.74561 14.0908C8.74561 14.4447 8.66165 14.4691 9.01518 14.4691H10.861C11.2151 14.4691 11.2537 14.6045 11.2537 14.25V11.4064H13.9963C14.3504 11.4064 14.3136 11.4494 14.3136 11.0955V9.24652C14.3136 8.89262 14.4642 8.89687 14.11 8.89687Z" fill="url(#paint8_linear_3899_23118)"/>
<path d="M2.90308 10.152C2.90308 14.0754 6.08072 17.2564 9.99995 17.2564C13.9192 17.2564 17.0968 14.0754 17.0968 10.152C17.0968 9.95567 17.0886 9.76113 17.0728 9.56895H2.92707C2.91127 9.76113 2.90308 9.95567 2.90308 10.152Z" fill="url(#paint9_linear_3899_23118)"/>
</g>
<defs>
<linearGradient id="paint0_linear_3899_23118" x1="-2" y1="18.5" x2="0.865034" y2="30.1179" gradientUnits="userSpaceOnUse">
<stop stop-color="#8AC9FE" stop-opacity="0"/>
<stop offset="0.13" stop-color="#89C8FD" stop-opacity="0.02"/>
<stop offset="0.26" stop-color="#88C6FB" stop-opacity="0.08"/>
<stop offset="0.4" stop-color="#87C4F8" stop-opacity="0.17"/>
<stop offset="0.54" stop-color="#85C0F4" stop-opacity="0.3"/>
<stop offset="0.68" stop-color="#83BBEF" stop-opacity="0.47"/>
<stop offset="0.82" stop-color="#7FB5E9" stop-opacity="0.67"/>
<stop offset="0.95" stop-color="#7CAEE1" stop-opacity="0.91"/>
<stop offset="1" stop-color="#7BACDF"/>
</linearGradient>
<linearGradient id="paint1_linear_3899_23118" x1="9.90257" y1="28.313" x2="10.0496" y2="28.8708" gradientUnits="userSpaceOnUse">
<stop stop-color="#8AC9FE" stop-opacity="0"/>
<stop offset="0.13" stop-color="#89C8FD" stop-opacity="0.02"/>
<stop offset="0.26" stop-color="#88C6FB" stop-opacity="0.08"/>
<stop offset="0.4" stop-color="#87C4F8" stop-opacity="0.17"/>
<stop offset="0.54" stop-color="#85C0F4" stop-opacity="0.3"/>
<stop offset="0.68" stop-color="#83BBEF" stop-opacity="0.47"/>
<stop offset="0.82" stop-color="#7FB5E9" stop-opacity="0.67"/>
<stop offset="0.95" stop-color="#7CAEE1" stop-opacity="0.91"/>
<stop offset="1" stop-color="#7BACDF"/>
</linearGradient>
<linearGradient id="paint2_linear_3899_23118" x1="12.9985" y1="27.0975" x2="13.4881" y2="27.7641" gradientUnits="userSpaceOnUse">
<stop stop-color="#8AC9FE" stop-opacity="0"/>
<stop offset="0.13" stop-color="#89C8FD" stop-opacity="0.02"/>
<stop offset="0.26" stop-color="#88C6FB" stop-opacity="0.08"/>
<stop offset="0.4" stop-color="#87C4F8" stop-opacity="0.17"/>
<stop offset="0.54" stop-color="#85C0F4" stop-opacity="0.3"/>
<stop offset="0.68" stop-color="#83BBEF" stop-opacity="0.47"/>
<stop offset="0.82" stop-color="#7FB5E9" stop-opacity="0.67"/>
<stop offset="0.95" stop-color="#7CAEE1" stop-opacity="0.91"/>
<stop offset="1" stop-color="#7BACDF"/>
</linearGradient>
<linearGradient id="paint3_linear_3899_23118" x1="4.69886" y1="8.43984" x2="16.2653" y2="15.3722" gradientUnits="userSpaceOnUse">
<stop stop-color="#FE646F"/>
<stop offset="0.23" stop-color="#FA5964"/>
<stop offset="0.64" stop-color="#EF3D49"/>
<stop offset="1" stop-color="#E41F2D"/>
</linearGradient>
<linearGradient id="paint4_linear_3899_23118" x1="14.7824" y1="14.9396" x2="4.79163" y2="4.95955" gradientUnits="userSpaceOnUse">
<stop stop-color="#FE646F"/>
<stop offset="0.23" stop-color="#FA5964"/>
<stop offset="0.64" stop-color="#EF3D49"/>
<stop offset="1" stop-color="#E41F2D"/>
</linearGradient>
<linearGradient id="paint5_linear_3899_23118" x1="13.7732" y1="0" x2="13.7732" y2="24.4723" gradientUnits="userSpaceOnUse">
<stop stop-color="#DF474F"/>
<stop offset="1" stop-color="#D71923"/>
</linearGradient>
<linearGradient id="paint6_linear_3899_23118" x1="9.99992" y1="11.5652" x2="9.99992" y2="24.4723" gradientUnits="userSpaceOnUse">
<stop stop-color="#DF474F"/>
<stop offset="1" stop-color="#D71923"/>
</linearGradient>
<linearGradient id="paint7_linear_3899_23118" x1="6.16032" y1="6.30821" x2="14.132" y2="14.2713" gradientUnits="userSpaceOnUse">
<stop stop-color="#F3FAFF"/>
<stop offset="1" stop-color="#D5DAF3"/>
</linearGradient>
<linearGradient id="paint8_linear_3899_23118" x1="10.0002" y1="5.83476" x2="10.0002" y2="14.4691" gradientUnits="userSpaceOnUse">
<stop stop-color="#DF474F"/>
<stop offset="1" stop-color="#D71923"/>
</linearGradient>
<linearGradient id="paint9_linear_3899_23118" x1="10.1229" y1="11.0941" x2="10.9704" y2="17.3025" gradientUnits="userSpaceOnUse">
<stop stop-color="#DBD5EF" stop-opacity="0"/>
<stop offset="0.27" stop-color="#D8D2EC" stop-opacity="0.02"/>
<stop offset="0.44" stop-color="#D1C9E2" stop-opacity="0.1"/>
<stop offset="0.59" stop-color="#C4B9D1" stop-opacity="0.22"/>
<stop offset="0.73" stop-color="#B2A4BA" stop-opacity="0.41"/>
<stop offset="0.85" stop-color="#9A889C" stop-opacity="0.64"/>
<stop offset="0.97" stop-color="#7E6678" stop-opacity="0.92"/>
<stop offset="1" stop-color="#765D6E"/>
</linearGradient>
<clipPath id="clip0_3899_23118">
<rect width="20" height="30" fill="white"/>
</clipPath>
</defs>
</svg>
