<svg width="26" height="26" viewBox="0 0 26 26" fill="none" xmlns="http://www.w3.org/2000/svg">
<path d="M12.7805 15.5848C14.1483 14.5976 14.9695 13.0963 14.9497 11.4188C16.6161 11.1972 17.8591 9.97278 17.9606 8.31943C18.0153 7.41533 18.0109 6.17319 17.9606 5.26696C17.8241 2.8267 15.8497 0.72236 13.3111 0.534156C11.3937 0.392115 9.5821 0.65276 8.23836 2.08737C7.27125 2.11791 6.33041 2.01493 5.38447 2.25356C3.42032 2.74929 1.78827 4.55676 1.63134 6.54533C1.57076 7.31662 1.54813 9.1944 1.76637 9.88827C2.16271 11.1468 3.33711 11.9954 4.65968 12.1517C4.86405 13.5195 5.58519 14.6765 6.69974 15.5138C6.78222 15.5756 7.10556 15.756 7.13695 15.7979C7.1968 15.8767 7.21869 16.2545 7.08001 16.2794C6.88294 16.3149 6.57128 16.2638 6.35085 16.2801C3.13274 16.5109 0.496354 19.3809 0.500004 22.5015L0.501464 25.5H17.5577V23.9425C17.5533 23.9851 17.5489 24.0185 17.5029 24.0455H2.03205C2.06271 23.1585 1.94082 22.2544 2.15906 21.3858C2.71159 19.1877 4.90419 17.5677 7.24643 17.7488L7.66247 21.1734H6.76981V22.574L6.82455 22.6272H12.7834V21.1734H11.9273C11.8995 21.1734 11.8565 21.0925 11.874 21.0548L12.3134 17.7375C14.9052 17.5812 17.2212 19.4604 17.5212 21.9717C17.535 22.0853 17.5474 22.2231 17.5577 22.3744L17.5577 18.4249C17.5577 18.4313 17.4993 18.4881 17.4854 18.4782C17.3387 18.2602 17.0905 18.0173 16.8847 17.839C15.9285 17.0123 14.4877 16.3689 13.2024 16.2801C13.0622 16.2702 12.4455 16.3121 12.398 16.246C12.2878 15.7624 12.4783 15.8021 12.7805 15.5848ZM4.61954 7.00626V10.6411C3.81373 10.5232 3.1977 9.84992 3.12617 9.0623C3.02617 7.97071 3.0342 6.22787 3.60571 5.27407C4.77208 3.32526 6.81944 3.52838 8.84928 3.53264C9.69304 2.71804 10.4572 2.0753 11.709 1.98866C14.2666 1.81039 16.3278 2.81107 16.4643 5.51696C16.503 6.29605 16.5146 7.33153 16.4657 8.10707C16.4292 8.69796 16.2533 9.17948 15.7723 9.55944C15.6964 9.61981 14.9337 10.0736 14.9337 9.84282V5.05532L14.8789 5.00206H13.3119C12.9316 5.46653 12.7513 6.00629 12.2732 6.40329C12.0185 6.61493 11.3857 6.95299 11.0521 6.95299L4.67428 6.95299L4.61954 7.00626ZM10.3624 21.14L9.24561 21.1578L9.01059 19.4711C9.06022 19.3951 9.25583 19.4917 9.34342 19.5023C9.7726 19.5542 10.1397 19.5442 10.5602 19.4356L10.3624 21.14ZM10.8879 17.0422C10.8879 18.0705 9.37846 18.4612 8.83979 17.5457C8.81863 17.5102 8.70111 17.2709 8.70111 17.2545V16.4214L9.77698 16.5308L10.8879 16.4214V17.0422ZM6.55814 13.1701C5.80416 11.7937 6.22677 9.95148 6.11363 8.44229L10.9076 8.44371C11.6236 8.37127 12.2907 8.1717 12.8893 7.78322C13.0819 7.65822 13.2433 7.49559 13.4396 7.3784L13.4396 11.8641C13.1192 15.2794 8.24493 16.2496 6.55814 13.1701Z" fill="#171717"/>
<path d="M7.59022 11.3855H8.97483C9.10913 11.5751 9.08139 11.7683 9.28358 11.9366C9.63757 12.2313 10.1522 12.1674 10.4083 11.7875C10.5003 11.6511 10.501 11.5176 10.5784 11.3855L11.9995 11.3855C12.055 11.4501 12.0273 11.6603 12.0134 11.7534C11.6857 13.9856 8.30989 14.2405 7.63401 12.051C7.60627 11.96 7.45957 11.3848 7.58949 11.3848L7.59022 11.3855Z" fill="#171717"/>
<path d="M25.5 11.75H16.8135L16.75 11.8036V22.3523C16.7906 22.8673 16.805 23.5346 16.7525 23.9122C16.7517 23.9187 16.7508 23.9251 16.75 23.9315V25.5H18.4829V17.7321L18.5464 17.6784H25.5L24.5053 14.7324L25.5 11.75ZM23.1754 16.2144H18.5464L18.4829 16.1607V13.2505H23.1754L22.6827 14.7267L23.1754 16.2144Z" fill="#D71923"/>
</svg>
