<svg width="26" height="20" viewBox="0 0 26 20" fill="none" xmlns="http://www.w3.org/2000/svg">
<path d="M25.2388 7.8543L22.2333 8.09562C22.047 7.81431 21.8507 7.53931 21.643 7.27274C21.2455 6.75992 20.8081 6.27728 20.3316 5.83672C19.9945 5.52525 19.6382 5.23411 19.2612 4.96754C18.9597 4.75427 18.6482 4.55644 18.3289 4.37615C16.8361 3.53012 15.1626 3.04116 13.4295 2.92961C13.3335 2.9233 13.2367 2.91839 13.14 2.91418C12.5611 2.35928 11.9161 1.86891 11.2234 1.45852C9.89129 0.666505 8.38285 0.164917 6.82321 0.0421507C6.71084 0.0330309 6.59776 0.0260157 6.48468 0.021105C4.94637 -0.046241 3.35757 0.0737192 1.81357 0.0225081L1.81357 1.45852L3.67832 1.45852L4.40587 2.92961L0.5 2.92961L0.5 4.36563H2.2218L4.83187 9.56741L3.48061 9.70491C3.41375 9.75121 3.45856 10.3377 3.44362 10.4745C3.43296 10.5685 3.41233 10.6618 3.38104 10.7516C3.27649 11.0624 3.05816 11.3345 2.76088 11.4826C2.71892 11.5029 2.45293 11.6166 2.43515 11.6166H1.47647L1.42313 11.6692L1.42313 14.208C1.41104 14.2024 1.39824 14.1982 1.38543 14.1932V14.2038C1.50918 14.2494 1.62795 14.3041 1.7389 14.3686C2.04898 14.5482 2.31994 14.8534 2.67127 14.9551C2.77297 14.9846 2.86756 14.9979 2.9593 15L2.96001 14.9979C2.93228 14.993 2.9145 14.9818 2.9145 14.9614L2.9145 13C3.11719 12.8884 3.33979 12.8225 3.54248 12.7081C4.15197 12.3644 4.65763 11.7456 4.80342 11.0624C4.85818 10.9985 5.94844 10.9662 6.12837 10.9501C6.88224 10.8835 7.63681 10.8175 8.39068 10.7516C11.8819 10.4471 15.3753 10.1532 18.868 9.86275C19.3651 9.82066 19.8622 9.77998 20.36 9.73859C21.1203 9.67545 21.8806 9.61231 22.6408 9.54917C23.0818 9.5127 23.5305 9.40466 23.9736 9.46289C23.9466 9.59758 23.9139 9.73087 23.8762 9.86275C23.4317 11.4461 22.3187 12.793 21.5719 14.2459C21.5356 14.2367 21.4994 14.2269 21.4631 14.2164C21.9993 14.4262 22.3208 14.9158 22.8592 14.9867C22.8606 14.9853 22.862 14.9832 22.8634 14.9818C22.8542 14.9804 22.8449 14.9797 22.8357 14.9783C23.1536 14.3427 23.5568 13.7197 23.948 13.0877C24.1813 12.7109 24.4103 12.3314 24.6137 11.9442C24.8733 11.451 25.0916 10.9459 25.2267 10.4191C25.2836 10.196 25.3306 9.96868 25.3675 9.73859C25.4486 9.24752 25.4877 8.74523 25.497 8.24785C25.4977 8.21769 25.4984 8.18752 25.4984 8.15736C25.5005 8.04862 25.5005 7.94059 25.4984 7.83325L25.2374 7.8543H25.2388ZM6.21514 1.45852C7.15178 1.49781 8.07206 1.67038 8.94541 1.97835C9.57908 2.20144 10.1886 2.49537 10.7625 2.86016C10.7725 2.87419 10.7156 2.92961 10.7092 2.92961L6.09281 2.92961L5.36526 1.45852C5.64974 1.4459 5.93351 1.4459 6.21514 1.45852ZM20.4895 8.24575L20.4795 8.25767L6.41783 9.43904L5.32971 7.27274L8.59621 7.27274V5.83672L4.637 5.83672L3.90874 4.36563L13.0902 4.36423C13.0952 4.36423 13.0995 4.36493 13.1045 4.36493C13.1777 4.36844 13.2503 4.37194 13.3228 4.37685C14.5212 4.45402 15.6825 4.72481 16.7771 5.21096C17.1376 5.37161 17.585 5.57365 17.8652 5.83672L10.0527 5.83672V7.22012L10.1054 7.27274L19.7292 7.27274L20.4909 8.15876L20.5279 8.20155L20.4895 8.24575Z" fill="#D71923"/>
<path d="M12.3072 11.6167H13.6926L13.746 11.6694V13.0352L13.6926 13.0878H12.3072L12.2539 13.0352V11.6694L12.3072 11.6167Z" fill="#D71923"/>
<path d="M19.6048 11.6167V13.0352L19.5521 13.0878H18.2023L18.1489 13.0352V11.6694L18.2023 11.6167H19.6048Z" fill="#D71923"/>
<path d="M16.6576 11.6167V13.0528H15.2018V11.6694L15.2551 11.6167H16.6576Z" fill="#D71923"/>
<path d="M22.8623 14.8639C22.8623 14.8639 22.8602 14.8664 22.8588 14.8689C22.3204 14.785 21.9997 14.212 21.4635 13.9662C21.2772 13.9029 21.0937 13.824 20.9002 13.7919C20.492 13.7245 20.017 13.7541 19.6308 13.9251C19.1451 14.1397 18.7511 14.7036 18.2562 14.8401C17.4462 15.0637 17.1119 14.2671 16.4534 13.9662C15.8816 13.704 15.0901 13.6809 14.5269 13.9769C14.1208 14.1906 13.7773 14.6486 13.3627 14.8072C12.4987 15.1385 12.1424 14.2852 11.4469 13.9662C10.8914 13.7114 10.1227 13.6826 9.57224 13.9555C8.93291 14.2712 8.47564 15.1015 7.67986 14.8311C7.32855 14.7127 7.0576 14.3551 6.74753 14.1446C6.1146 13.7146 5.21855 13.6267 4.54011 13.967C4.13617 14.1701 3.79552 14.6255 3.37594 14.7965C3.32118 14.8196 3.06446 14.905 2.95992 14.882C2.95992 14.882 2.95992 14.8826 2.95992 14.8837C2.86889 14.882 2.77359 14.8656 2.6719 14.8311C2.32059 14.7119 2.04964 14.3542 1.73957 14.1438C1.62934 14.069 1.51058 14.0049 1.38684 13.9514V13.9383C1.10024 13.801 0.797292 13.8075 0.50074 13.7508L0.50074 15.4748C1.15571 15.4715 1.52196 16.1892 2.11009 16.4268C2.60363 16.6257 3.26358 16.6504 3.75997 16.472C4.58135 16.1768 5.05214 15.0744 6.02926 15.6318C6.33933 15.8085 6.57614 16.1374 6.89332 16.3158C7.43878 16.6232 8.24949 16.6874 8.81984 16.4514C9.57153 16.1398 10.0779 15.1089 10.9896 15.603C11.673 15.9746 11.8031 16.4966 12.7348 16.583C13.8093 16.6816 13.9629 16.3322 14.7644 15.7699C15.9826 14.9141 16.2344 16.1283 17.2072 16.4613C17.6787 16.6224 18.3415 16.6479 18.8073 16.4613C19.394 16.227 19.8627 15.4723 20.5105 15.4723C21.1584 15.4723 21.5389 16.1834 22.1078 16.4194C22.6355 16.6372 23.3658 16.6586 23.8907 16.4259C24.4425 16.1818 24.86 15.4871 25.5 15.4739V13.75C25.2063 13.759 24.9133 13.8034 24.6381 13.9243C24.0357 14.1898 23.56 14.9831 22.863 14.8631L22.8623 14.8639Z" fill="#171717"/>
<path d="M25.4993 17.1583V18.8823C24.9069 18.8782 24.5015 19.489 24.0073 19.7644C23.5016 20.0464 22.8068 20.0513 22.2685 19.8869C21.3625 19.6115 21.0346 18.4424 19.9458 19.0516C19.0704 19.5416 19.0093 20.0784 17.8117 19.9905C16.9263 19.9255 16.7897 19.5432 16.1362 19.0952C15.0595 18.3569 14.5361 19.6929 13.6052 19.9313C13.2702 20.0176 12.8279 20.0127 12.4887 19.9444C11.3416 19.7151 11.0429 18.2797 9.75712 19.1774C8.99973 19.706 8.84328 20.0538 7.83131 19.9921C6.90538 19.9354 6.76528 19.4988 6.07546 19.0664C5.05282 18.4252 4.5735 19.6115 3.70305 19.8967C3.20097 20.062 2.52253 20.0159 2.03752 19.7932C1.49704 19.5449 1.12226 18.8593 0.5 18.8823L0.5 17.1583C0.852022 17.197 1.1628 17.2216 1.49277 17.3852C2.2978 17.7856 2.54884 18.7006 3.58997 18.0824C4.53368 17.5217 4.62115 16.9865 5.91047 17.2044C6.71906 17.3408 6.84849 17.7601 7.45795 18.1243C8.44574 18.7137 8.972 17.5069 9.83108 17.252C10.304 17.1115 10.9135 17.1468 11.3743 17.3326C12.2056 17.6672 12.5178 18.6965 13.5554 18.1095C14.3483 17.6606 14.4536 17.1263 15.5374 17.1591C16.5565 17.1896 16.656 17.6146 17.4013 18.0832C18.4389 18.7351 18.8578 17.6228 19.6998 17.2915C20.2268 17.0835 20.972 17.1411 21.4841 17.3869C22.0871 17.6754 22.4996 18.472 23.2335 18.2567C23.7704 18.0988 24.1751 17.4921 24.707 17.2915C24.9524 17.1994 25.2425 17.1657 25.4985 17.1591L25.4993 17.1583Z" fill="#171717"/>
</svg>
