<svg width="26" height="26" viewBox="0 0 26 26" fill="none" xmlns="http://www.w3.org/2000/svg">
<path d="M17.9006 0.5V5.13423L17.9538 5.1875H21.6293V6.64347H20.3864V8.38352H25.5V9.875H24.3281L24.3281 24.044H25.5V25.5L0.5 25.5L0.5 24.044H1.67188L1.67188 9.875H0.5L0.5 8.38352H5.61364V6.64347H4.37074V5.1875L8.04617 5.1875L8.09943 5.13423V0.5L17.9006 0.5ZM9.60867 1.95597L9.5554 2.00923V8.86293L9.60867 8.91619L16.3913 8.91619L16.4446 8.86293V2.00923L16.3913 1.95597L9.60867 1.95597ZM7.12287 6.64347L7.0696 6.69673L7.0696 23.9908L7.12287 24.044H10.745L10.7983 23.9908V20.5462L10.8516 20.4929H15.1484L15.2017 20.5462V23.9908L15.255 24.044H18.8771L18.9304 23.9908L18.9304 6.69673L18.8771 6.64347H17.9538L17.9006 6.69673V10.3544L17.8473 10.4077L8.1527 10.4077L8.09943 10.3544V6.69673L8.04617 6.64347H7.12287ZM5.61364 9.875H3.12784L3.12784 23.9908L3.18111 24.044H5.61364V19.4631H4.42401L4.37074 19.4098V18.0249L4.42401 17.9716H5.61364V16.5156H4.37074V15.0597H5.61364V13.6037H4.42401L4.37074 13.5504V12.1655L4.42401 12.1122H5.61364V9.875ZM22.8722 9.875H20.3864V12.1122H21.576L21.6293 12.1655V13.5504L21.576 13.6037H20.3864V15.0597H21.6293V16.5156L20.3864 16.5156V17.9716H21.576L21.6293 18.0249V19.4098L21.576 19.4631H20.3864L20.3864 24.044L22.8189 24.044L22.8722 23.9908L22.8722 9.875ZM13.7457 21.9844H12.2543V23.9908L12.3075 24.044H13.6925L13.7457 23.9908V21.9844Z" fill="#171717"/>
<path d="M12.0412 11.8281L9.09375 11.8281V13.2841L12.0412 13.2841V11.8281Z" fill="#171717"/>
<path d="M16.9063 11.8281H13.9588V13.2841H16.9063V11.8281Z" fill="#171717"/>
<path d="M12.0412 14.7756L9.09375 14.7756V16.2315H12.0412V14.7756Z" fill="#171717"/>
<path d="M16.9063 14.7756H13.9588V16.2315H16.9063V14.7756Z" fill="#171717"/>
<path d="M12.0412 17.6875H9.09375V19.1435H12.0412V17.6875Z" fill="#171717"/>
<path d="M16.9063 17.6875H13.9588V19.1435H16.9063V17.6875Z" fill="#171717"/>
<path d="M8 0.5L8 10.4462L8.05435 10.5H17.9457L18 10.4462V0.5L8 0.5ZM16.5145 8.94086L16.4601 8.99462H9.53986L9.48551 8.94086V2.0233L9.53986 1.96953L16.4601 1.96953L16.5145 2.0233V8.94086Z" fill="#D71923"/>
<path d="M13.761 4.80108H15.011L15.0653 4.85484V6.21685L15.011 6.27061H13.761V7.50717L13.7066 7.56093L12.2936 7.56093L12.2392 7.50717V6.27061H10.9892L10.9349 6.21685V4.85484L10.9892 4.80108H12.2392V3.56452L12.2936 3.51075H13.7066L13.761 3.56452V4.80108Z" fill="#D71923"/>
</svg>
