<svg width="30" height="30" viewBox="0 0 30 30" fill="none" xmlns="http://www.w3.org/2000/svg">
<path d="M25.625 2.5L11.073 2.5V8.19782L11.0156 8.25393H12.6962L12.6396 8.19782V4.08758L12.6962 4.03146L24.0209 4.03146V18.5448L22.742 19.7965H20.1634V21.328H22.742L24.0209 22.5422L24.0209 24.6527H20.1634V26.1842L25.625 26.1842L25.625 21.9444L24.2489 20.5619L25.625 19.18V2.5Z" fill="#171717"/>
<path d="M6.59172 8.25393C6.47872 8.25393 6.19768 8.0879 6.11477 7.99867C5.66864 7.52472 5.97609 6.78747 6.59172 6.68361L11.0156 6.68361L11.0706 6.73847V5.13158L11.0156 5.1857H6.37159C5.46905 5.1857 4.375 6.40348 4.375 7.28629L4.375 27.5H20.3125V8.25393L6.59172 8.25393ZM18.7738 26.0028H5.91371L5.91371 9.64139L6.55283 9.75257L18.7738 9.7511V26.0028Z" fill="#D71923"/>
<path d="M11.7679 12.9386C9.47418 13.1646 7.56418 15.1986 7.41669 17.4755C7.15693 21.4667 11.5317 24.1436 14.9606 22.0006C19.372 19.2433 17.0335 12.42 11.7679 12.9386ZM11.5926 21.1456C10.9733 21.0235 10.1661 20.5912 9.77869 20.0866C9.75081 20.05 9.70825 20.0405 9.72439 19.9769H11.5926V21.1456ZM11.5926 18.4248L11.5375 18.4797H9.04639C8.95761 18.4797 8.92165 18.0818 8.91651 17.9882C8.90331 17.7227 8.93412 17.4586 8.99136 17.2012H11.5926L11.5926 18.4248ZM11.5926 15.6492L11.5375 15.704H9.72439C9.77502 15.5709 9.91738 15.4217 10.0223 15.3251C10.4281 14.9507 11.0444 14.6054 11.5926 14.5352V15.6492ZM13.0953 14.5352C13.6596 14.6106 14.3178 14.977 14.7265 15.3742C14.8146 15.4597 14.9268 15.5848 14.9635 15.704L13.1496 15.704L13.0953 15.6492V14.5352ZM14.5974 20.3974C14.1828 20.7602 13.6383 21.0418 13.0953 21.1456V19.9769H14.9635C15.0061 20.0149 14.6429 20.3586 14.5974 20.3974ZM15.7714 18.0247C15.7655 18.1081 15.7296 18.4797 15.6415 18.4797H13.1496L13.0953 18.4248V17.2012H15.6782L15.7266 17.2619C15.7538 17.5157 15.7883 17.768 15.7714 18.0247Z" fill="#D71923"/>
</svg>
