<svg width="26" height="26" viewBox="0 0 26 26" fill="none" xmlns="http://www.w3.org/2000/svg">
<path d="M17.1554 25.4998H8.84595V23.1045C8.84595 23.0135 8.95689 22.5834 8.98961 22.4676C9.28261 21.4391 9.99877 20.5669 10.9048 20.0168C9.42343 18.4836 10.141 15.8373 12.1921 15.2693C15.0446 14.4796 17.08 17.868 15.0958 20.0168C16.0011 20.5676 16.718 21.4391 17.011 22.4676C17.0444 22.5841 17.1547 23.0135 17.1547 23.1045V25.4998H17.1554ZM12.7795 16.6362C11.0449 16.8587 11.2981 19.5441 13.0519 19.4659C14.9713 19.3799 14.8056 16.3761 12.7795 16.6362ZM10.301 23.2814C10.2761 23.5039 10.3195 23.7641 10.301 23.9915L10.3544 24.0448H15.6455L15.6989 23.9915V23.317C15.6989 22.7874 15.2039 21.9594 14.8113 21.6132C13.192 20.1831 10.5421 21.1448 10.301 23.2814Z" fill="#D71923"/>
<path d="M25.5001 7.89648V18.1185H18.1849V7.89648L25.5001 7.89648ZM24.0444 9.35148H19.6407V16.6627H24.0444V9.35148Z" fill="#D71923"/>
<path d="M10.9329 0.523319C11.6889 0.442288 12.3838 0.669032 12.984 1.11826C13.208 1.01519 13.405 0.848153 13.6404 0.745088C16.2483 -0.397162 18.5888 2.70191 16.85 4.91107L13.0132 8.74439L9.18273 4.94945C7.81513 3.32812 8.82999 0.749353 10.9329 0.523319ZM12.2309 2.45242C12.1121 2.3458 12.0161 2.21644 11.861 2.12972C10.6819 1.4701 9.41813 2.92155 10.3533 4.06237C11.083 4.953 12.1661 5.74981 12.9271 6.63617L13.0117 6.68592L15.6616 4.04318C16.6956 2.74598 14.9767 1.23412 13.8154 2.37565L13.0117 3.17175C12.7301 2.95353 12.4947 2.68983 12.2301 2.45171L12.2309 2.45242Z" fill="#D71923"/>
<path d="M6.58984 9.84728L7.90339 8.54297L8.90829 9.49899L8.91042 9.57362L7.60256 10.9298L7.60256 15.6858L7.54922 15.7391H6.1994L6.14606 15.6858L6.14606 12.4026L6.03939 12.4559L4.1576 14.3374L4.1576 16.9815H2.70182L2.70182 14.7809H0.5L0.5 13.2897H3.14559L4.99253 11.4444L5.04516 11.3378H1.79648L1.74314 11.2845V9.90059L1.79648 9.84728H6.58984Z" fill="#D71923"/>
<path d="M6.39488 1.96875V3.45929L4.60128 3.45929C4.16177 3.45929 3.44703 4.20634 3.44703 4.64845L3.44703 6.40554H1.95569L1.95569 4.61291C1.95569 3.4337 3.42214 1.96875 4.60128 1.96875L6.39488 1.96875Z" fill="#171717"/>
<path d="M24.0444 6.40359H22.5531V4.6465C22.5531 4.20509 21.8383 3.45734 21.3988 3.45734H19.6052V1.9668L21.3988 1.9668C22.6057 1.9668 24.0444 3.44454 24.0444 4.6465V6.40359Z" fill="#171717"/>
<path d="M24.0444 19.6074V21.3645C24.0444 22.5942 22.5936 24.0442 21.3633 24.0442H19.6052V22.5537H21.3633C21.8298 22.5537 22.5531 21.8308 22.5531 21.3645V19.6074H24.0444Z" fill="#171717"/>
<path d="M3.44703 19.6074V21.3645C3.44703 21.8301 4.17457 22.5537 4.63684 22.5537H6.39488V24.0442H4.63684C3.40863 24.0442 1.95569 22.5928 1.95569 21.3645L1.95569 19.6074H3.44703Z" fill="#171717"/>
<path d="M22.5883 12.2597H21.0969V10.8047H22.5349L22.5883 10.858V12.2597Z" fill="#D71923"/>
</svg>
