<svg width="24" height="26" viewBox="0 0 24 26" fill="none" xmlns="http://www.w3.org/2000/svg">
<path d="M21.9859 12.4439C21.9101 12.2861 21.5569 12.0261 21.4381 11.8603C21.4121 11.823 21.3725 11.8143 21.3875 11.75H16.7483L16.6971 11.8603L13.2712 15.527L13.1175 15.5817L9.92382 15.5642L9.64305 12.8003C9.58226 12.4234 9.37663 12.1042 9.27758 11.75H5.23547L5.2867 11.8048V15.3794L3.80361 17.0031L3.76809 18.8255L0.75 22.0897L0.75 25.5H9.12455L10.3378 24.2079L15.9313 20.4507L21.9859 12.5162C22.0092 12.4884 21.9996 12.4716 21.9859 12.4439ZM8.78504 23.7492C8.77752 23.7653 8.56165 24.0048 8.54457 24.0048H2.18322V22.6733L4.54892 20.1417L8.7987 23.6988C8.80621 23.72 8.79323 23.7324 8.78504 23.7492ZM14.9572 19.3361L9.96891 22.6857L9.86712 22.6645L5.19175 18.7817L5.20199 17.6232L6.68576 16.0361V11.8048C6.71445 11.7025 6.97336 11.7902 7.05466 11.8114C7.68724 11.975 8.17431 12.5491 8.28498 13.2313C8.45235 14.2597 8.45781 15.4561 8.56165 16.5094C8.56917 16.5817 8.62245 17.0718 8.64909 17.0769L13.8409 17.0513L17.9117 12.6864C18.4835 12.0845 19.4782 11.9859 20.0896 12.5746L14.9572 19.3361Z" fill="#171717"/>
<path d="M23.1978 10.3396H22.1029C22.1169 9.41291 22.1099 8.50067 21.9051 7.59395C21.2895 4.86826 19.152 2.59801 16.4414 1.81737C15.2079 1.46253 13.9898 1.477 12.7132 1.49767V0.5L11.2875 0.5V1.44669C11.2569 1.49561 11.2179 1.49354 11.167 1.49974C10.6419 1.56037 9.97398 1.46942 9.42517 1.49629C6.35445 1.64925 3.60063 3.59568 2.46191 6.40818C1.94792 7.67801 1.84624 8.97953 1.89777 10.3396H0.75L0.75 11.75L23.25 11.75V10.3913L23.1978 10.3396ZM20.6787 10.2211C20.6724 10.2714 20.6745 10.3093 20.6243 10.3396L3.37567 10.3396C3.32622 10.3093 3.32762 10.2714 3.32135 10.2211C3.2914 9.96893 3.3109 9.52108 3.32205 9.25444C3.47109 5.71573 6.07726 3.07342 9.66893 2.90737C11.0974 2.84122 12.8671 2.84398 14.2969 2.90737C17.1141 3.03139 19.5615 4.75182 20.3813 7.45064C20.602 8.17822 20.7678 9.47079 20.6787 10.2211Z" fill="#D71923"/>
<path d="M9.26139 4.47769V5.88013L9.20458 5.92778C8.05315 5.95836 7.00098 6.77407 6.68746 7.92902C6.5882 8.29314 6.61147 8.62384 6.56081 8.98725H5.21087C5.16226 8.95596 5.16363 8.91613 5.15816 8.86493C5.13967 8.70207 5.17595 8.33083 5.19786 8.15731C5.46141 6.08352 7.231 4.42435 9.26139 4.47769Z" fill="#D71923"/>
</svg>
