<svg width="26" height="26" viewBox="0 0 26 26" fill="none" xmlns="http://www.w3.org/2000/svg">
<path d="M1.9636 18.5186C0.622357 17.9537 0.0380973 16.3908 0.918752 15.1618C2.58055 12.8445 6.32707 15.3928 4.37598 17.8488C4.32338 17.9143 4.13645 18.0362 4.17909 18.1143C6.29721 19.6287 9.42464 19.6174 11.5648 18.1496C11.6153 18.0735 11.3693 17.8988 11.3146 17.8326C9.73098 15.895 12.0744 13.315 14.1606 14.5905C15.452 15.3808 15.5466 17.1818 14.3859 18.1312C16.5161 19.6385 19.7437 19.6322 21.8377 18.0608C20.6436 17.0015 20.9471 15.0899 22.4177 14.4497C23.535 13.963 24.8564 14.48 25.3226 15.5928C25.8315 16.8064 25.1968 18.0129 24.0382 18.5186V24.0582H25.4932V25.5H21.0921V24.0582H22.547V19.3807C22.2364 19.5589 21.9365 19.7576 21.6124 19.9139C19.1282 21.1113 16.0789 20.9401 13.7447 19.4857V24.0575H15.1997L15.1997 25.4993H10.7986L10.7986 24.0575H12.2535V19.4505C9.95061 20.9359 6.8765 21.1106 4.3973 19.9379L3.45126 19.4152L3.45126 24.0575H4.90622V25.4993H0.508633L0.508633 24.0575H1.9636L1.9636 18.5179V18.5186ZM2.55781 15.7309C1.68568 15.8781 1.83566 17.2494 2.79379 17.1607C3.75191 17.0719 3.60265 15.5541 2.55781 15.7309ZM12.8506 15.7309C12.599 15.7731 12.3914 15.9823 12.3111 16.2154C12.0559 16.9571 13.0475 17.5093 13.5535 16.9191C14.0049 16.3922 13.5493 15.6125 12.8506 15.7309ZM23.1427 15.7309C22.3075 15.8717 22.4255 17.2494 23.3786 17.1607C24.3318 17.0719 24.1932 15.5534 23.1427 15.7309Z" fill="#171717"/>
<path d="M21.75 0.5V12.9461L21.6978 13L4.30215 13L4.25 12.9461L4.25 0.5L21.75 0.5ZM20.2911 1.97249L5.70885 1.97249L5.70885 11.4915L20.2918 11.4915L20.2911 1.97249Z" fill="#D71923"/>
<path d="M18.8681 3.55289V9.91043L7.13261 9.91043L7.13261 3.55289L18.8681 3.55289ZM17.4447 5.06206L8.556 5.06206V8.43865H17.4447V5.06206Z" fill="#D71923"/>
</svg>
