<svg width="26" height="26" viewBox="0 0 26 26" fill="none" xmlns="http://www.w3.org/2000/svg">
<path d="M5.77352 17.4837C6.97331 16.8598 8.13399 15.9896 9.50233 15.8932C11.025 15.786 12.446 16.3532 13.5576 17.476C14.9302 17.5925 16.4258 17.204 17.7053 17.8583L20.3403 16.0167C21.7996 15.1038 23.6907 15.427 24.8237 16.7774C25.0719 17.0727 25.2681 17.4255 25.5 17.7363C23.6928 19.1434 21.9277 20.6197 20.1141 22.016C19.3268 22.6221 18.548 23.2274 17.6889 23.7114C13.9246 25.8342 9.35084 26.0642 5.39161 24.4185C5.2195 24.347 4.37673 23.8847 4.31771 23.8847H0.5L0.5 17.483H5.77352V17.4837ZM23.2988 17.4457C22.5535 16.9911 21.6688 16.9756 20.9441 17.4907L18.9669 18.8994C19.272 19.3074 19.5231 19.7666 19.6589 20.2763L19.7592 20.3097L23.2988 17.4449V17.4457ZM18.2209 20.7044C17.977 19.7308 17.1129 19.1442 16.216 19.0735C15.1485 18.9896 13.9957 19.1458 12.9196 19.0673C12.1878 18.19 11.2903 17.5731 10.1773 17.4853C8.65174 17.3649 7.45337 18.4542 6.12912 19.0758H2.00987L1.95653 19.1341L1.95653 22.2957H4.6733C4.73447 22.2957 5.60711 22.793 5.78206 22.8684C9.23492 24.3618 13.4616 24.2414 16.7885 22.4185C16.8319 22.3952 16.9329 22.3478 16.9429 22.2957H11.0478V20.7052H18.2216L18.2209 20.7044Z" fill="#171717"/>
<path d="M7.82553 5.15701L8.56175 0.5L18.7076 0.5L19.423 5.15701L21.6962 5.15701L21.75 5.21208V12.7469H18.7793V14.25H17.3119V12.7469L9.93814 12.7469V14.25H8.47071L8.47071 12.7469H5.5L5.5 5.21208L5.55377 5.15701H7.82696H7.82553ZM9.3288 5.15701L17.9198 5.15701L17.4137 2.00901L9.83491 2.00901L9.3288 5.15701ZM20.2819 6.69686L6.966 6.69686L6.966 11.207L20.2819 11.207V6.69686Z" fill="#D71923"/>
<path d="M15.8433 8.19989H11.4045V9.70303H15.8433V8.19989Z" fill="#D71923"/>
<path d="M9.93671 8.19989H8.46928V9.70303H9.93671V8.19989Z" fill="#D71923"/>
<path d="M18.7782 8.19989H17.3108V9.70303H18.7782V8.19989Z" fill="#D71923"/>
</svg>
