<svg width="24" height="26" viewBox="0 0 24 26" fill="none" xmlns="http://www.w3.org/2000/svg">
<path d="M10.125 6.39494H10.8643C10.8774 6.39494 11.0901 6.4682 11.1218 6.48313C11.6622 6.73418 11.6622 7.54705 11.1218 7.79739C11.0901 7.81232 10.8774 7.88628 10.8643 7.88628H10.125L10.125 25.5H23.875L23.875 7.88628H23.1357C23.1088 7.88628 22.8851 7.81659 22.8431 7.7981C22.3289 7.57052 22.3302 6.71 22.8431 6.48313C22.8851 6.46464 23.1088 6.39494 23.1357 6.39494H23.875V0.5L10.125 0.500001L10.125 6.39494ZM22.4308 1.95578V5.08069C20.5748 5.76626 20.5748 8.51425 22.4308 9.20054L22.4307 24.0442H11.5341L11.5341 9.20054C13.4045 8.52492 13.4045 5.75631 11.5341 5.08069L11.5341 1.95578L22.4308 1.95578Z" fill="#D71923"/>
<path d="M16.2831 13H17.7253V15.5707L21.3749 19.2931C21.3855 19.3649 20.4921 20.2092 20.3512 20.3015L17.7958 17.733L17.7253 17.7685V22.9467L17.6725 23H14.6471L14.5942 22.9467V21.5641L14.6471 21.5109H16.2831V17.7522L13.6903 20.3015L13.5902 20.2717L12.625 19.2946L16.2831 15.6069V13Z" fill="#D71923"/>
<path d="M10.125 0.499999L0.125001 6.79817L10.125 25.5L10.125 22.1385C10.125 22.1447 10.09 22.2515 10.0542 22.2345L2.16277 7.38164L10.052 2.42915L10.125 2.47093L10.125 0.499999Z" fill="#171717"/>
</svg>
