<svg width="26" height="20" viewBox="0 0 26 20" fill="none" xmlns="http://www.w3.org/2000/svg">
<path d="M25.4993 12.5401V18.2212H22.4989C22.3666 18.4443 22.2834 18.6853 22.1341 18.9001C21.0702 20.4302 18.7099 20.3462 17.7754 18.7383C17.6787 18.5717 17.6126 18.3802 17.523 18.2253L8.54176 18.2191C8.37179 18.228 8.35544 18.489 8.28361 18.6233C7.60161 19.8965 6.00791 20.3813 4.70222 19.6734C4.1205 19.358 3.72225 18.8333 3.51886 18.2212H0.5L0.5 12.5401H2.22242C2.69321 12.5401 3.36454 12.109 3.6618 11.7661L6.02142 8.75L18.5861 8.75964C18.6594 8.7803 19.0093 9.24167 19.0875 9.34083C19.6955 10.1079 20.3022 11.0568 20.9536 11.7661C21.2622 12.1022 21.9151 12.5401 22.393 12.5401H25.5H25.4993ZM8.7736 10.1988H6.73186C6.1921 10.8881 5.61819 11.563 5.10261 12.2681C5.04429 12.348 4.96037 12.4437 4.93904 12.5401H8.77431V10.1988H8.7736ZM12.254 10.1988H10.2656V12.5401H12.254V10.1988ZM17.9354 10.1988H13.7453V12.5401H19.6756C19.6856 12.483 19.6479 12.4478 19.6194 12.4051C19.2056 11.782 18.594 11.0871 18.1196 10.4853C18.0549 10.4027 17.9738 10.2959 17.9354 10.1988ZM24.0435 13.9862L1.95574 13.9862L1.95574 16.7579L2.00907 16.8095H3.51815C4.21295 14.6569 7.19127 14.3794 8.2829 16.4074C8.33837 16.5106 8.38388 16.7875 8.50762 16.8095L17.4582 16.8116C17.6019 16.8233 17.5734 16.689 17.6204 16.5898C18.429 14.8779 20.6812 14.4331 21.9663 15.9136C22.2066 16.1904 22.3325 16.492 22.4982 16.8095H23.9895L24.0428 16.7579V13.9862H24.0435ZM5.7462 16.4735C4.59768 16.6477 4.63253 18.425 5.77678 18.562C7.51912 18.77 7.46293 16.2132 5.7462 16.4735ZM19.7731 16.4735C18.626 16.6477 18.6523 18.4243 19.8036 18.562C21.5502 18.7707 21.4933 16.2125 19.7731 16.4735Z" fill="#171717"/>
<path d="M8 1.52174L10.8184 2.67826L13.0198 0L15.1816 2.67826L18 1.52174V7.5L8 7.5L8 1.52174ZM16.3066 3.87681L14.6777 4.56232L12.9802 2.53623L11.3223 4.56232L9.69345 3.87681V6.01449L16.3066 6.01449V3.87681Z" fill="#D71923"/>
</svg>
