<svg width="20" height="26" viewBox="0 0 20 26" fill="none" xmlns="http://www.w3.org/2000/svg">
<path d="M19.375 25.5H0.625L0.625 0.5L14.635 0.5L19.375 5.31182L19.375 25.5ZM17.9408 24.0442L17.9408 5.95117L14.0054 1.95649L2.05924 1.95649L2.05924 24.0442H17.9408Z" fill="#171717"/>
<path d="M3.18044 9.25L16.8196 9.25L16.875 9.30552V22.9445L16.8196 23H3.18044L3.125 22.9445L3.125 9.30552L3.18044 9.25ZM6.19288 10.8023H4.67742V13.8336H6.19288V10.8023ZM12.2917 10.8023H7.70833V12.4286C7.88501 12.3908 8.06022 12.3309 8.24281 12.3161C9.18831 12.2413 10.7703 12.2487 11.7202 12.3161C11.9176 12.3301 12.1017 12.3827 12.2917 12.4286V10.8023ZM15.3226 10.8023L13.8071 10.8023V13.8336H15.3226V10.8023ZM12.2917 15.3489V14.4806C12.2917 14.465 12.1941 14.2215 12.1756 14.1904C12.0492 13.9764 11.7764 13.8506 11.5354 13.8321C10.5123 13.7551 9.3916 13.8898 8.35813 13.8365C8.16888 13.8624 7.92124 14.026 7.8244 14.1896C7.80591 14.2207 7.70833 14.4643 7.70833 14.4798L7.70833 15.3481H4.67742L4.67742 16.8634H7.70833V17.7687C7.70833 18.0241 8.12675 18.4024 8.39509 18.412C9.40417 18.3602 10.4997 18.4919 11.4985 18.4164C11.7394 18.3979 11.9974 18.2995 12.1372 18.0944C12.1638 18.0559 12.2909 17.7902 12.2909 17.768V16.8627H15.3218V15.3474H12.2909L12.2917 15.3489ZM6.19288 18.4172H4.67742V21.4485H6.19288V18.4172ZM15.3226 18.4172H13.8071L13.8071 21.4485H15.3226L15.3226 18.4172ZM12.2917 19.8214C12.095 19.8362 11.9206 19.9176 11.7202 19.9339C10.7976 20.0072 9.24449 19.9998 8.31673 19.9339C8.09866 19.9184 7.91976 19.8451 7.70833 19.8214V21.4477H12.2917V19.8214Z" fill="#D71923"/>
</svg>
