<svg width="26" height="26" viewBox="0 0 26 26" fill="none" xmlns="http://www.w3.org/2000/svg">
<path d="M21.3807 19.0827L25.5 19.508V25.4998H0.5L0.5 20.0398C2.89744 19.6465 5.32049 19.3937 7.74425 19.224C7.74425 19.224 15.2886 18.634 21.3807 19.082V19.0827ZM24.0442 20.8201C23.8152 20.7875 23.5819 20.7399 23.3515 20.7143C18.3966 20.1548 13.1145 20.311 8.15248 20.6781C6.22727 20.8208 4.16337 20.9401 2.26306 21.2511C2.17273 21.266 2.05254 21.2703 1.99138 21.3349L1.99138 23.9938L2.04472 24.0471H23.9908L24.0442 23.9938V20.8208V20.8201Z" fill="#171717"/>
<path d="M21.5408 10.0368L18.558 4.89564L13 4.89564V2.00663L13.0533 1.95338H14.4558V0.5L5.64907 0.5V1.95338H7.05155L7.10488 2.00663V4.89564L3.4472 4.89564L3.4472 8.53016L3.39386 8.5827H0.5L0.5 14.4324H3.39386L3.4472 14.4857V17.3754H6.44845C6.61771 17.8383 6.82396 18.2821 7.16249 18.647C7.32464 18.8217 7.48253 18.9878 7.68451 19.0837C9.35867 19.8767 11.1537 18.9701 11.1537 18.9701C11.4539 18.6861 11.7526 18.3779 11.941 18.0023C11.9922 17.8994 12.1551 17.3974 12.2056 17.3804H16.7594C16.9002 17.876 17.1484 18.3062 17.4919 18.6875L17.6875 18.8643C17.6875 18.8643 18.9861 19.8427 21.3807 19.0411L21.9426 18.4503C22.1915 18.1259 22.3423 17.7496 22.4994 17.3754H25.5V10.0368H21.5408ZM3.4472 12.979H2.00916L1.95582 12.9258L1.95582 10.09L2.00916 10.0368H3.39386L3.4472 10.09V12.979ZM15.2019 6.38523L17.7053 6.38523L19.7827 10.0368H15.2019V6.38523ZM8.59698 2.00663L8.6496 1.95338L11.4908 1.95338L11.5442 2.00663V4.84239L11.4908 4.89564H8.59698V2.00663ZM4.90373 6.38523L9.28897 6.38523L9.34231 6.43777V9.98354L9.28897 10.0368H4.90373V6.38523ZM9.69862 18.0677C7.5885 18.5803 7.15751 15.2993 9.22923 15.1872C11.0414 15.0899 11.3564 17.6651 9.69862 18.0677ZM13.746 15.8688L13.6927 15.922H12.2013C12.0897 15.7253 12.0413 15.4967 11.941 15.2951C10.9205 13.2446 7.86231 13.2034 6.75711 15.2021C6.62981 15.4321 6.56224 15.6856 6.44845 15.922H4.95636L4.90373 15.8688V11.5257L13.746 11.5257V15.8688ZM13.746 9.98354L13.6927 10.0368L10.7981 10.0368V6.38523H13.6927L13.746 6.43777V9.98354ZM19.9968 18.0677C17.93 18.5696 17.4251 15.3824 19.4911 15.1879C21.2719 15.0203 21.6986 17.6544 19.9968 18.0677ZM24.0442 15.8688L23.9908 15.922H22.4994C22.3857 15.7239 22.3309 15.4896 22.2228 15.2759C21.252 13.3646 18.4414 13.1899 17.2181 14.9387C17.0012 15.2496 16.8803 15.5713 16.7466 15.922H15.2552L15.2019 15.8688V11.5257H24.0442V15.8688Z" fill="#D71923"/>
</svg>
