<svg width="24" height="26" viewBox="0 0 24 26" fill="none" xmlns="http://www.w3.org/2000/svg">
<path d="M7.12149 4.91321C6.56076 3.83489 6.61763 2.51846 7.43066 1.57662C8.63306 0.183409 10.709 0.162795 11.9872 1.46786C12.529 0.995166 13.17 0.589288 13.9166 0.516073C16.3819 0.274394 18.0342 2.80563 16.8792 4.91321H17.4072C17.4611 4.91321 17.7273 4.82507 17.7987 4.79806C18.4236 4.56562 18.7167 4.05738 18.7722 3.42262L20.2101 3.42262L20.2589 3.48162C20.2589 3.94578 20.1335 4.44407 19.8798 4.84142L19.9184 4.91392H23.25V12.332H21.7574L21.7574 25.5H2.24261L2.24261 12.332H0.75L0.75 4.91321H4.08158L4.12022 4.84071C3.95179 4.58623 3.83803 4.25925 3.78262 3.96213C3.75199 3.79935 3.67908 3.54914 3.78991 3.42262H5.22783C5.28325 4.05738 5.57638 4.56562 6.20128 4.79806C6.27346 4.82507 6.53888 4.91321 6.59284 4.91321H7.12076H7.12149ZM11.2355 4.91321V3.1916C11.2355 2.90159 10.8643 2.42534 10.6288 2.25687C9.28348 1.29584 7.56628 2.90443 8.51858 4.27845C8.70452 4.54643 9.24702 4.9125 9.57879 4.9125H11.2355V4.91321ZM12.7645 4.91321H14.4212C14.7603 4.91321 15.2926 4.55211 15.4814 4.27916C16.3958 2.95916 14.8383 1.36479 13.4594 2.20143C13.1823 2.36918 12.7645 2.86676 12.7645 3.19231V4.91392V4.91321ZM11.2355 6.36826L2.24261 6.36826L2.24261 10.8407H11.2355V6.36826ZM21.7581 6.36826L12.7653 6.36826V10.8407H21.7581V6.36826ZM20.2648 12.3313L3.73522 12.3313L3.73522 24.0442H20.2648L20.2648 12.3313Z" fill="#171717"/>
<path d="M14.3298 14.5444C14.6358 14.8052 15.03 15.0583 15.3138 15.3368C15.3575 15.38 15.438 15.4294 15.4019 15.4945L9.74649 22.6945L9.66807 22.6803L8.64177 21.8511L8.64316 21.7804L14.3298 14.5444Z" fill="#D71923"/>
<path d="M8.89575 14.2701C11.7984 13.9124 12.1717 18.4459 9.30169 18.6367C6.43165 18.8276 6.18809 14.6038 8.89575 14.2701ZM9.06784 15.7158C7.99019 15.8925 8.47315 17.5919 9.50362 17.078C10.2156 16.7224 9.80616 15.5949 9.06784 15.7158Z" fill="#D71923"/>
<path d="M14.5782 18.6474C17.4816 18.3094 17.884 22.6082 15.1882 22.9751C12.2904 23.3689 11.8796 18.9619 14.5782 18.6474ZM14.7496 20.093C13.903 20.2379 14.0113 21.6355 14.98 21.5274C15.9064 21.4241 15.7079 19.929 14.7496 20.093Z" fill="#D71923"/>
</svg>
