  <svg
    xmlns="http://www.w3.org/2000/svg"
    width="16"
    height="16"
    viewBox="0 0 16 16"
    fill="currentColor"
  >
    <path d="M13.3637 11.8931L16 12.1653V16H0V12.5056C1.53437 12.2539 3.08512 12.0921 4.63632 11.9835C4.63632 11.9835 9.46472 11.6059 13.3637 11.8927V11.8931Z" />
    <path d="M13.4661 6.10355L11.5571 2.81321H8V0.964244L8.03414 0.930164H8.93173V0H3.2954V0.930164H4.19299L4.22713 0.964244V2.81321H1.88621V5.1393L1.85207 5.17293H0V8.91676H1.85207L1.88621 8.95084V10.8003H3.80701C3.91534 11.0965 4.04734 11.3805 4.264 11.6141C4.36777 11.7259 4.46882 11.8322 4.59809 11.8936C5.66955 12.4011 6.81839 11.8209 6.81839 11.8209C7.01047 11.6391 7.20164 11.4419 7.32226 11.2015C7.35503 11.1356 7.45926 10.8143 7.49158 10.8034H10.406C10.4961 11.1206 10.655 11.396 10.8748 11.64L11 11.7531C11 11.7531 11.8311 12.3793 13.3637 11.8663L13.7233 11.4882C13.8826 11.2806 13.9791 11.0397 14.0797 10.8003H16V6.10355H13.4661ZM9.40919 3.76655H11.0114L12.3409 6.10355H9.40919V3.76655ZM2.81839 3.76655H5.62494L5.65908 3.80018V6.06947L5.62494 6.10355H2.81839V3.76655ZM5.88712 11.2433C4.53664 11.5714 4.26081 9.47159 5.58671 9.39979C6.74647 9.33754 6.94811 10.9857 5.88712 11.2433ZM8.47747 6.06947L8.44333 6.10355H6.59081V3.76655H8.44333M12.4779 11.2433C11.1552 11.5646 10.832 9.52475 12.1543 9.40024C13.294 9.293 13.5671 10.9788 12.4779 11.2433Z" />
  </svg>
