  <svg
    xmlns="http://www.w3.org/2000/svg"
    width="21"
    height="20"
    viewBox="0 0 21 20"
    fill="currentColor"
  >
    <path d="M4.99951 18.3337V1.66699H6.66618V3.33366H18.3328L16.6662 7.50033L18.3328 11.667H6.66618V18.3337H4.99951ZM11.2495 9.16699C11.7078 9.16699 12.1002 9.0038 12.4266 8.67741C12.753 8.35102 12.9162 7.95866 12.9162 7.50033C12.9162 7.04199 12.753 6.64963 12.4266 6.32324C12.1002 5.99685 11.7078 5.83366 11.2495 5.83366C10.7912 5.83366 10.3988 5.99685 10.0724 6.32324C9.74604 6.64963 9.58285 7.04199 9.58285 7.50033C9.58285 7.95866 9.74604 8.35102 10.0724 8.67741C10.3988 9.0038 10.7912 9.16699 11.2495 9.16699Z" />
  </svg>
