  <svg
    xmlns="http://www.w3.org/2000/svg"
    width="21"
    height="20"
    viewBox="0 0 21 20"
    fill="currentColor"
  >
    <path d="M7.33333 17.5003H4.83333V14.9587C4.58333 14.6809 4.38194 14.3719 4.22917 14.0316C4.07639 13.6913 4 13.3198 4 12.917V5.00033C4 3.84755 4.53472 3.0038 5.60417 2.46908C6.67361 1.93435 8.36111 1.66699 10.6667 1.66699C13.0556 1.66699 14.7639 1.92394 15.7917 2.43783C16.8194 2.95171 17.3333 3.80588 17.3333 5.00033V12.917C17.3333 13.3198 17.2569 13.6913 17.1042 14.0316C16.9514 14.3719 16.75 14.6809 16.5 14.9587V17.5003H14V15.8337H7.33333V17.5003ZM5.66667 8.33366H15.6667V5.83366H5.66667V8.33366ZM7.75 13.3337C8.09722 13.3337 8.39236 13.2121 8.63542 12.9691C8.87847 12.726 9 12.4309 9 12.0837C9 11.7364 8.87847 11.4413 8.63542 11.1982C8.39236 10.9552 8.09722 10.8337 7.75 10.8337C7.40278 10.8337 7.10764 10.9552 6.86458 11.1982C6.62153 11.4413 6.5 11.7364 6.5 12.0837C6.5 12.4309 6.62153 12.726 6.86458 12.9691C7.10764 13.2121 7.40278 13.3337 7.75 13.3337ZM13.5833 13.3337C13.9306 13.3337 14.2257 13.2121 14.4687 12.9691C14.7118 12.726 14.8333 12.4309 14.8333 12.0837C14.8333 11.7364 14.7118 11.4413 14.4687 11.1982C14.2257 10.9552 13.9306 10.8337 13.5833 10.8337C13.2361 10.8337 12.941 10.9552 12.6979 11.1982C12.4549 11.4413 12.3333 11.7364 12.3333 12.0837C12.3333 12.4309 12.4549 12.726 12.6979 12.9691C12.941 13.2121 13.2361 13.3337 13.5833 13.3337Z" />
  </svg>
