<svg width="26" height="30" viewBox="0 0 26 30" fill="none" xmlns="http://www.w3.org/2000/svg">
<g clip-path="url(#clip0_3899_22973)">
<path d="M25.9901 3.46817L23 29.5C22.9085 30.3156 22.806 30.0926 22 30L5.7594 28.1772C4.95342 28.0846 4.37383 27.3475 4.46531 26.5318L7.2961 1.31895C7.38759 0.503323 7.19401 -0.0925629 8 1.52588e-05L25.5 2.00001C26.306 2.09259 26.0816 2.65254 25.9901 3.46817Z" fill="url(#paint0_linear_3899_22973)"/>
<path d="M20.7812 1.49999V28.5C20.7812 29.3209 20.8959 29.1744 20.0002 29.1744H0.629904C-0.265829 29.1744 -3.89852e-05 29.3209 -3.89852e-05 28.5L0.00023235 1.49999C0.00023235 0.679087 -0.241048 0.825581 0.654685 0.825581L20.0002 0.82558C20.8959 0.82558 20.7812 0.679087 20.7812 1.49999Z" fill="#D71923"/>
<path d="M7.3536 20.7088H13.4275C13.6307 20.7088 13.7957 20.8113 13.7957 20.9375V21.3639C13.7957 21.4901 13.6307 21.5926 13.4275 21.5926H7.3536C7.15037 21.5926 6.98535 21.4901 6.98535 21.3639V20.9375C6.98535 20.8113 7.15037 20.7088 7.3536 20.7088Z" fill="#FFF2E8"/>
<path d="M4.80818 19H15.9733C16.1481 19 16.29 19.0881 16.29 19.1967V19.6867C16.29 19.7953 16.1481 19.8834 15.9733 19.8834H4.80818C4.63331 19.8834 4.49146 19.7953 4.49146 19.6867V19.1967C4.49146 19.0881 4.63331 19 4.80818 19Z" fill="#FFF2E8"/>
<path d="M10.5 16C10.0216 16 9.56974 15.9076 9.14457 15.7228C8.71939 15.5381 8.34806 15.287 8.03058 14.9694C7.71305 14.6519 7.46191 14.2806 7.27718 13.8554C7.09239 13.4303 7 12.9784 7 12.5C7 12.0192 7.09239 11.5667 7.27718 11.1427C7.46191 10.7188 7.71305 10.3481 8.03058 10.0306C8.34806 9.71305 8.71939 9.46191 9.14457 9.27718C9.56974 9.09239 10.0216 9 10.5 9C10.9808 9 11.4333 9.09239 11.8573 9.27718C12.2812 9.46191 12.6519 9.71305 12.9694 10.0306C13.287 10.3481 13.5381 10.7188 13.7228 11.1427C13.9076 11.5667 14 12.0192 14 12.5C14 12.9784 13.9076 13.4303 13.7228 13.8554C13.5381 14.2806 13.287 14.6519 12.9694 14.9694C12.6519 15.287 12.2812 15.5381 11.8573 15.7228C11.4333 15.9076 10.9808 16 10.5 16ZM10.4906 15.103C10.6227 14.9089 10.7416 14.7041 10.8474 14.4887C10.9531 14.2732 11.0394 14.0461 11.1062 13.8075H9.88912C9.95591 14.0461 10.0398 14.2732 10.1408 14.4887C10.2419 14.7041 10.3584 14.9089 10.4906 15.103ZM9.64591 14.9694C9.53944 14.792 9.45178 14.6045 9.38293 14.407C9.31408 14.2094 9.2546 14.0096 9.20451 13.8075H8.24765C8.3996 14.0795 8.59427 14.3169 8.83165 14.5197C9.06909 14.7225 9.34051 14.8724 9.64591 14.9694ZM11.34 14.9694C11.6454 14.8724 11.9184 14.7225 12.1589 14.5197C12.3994 14.3169 12.5957 14.0795 12.7477 13.8075H11.7908C11.7407 14.0096 11.6797 14.2094 11.6076 14.407C11.5357 14.6045 11.4465 14.792 11.34 14.9694ZM7.96847 13.1537H9.07093C9.05423 13.0424 9.04171 12.9341 9.03336 12.8287C9.02501 12.7233 9.02084 12.6137 9.02084 12.5C9.02084 12.3831 9.02501 12.2728 9.03336 12.169C9.04171 12.0652 9.05423 11.9576 9.07093 11.8463H7.96847C7.94064 11.9544 7.91976 12.0612 7.90585 12.1666C7.89193 12.272 7.88498 12.3831 7.88498 12.5C7.88498 12.6137 7.89193 12.7241 7.90585 12.831C7.91976 12.938 7.94064 13.0456 7.96847 13.1537ZM9.73884 13.1537H11.2565C11.2732 13.0424 11.2841 12.9341 11.2893 12.8287C11.2945 12.7233 11.2971 12.6137 11.2971 12.5C11.2971 12.3831 11.2945 12.2728 11.2893 12.169C11.2841 12.0652 11.2732 11.9576 11.2565 11.8463H9.73884C9.72214 11.9576 9.70962 12.0652 9.70127 12.169C9.69292 12.2728 9.68874 12.3831 9.68874 12.5C9.68874 12.6137 9.69292 12.7233 9.70127 12.8287C9.70962 12.9341 9.72214 13.0424 9.73884 13.1537ZM11.9244 13.1537H13.0221C13.0499 13.0456 13.0708 12.938 13.0847 12.831C13.0986 12.7241 13.1056 12.6137 13.1056 12.5C13.1056 12.3831 13.0986 12.272 13.0847 12.1666C13.0708 12.0612 13.0499 11.9544 13.0221 11.8463H11.9244C11.9379 11.9576 11.9481 12.0652 11.9549 12.169C11.9617 12.2728 11.9651 12.3831 11.9651 12.5C11.9651 12.6137 11.9617 12.7233 11.9549 12.8287C11.9481 12.9341 11.9379 13.0424 11.9244 13.1537ZM11.7908 11.1878H12.7477C12.5957 10.9158 12.3994 10.6792 12.1589 10.4779C11.9184 10.2767 11.6454 10.1276 11.34 10.0306C11.4465 10.208 11.5357 10.3946 11.6076 10.5906C11.6797 10.7867 11.7407 10.9857 11.7908 11.1878ZM9.88912 11.1878H11.1062C11.0425 10.9492 10.9578 10.7229 10.8521 10.509C10.7463 10.2951 10.6258 10.0911 10.4906 9.897C10.3584 10.0911 10.2419 10.2951 10.1408 10.509C10.0398 10.7229 9.95591 10.9492 9.88912 11.1878ZM8.24765 11.1878H9.20451C9.2546 10.9857 9.31408 10.7867 9.38293 10.5906C9.45178 10.3946 9.53944 10.208 9.64591 10.0306C9.34051 10.1276 9.06909 10.2767 8.83165 10.4779C8.59427 10.6792 8.3996 10.9158 8.24765 11.1878Z" fill="#FFF2E8"/>
</g>
<defs>
<linearGradient id="paint0_linear_3899_22973" x1="15.2261" y1="2.15475" x2="15.2251" y2="22.603" gradientUnits="userSpaceOnUse">
<stop stop-color="#465A61"/>
<stop offset="0.4" stop-color="#44565C"/>
<stop offset="0.81" stop-color="#404C50"/>
<stop offset="1" stop-color="#3E4648"/>
</linearGradient>
<clipPath id="clip0_3899_22973">
<rect width="26" height="30" fill="white"/>
</clipPath>
</defs>
</svg>
