<svg width="30" height="30" viewBox="0 0 30 30" fill="none" xmlns="http://www.w3.org/2000/svg">
<g clip-path="url(#clip0_3899_23135)">
<path d="M16.9277 7.92773L11.9941 13.6641L13.0723 15.873L18.6035 9.7207L16.9277 7.92773Z" fill="url(#paint0_linear_3899_23135)"/>
<path d="M16.9453 23.9941L18.2109 24.7383L18.9609 23.5898L18.1055 22.9805L16.9453 23.9941Z" fill="url(#paint1_linear_3899_23135)"/>
<path d="M27.7558 19.459C28.1015 19.459 28.3183 19.0898 28.1484 18.7852L26.9707 16.6641C26.7597 16.2832 26.1855 16.3535 26.0742 16.7754C24.9551 20.9473 21.375 23.4434 16.9277 23.9941V13.7695C17.8418 13.6992 18.7558 13.5762 19.6699 13.4062C20.1679 13.3125 20.5254 12.873 20.5254 12.3691V10.9336C20.5254 10.4297 20.1679 9.99023 19.6699 9.89648C18.7558 9.72656 17.8418 9.60352 16.9277 9.5332V7.16602H13.0722V9.5332C12.1582 9.60352 11.2441 9.72656 10.3301 9.89648C9.83201 9.99023 9.47459 10.4297 9.47459 10.9336V12.3691C9.47459 12.873 9.83201 13.3125 10.3301 13.4062C11.2441 13.5762 12.1582 13.6992 13.0722 13.7695V23.9941C8.61912 23.4434 5.0449 20.9473 3.92576 16.7754C3.81443 16.3535 3.24021 16.2832 3.02928 16.6641L1.85154 18.7852C1.68162 19.084 1.90428 19.459 2.24412 19.459H2.27928C3.1406 19.459 3.89646 20.0098 4.17771 20.8242C5.4785 24.6094 8.70701 27.498 12.6914 28.3184C13.3945 28.4648 13.9863 28.9219 14.3086 29.5664C14.5957 30.1406 15.416 30.1406 15.7031 29.5664C16.0254 28.9277 16.6172 28.4648 17.3203 28.3184C21.3047 27.498 24.5332 24.6094 25.834 20.8242C26.1094 20.0098 26.8887 19.459 27.7558 19.459Z" fill="url(#paint2_linear_3899_23135)"/>
<path d="M26.9707 16.6699C26.7598 16.2891 26.1855 16.3594 26.0742 16.7812C24.9551 20.9531 21.375 23.4492 16.9277 24V13.7695C17.8418 13.6992 18.7559 13.5762 19.6699 13.4062C20.168 13.3125 20.5254 12.873 20.5254 12.3691V10.9336C20.5254 10.4297 20.168 9.99023 19.6699 9.89648C18.7559 9.72656 17.8418 9.60352 16.9277 9.5332V7.16602H15V30C15.2754 30 15.5566 29.8535 15.6973 29.5664C16.0195 28.9277 16.6113 28.4648 17.3145 28.3184C21.2988 27.498 24.5273 24.6094 25.8281 20.8242C26.1094 20.0039 26.8887 19.459 27.7617 19.459C28.1074 19.459 28.3242 19.0898 28.1543 18.7852L26.9707 16.6699Z" fill="url(#paint3_linear_3899_23135)"/>
<path d="M16.9277 13.7695L15 11.6543L13.0723 13.7695V17.4902H16.9277V13.7695Z" fill="url(#paint4_linear_3899_23135)"/>
<path d="M16.9277 9.5332V7.16602H13.0723V9.5332L15 11.6543L16.9277 9.5332Z" fill="url(#paint5_linear_3899_23135)"/>
<path d="M16.9277 9.5332V7.16602H13.0723V9.5332L15 11.6543L16.9277 9.5332Z" fill="url(#paint6_linear_3899_23135)"/>
<path d="M16.9277 9.5332V7.16602H13.0723V9.5332L15 11.6543L16.9277 9.5332Z" fill="url(#paint7_linear_3899_23135)"/>
<path d="M16.9277 9.5332V7.16602H13.0723V9.5332L15 11.6543L16.9277 9.5332Z" fill="url(#paint8_linear_3899_23135)"/>
<path d="M27.7559 19.4648C26.8887 19.4648 26.1035 20.0098 25.8223 20.8301C24.5215 24.6152 21.293 27.5039 17.3086 28.3242C16.957 28.3945 16.6348 28.5469 16.3594 28.7637C16.084 28.9746 15.8555 29.25 15.6973 29.5723C15.5566 29.8594 15.2754 30.0059 15 30.0059C14.7246 30.0059 14.4434 29.8594 14.3027 29.5723C13.9863 28.9336 13.3887 28.4707 12.6855 28.3242C8.70117 27.5039 5.47266 24.6152 4.17188 20.8301C3.89063 20.0156 3.13477 19.4648 2.27344 19.4648H2.23828C1.89258 19.4648 1.67578 19.0957 1.84571 18.791L3.02344 16.6699C3.23438 16.2891 3.8086 16.3594 3.91992 16.7812C5.03906 20.9531 8.61328 23.4492 13.0664 24V20.6836H16.9219V24C21.375 23.4492 24.9492 20.9531 26.0684 16.7812C26.1797 16.3594 26.7539 16.2891 26.9648 16.6699L28.1426 18.791C28.3184 19.0898 28.1016 19.4648 27.7559 19.4648Z" fill="url(#paint9_linear_3899_23135)"/>
<path d="M27.7559 19.4648C26.8887 19.4648 26.1035 20.0098 25.8223 20.8301C24.5215 24.6152 21.293 27.5039 17.3086 28.3242C16.957 28.3945 16.6348 28.5469 16.3594 28.7637C16.084 28.9746 15.8555 29.25 15.6973 29.5723C15.5566 29.8594 15.2754 30.0059 15 30.0059C14.7246 30.0059 14.4434 29.8594 14.3027 29.5723C13.9863 28.9336 13.3887 28.4707 12.6855 28.3242C8.70117 27.5039 5.47266 24.6152 4.17188 20.8301C3.89063 20.0156 3.13477 19.4648 2.27344 19.4648H2.23828C1.89258 19.4648 1.67578 19.0957 1.84571 18.791L3.02344 16.6699C3.23438 16.2891 3.8086 16.3594 3.91992 16.7812C5.03906 20.9531 8.61328 23.4492 13.0664 24V20.6836H16.9219V24C21.375 23.4492 24.9492 20.9531 26.0684 16.7812C26.1797 16.3594 26.7539 16.2891 26.9648 16.6699L28.1426 18.791C28.3184 19.0898 28.1016 19.4648 27.7559 19.4648Z" fill="url(#paint10_linear_3899_23135)"/>
<path d="M15 0C12.7266 0 10.8867 1.83984 10.8867 4.11328C10.8867 6.38672 12.7266 8.22656 15 8.22656C17.2734 8.22656 19.1133 6.38672 19.1133 4.11328C19.1133 1.83984 17.2734 0 15 0ZM15 6.32227C13.7812 6.32227 12.791 5.33203 12.791 4.11328C12.791 2.89453 13.7812 1.9043 15 1.9043C16.2187 1.9043 17.209 2.89453 17.209 4.11328C17.209 5.33203 16.2187 6.32227 15 6.32227Z" fill="url(#paint11_linear_3899_23135)"/>
<path d="M15 1.34766C13.4766 1.34766 12.2402 2.58398 12.2402 4.10742C12.2402 5.63086 13.4766 6.86719 15 6.86719C16.5234 6.86719 17.7598 5.63086 17.7598 4.10742C17.7598 2.58398 16.5234 1.34766 15 1.34766ZM15 5.5957C14.1797 5.5957 13.5176 4.93359 13.5176 4.11328C13.5176 3.29297 14.1797 2.63086 15 2.63086C15.8203 2.63086 16.4824 3.29297 16.4824 4.11328C16.4824 4.93359 15.8203 5.5957 15 5.5957Z" fill="url(#paint12_linear_3899_23135)"/>
<path d="M26.0742 16.7754C24.9551 20.9473 21.375 23.4434 16.9277 23.9941V18.5801H13.0723V23.9941C8.61914 23.4434 5.04492 20.9473 3.92578 16.7754C3.83203 16.418 3.41602 16.3184 3.1582 16.5176C4.13086 22.1777 9.06445 26.4844 15 26.4844C20.9355 26.4844 25.8691 22.1777 26.8477 16.5234C26.5898 16.3184 26.1738 16.4238 26.0742 16.7754Z" fill="url(#paint13_linear_3899_23135)"/>
<path d="M16.9277 20.8535V26.332C16.3008 26.4316 15.6562 26.4844 15 26.4844C14.3437 26.4844 13.6992 26.4316 13.0723 26.332V18.5859L16.9277 20.8535Z" fill="url(#paint14_linear_3899_23135)"/>
<path d="M20.5254 10.9336V12.3691C20.5254 12.873 20.168 13.3125 19.6699 13.4062C18.7559 13.5762 17.8418 13.6992 16.9277 13.7695L15 11.6543L16.9277 9.5332C17.8418 9.60352 18.7559 9.72656 19.6699 9.89648C20.168 9.99023 20.5254 10.4297 20.5254 10.9336Z" fill="url(#paint15_linear_3899_23135)"/>
<path d="M20.5254 10.9336V12.3691C20.5254 12.873 20.168 13.3125 19.6699 13.4062C18.7559 13.5762 17.8418 13.6992 16.9277 13.7695L15 11.6543L16.9277 9.5332C17.8418 9.60352 18.7559 9.72656 19.6699 9.89648C20.168 9.99023 20.5254 10.4297 20.5254 10.9336Z" fill="url(#paint16_linear_3899_23135)"/>
<path d="M9.47461 10.9336V12.3691C9.47461 12.873 9.83203 13.3125 10.3301 13.4062C11.2441 13.5762 12.1582 13.6992 13.0723 13.7695L15 11.6484L13.0723 9.52734C12.1582 9.59766 11.2441 9.7207 10.3301 9.89062C9.83203 9.99023 9.47461 10.4297 9.47461 10.9336Z" fill="url(#paint17_linear_3899_23135)"/>
<path d="M9.47461 10.9336V12.3691C9.47461 12.873 9.83203 13.3125 10.3301 13.4062C11.2441 13.5762 12.1582 13.6992 13.0723 13.7695L15 11.6484L13.0723 9.52734C12.1582 9.59766 11.2441 9.7207 10.3301 9.89062C9.83203 9.99023 9.47461 10.4297 9.47461 10.9336Z" fill="url(#paint18_linear_3899_23135)"/>
<path d="M16.9277 13.7695L15 11.6543V24.1582L16.9277 23.9941V13.7695Z" fill="url(#paint19_linear_3899_23135)"/>
<path d="M17.8536 21.6504C18.4102 22.207 18.7794 22.8809 18.961 23.5957C18.3165 23.7773 17.6426 23.9121 16.9454 24C16.9395 23.9824 16.9336 23.9648 16.9278 23.9473C16.8223 23.6426 16.6465 23.3496 16.4004 23.1035L13.0723 19.7754L12.0586 18.7617C10.6583 17.3613 10.6348 15.0996 11.9883 13.6699C12.3458 13.7168 12.709 13.752 13.0665 13.7754V15.8789C13.0254 16.0781 13.0254 16.2832 13.0665 16.4824C13.1251 16.7871 13.2715 17.0742 13.5059 17.3086L14.7833 18.5859L16.9219 20.7246L17.8536 21.6504Z" fill="url(#paint20_linear_3899_23135)"/>
<path d="M13.5117 17.3027C13.2773 17.0684 13.1308 16.7754 13.0722 16.4766C13.0312 16.2773 13.0312 16.0723 13.0722 15.873V13.7695C12.7148 13.7402 12.3515 13.7051 11.9941 13.6641C11.0331 14.6777 10.7636 16.1133 11.1913 17.3613H13.5703L13.5117 17.3027Z" fill="url(#paint21_linear_3899_23135)"/>
<path d="M16.4062 23.0977C16.6523 23.3438 16.8281 23.6309 16.9336 23.9414C16.9395 23.959 16.9453 23.9766 16.9512 23.9941C17.6484 23.9063 18.3223 23.7715 18.9668 23.5898C18.7852 22.875 18.416 22.2012 17.8594 21.6445L16.9336 20.7188L16.541 20.3262H13.6406L16.4062 23.0977Z" fill="url(#paint22_linear_3899_23135)"/>
<path d="M15.2402 5.80078C14.8418 5.40234 14.8418 4.75195 15.2402 4.34766C15.6387 3.94922 16.2891 3.94922 16.6934 4.34766L17.959 5.625C18.6211 6.28711 18.9902 7.17188 18.9902 8.10938C18.9902 8.67773 18.8555 9.22852 18.6035 9.7207C18.0469 9.63867 17.4902 9.57422 16.9277 9.5332V8.29102C16.9453 8.16797 16.9453 8.04492 16.9277 7.92773C16.8926 7.65234 16.7813 7.38867 16.5938 7.16602C16.5703 7.13672 16.541 7.10156 16.5117 7.07227L15.2402 5.80078Z" fill="url(#paint23_linear_3899_23135)"/>
<path d="M16.5117 7.07227C16.541 7.10156 16.5703 7.13086 16.5938 7.16602C16.7813 7.38867 16.8926 7.65234 16.9277 7.92773C16.9453 8.05078 16.9453 8.16797 16.9277 8.29102V9.5332C17.4844 9.57422 18.041 9.63867 18.6035 9.7207C18.8555 9.22852 18.9902 8.67773 18.9902 8.10937C18.9902 7.4707 18.8203 6.85547 18.5039 6.32227H15.7617L16.5117 7.07227Z" fill="url(#paint24_linear_3899_23135)"/>
</g>
<defs>
<linearGradient id="paint0_linear_3899_23135" x1="13.3232" y1="10.2233" x2="16.8742" y2="13.7743" gradientUnits="userSpaceOnUse">
<stop stop-color="#FAF7F7"/>
<stop offset="0.3084" stop-color="#F7F3F2"/>
<stop offset="0.6279" stop-color="#EFE8E6"/>
<stop offset="0.9515" stop-color="#E3D6D1"/>
<stop offset="1" stop-color="#E1D3CE"/>
</linearGradient>
<linearGradient id="paint1_linear_3899_23135" x1="15.1884" y1="21.1099" x2="18.7179" y2="24.5351" gradientUnits="userSpaceOnUse">
<stop stop-color="#FAF7F7"/>
<stop offset="0.3084" stop-color="#F7F3F2"/>
<stop offset="0.6279" stop-color="#EFE8E6"/>
<stop offset="0.9515" stop-color="#E3D6D1"/>
<stop offset="1" stop-color="#E1D3CE"/>
</linearGradient>
<linearGradient id="paint2_linear_3899_23135" x1="7.5809" y1="18.5828" x2="23.7344" y2="18.5828" gradientUnits="userSpaceOnUse">
<stop stop-color="#766E6E"/>
<stop offset="0.2493" stop-color="#716B6B"/>
<stop offset="0.5076" stop-color="#656464"/>
<stop offset="0.769" stop-color="#505757"/>
<stop offset="1" stop-color="#384949"/>
</linearGradient>
<linearGradient id="paint3_linear_3899_23135" x1="15.6801" y1="25.164" x2="13.5615" y2="29.4635" gradientUnits="userSpaceOnUse">
<stop stop-color="#3E4648" stop-opacity="0"/>
<stop offset="0.3165" stop-color="#3B4144" stop-opacity="0.107"/>
<stop offset="0.6443" stop-color="#323539" stop-opacity="0.426"/>
<stop offset="0.9762" stop-color="#252028" stop-opacity="0.954"/>
<stop offset="1" stop-color="#241F27"/>
</linearGradient>
<linearGradient id="paint4_linear_3899_23135" x1="15.2843" y1="14.9315" x2="17.0567" y2="13.9899" gradientUnits="userSpaceOnUse">
<stop stop-color="#3E4648" stop-opacity="0"/>
<stop offset="0.3165" stop-color="#3B4144" stop-opacity="0.107"/>
<stop offset="0.6443" stop-color="#323539" stop-opacity="0.426"/>
<stop offset="0.9762" stop-color="#252028" stop-opacity="0.954"/>
<stop offset="1" stop-color="#241F27"/>
</linearGradient>
<linearGradient id="paint5_linear_3899_23135" x1="15.5729" y1="9.04394" x2="16.8746" y2="10.6225" gradientUnits="userSpaceOnUse">
<stop stop-color="#3E4648" stop-opacity="0"/>
<stop offset="0.3165" stop-color="#3B4144" stop-opacity="0.107"/>
<stop offset="0.6443" stop-color="#323539" stop-opacity="0.426"/>
<stop offset="0.9762" stop-color="#252028" stop-opacity="0.954"/>
<stop offset="1" stop-color="#241F27"/>
</linearGradient>
<linearGradient id="paint6_linear_3899_23135" x1="14.0442" y1="9.87838" x2="13.2134" y2="11.2076" gradientUnits="userSpaceOnUse">
<stop stop-color="#3E4648" stop-opacity="0"/>
<stop offset="0.3165" stop-color="#3B4144" stop-opacity="0.107"/>
<stop offset="0.6443" stop-color="#323539" stop-opacity="0.426"/>
<stop offset="0.9762" stop-color="#252028" stop-opacity="0.954"/>
<stop offset="1" stop-color="#241F27"/>
</linearGradient>
<linearGradient id="paint7_linear_3899_23135" x1="14.906" y1="9.40904" x2="16.8368" y2="9.40904" gradientUnits="userSpaceOnUse">
<stop stop-color="#3E4648" stop-opacity="0"/>
<stop offset="0.3165" stop-color="#3B4144" stop-opacity="0.107"/>
<stop offset="0.6443" stop-color="#323539" stop-opacity="0.426"/>
<stop offset="0.9762" stop-color="#252028" stop-opacity="0.954"/>
<stop offset="1" stop-color="#241F27"/>
</linearGradient>
<linearGradient id="paint8_linear_3899_23135" x1="15" y1="10.1712" x2="15" y2="7.84447" gradientUnits="userSpaceOnUse">
<stop stop-color="#3E4648" stop-opacity="0"/>
<stop offset="0.3165" stop-color="#3B4144" stop-opacity="0.107"/>
<stop offset="0.6443" stop-color="#323539" stop-opacity="0.426"/>
<stop offset="0.9762" stop-color="#252028" stop-opacity="0.954"/>
<stop offset="1" stop-color="#241F27"/>
</linearGradient>
<linearGradient id="paint9_linear_3899_23135" x1="18.7426" y1="25.5308" x2="19.7395" y2="27.2755" gradientUnits="userSpaceOnUse">
<stop stop-color="#3E4648" stop-opacity="0"/>
<stop offset="0.3165" stop-color="#3B4144" stop-opacity="0.107"/>
<stop offset="0.6443" stop-color="#323539" stop-opacity="0.426"/>
<stop offset="0.9762" stop-color="#252028" stop-opacity="0.954"/>
<stop offset="1" stop-color="#241F27"/>
</linearGradient>
<linearGradient id="paint10_linear_3899_23135" x1="12.2" y1="24.6105" x2="10.5799" y2="27.8507" gradientUnits="userSpaceOnUse">
<stop stop-color="#3E4648" stop-opacity="0"/>
<stop offset="0.3165" stop-color="#3B4144" stop-opacity="0.107"/>
<stop offset="0.6443" stop-color="#323539" stop-opacity="0.426"/>
<stop offset="0.9762" stop-color="#252028" stop-opacity="0.954"/>
<stop offset="1" stop-color="#241F27"/>
</linearGradient>
<linearGradient id="paint11_linear_3899_23135" x1="12.492" y1="1.60453" x2="17.8514" y2="6.96393" gradientUnits="userSpaceOnUse">
<stop stop-color="#766E6E"/>
<stop offset="0.2493" stop-color="#716B6B"/>
<stop offset="0.5076" stop-color="#656464"/>
<stop offset="0.769" stop-color="#505757"/>
<stop offset="1" stop-color="#384949"/>
</linearGradient>
<linearGradient id="paint12_linear_3899_23135" x1="16.9161" y1="6.02859" x2="12.5622" y2="1.67473" gradientUnits="userSpaceOnUse">
<stop stop-color="#766E6E"/>
<stop offset="0.2493" stop-color="#716B6B"/>
<stop offset="0.5076" stop-color="#656464"/>
<stop offset="0.769" stop-color="#505757"/>
<stop offset="1" stop-color="#384949"/>
</linearGradient>
<linearGradient id="paint13_linear_3899_23135" x1="15" y1="23.8175" x2="15" y2="27.6748" gradientUnits="userSpaceOnUse">
<stop stop-color="#3E4648" stop-opacity="0"/>
<stop offset="0.3165" stop-color="#3B4144" stop-opacity="0.107"/>
<stop offset="0.6443" stop-color="#323539" stop-opacity="0.426"/>
<stop offset="0.9762" stop-color="#252028" stop-opacity="0.954"/>
<stop offset="1" stop-color="#241F27"/>
</linearGradient>
<linearGradient id="paint14_linear_3899_23135" x1="14.7551" y1="23.0156" x2="15.5139" y2="21.2822" gradientUnits="userSpaceOnUse">
<stop stop-color="#3E4648" stop-opacity="0"/>
<stop offset="0.3165" stop-color="#3B4144" stop-opacity="0.107"/>
<stop offset="0.6443" stop-color="#323539" stop-opacity="0.426"/>
<stop offset="0.9762" stop-color="#252028" stop-opacity="0.954"/>
<stop offset="1" stop-color="#241F27"/>
</linearGradient>
<linearGradient id="paint15_linear_3899_23135" x1="17.7896" y1="11.4572" x2="18.122" y2="13.8942" gradientUnits="userSpaceOnUse">
<stop stop-color="#3E4648" stop-opacity="0"/>
<stop offset="0.3165" stop-color="#3B4144" stop-opacity="0.107"/>
<stop offset="0.6443" stop-color="#323539" stop-opacity="0.426"/>
<stop offset="0.9762" stop-color="#252028" stop-opacity="0.954"/>
<stop offset="1" stop-color="#241F27"/>
</linearGradient>
<linearGradient id="paint16_linear_3899_23135" x1="18.8108" y1="11.6523" x2="20.6868" y2="11.6523" gradientUnits="userSpaceOnUse">
<stop stop-color="#3E4648" stop-opacity="0"/>
<stop offset="0.3165" stop-color="#3B4144" stop-opacity="0.107"/>
<stop offset="0.6443" stop-color="#323539" stop-opacity="0.426"/>
<stop offset="0.9762" stop-color="#252028" stop-opacity="0.954"/>
<stop offset="1" stop-color="#241F27"/>
</linearGradient>
<linearGradient id="paint17_linear_3899_23135" x1="12.1591" y1="12.0174" x2="11.9652" y2="13.8729" gradientUnits="userSpaceOnUse">
<stop stop-color="#3E4648" stop-opacity="0"/>
<stop offset="0.3165" stop-color="#3B4144" stop-opacity="0.107"/>
<stop offset="0.6443" stop-color="#323539" stop-opacity="0.426"/>
<stop offset="0.9762" stop-color="#252028" stop-opacity="0.954"/>
<stop offset="1" stop-color="#241F27"/>
</linearGradient>
<linearGradient id="paint18_linear_3899_23135" x1="11.9041" y1="11.832" x2="13.5381" y2="13.6875" gradientUnits="userSpaceOnUse">
<stop stop-color="#3E4648" stop-opacity="0"/>
<stop offset="0.3165" stop-color="#3B4144" stop-opacity="0.107"/>
<stop offset="0.6443" stop-color="#323539" stop-opacity="0.426"/>
<stop offset="0.9762" stop-color="#252028" stop-opacity="0.954"/>
<stop offset="1" stop-color="#241F27"/>
</linearGradient>
<linearGradient id="paint19_linear_3899_23135" x1="15.5429" y1="17.9044" x2="17.1492" y2="17.9044" gradientUnits="userSpaceOnUse">
<stop stop-color="#3E4648" stop-opacity="0"/>
<stop offset="0.3165" stop-color="#3B4144" stop-opacity="0.107"/>
<stop offset="0.6443" stop-color="#323539" stop-opacity="0.426"/>
<stop offset="0.9762" stop-color="#252028" stop-opacity="0.954"/>
<stop offset="1" stop-color="#241F27"/>
</linearGradient>
<linearGradient id="paint20_linear_3899_23135" x1="15.3235" y1="18.8109" x2="13.8616" y2="20.6696" gradientUnits="userSpaceOnUse">
<stop stop-color="#D71923"/>
<stop offset="0.3084" stop-color="#D71923"/>
<stop offset="0.6279" stop-color="#D71923"/>
<stop offset="0.9515" stop-color="#D71923"/>
<stop offset="1" stop-color="#D71923"/>
</linearGradient>
<linearGradient id="paint21_linear_3899_23135" x1="12.5576" y1="15.6896" x2="13.1842" y2="13.977" gradientUnits="userSpaceOnUse">
<stop stop-color="#CDBFBA" stop-opacity="0"/>
<stop offset="0.1541" stop-color="#CBBDB9" stop-opacity="0.026"/>
<stop offset="0.3138" stop-color="#C8BAB6" stop-opacity="0.105"/>
<stop offset="0.4761" stop-color="#C1B5B1" stop-opacity="0.236"/>
<stop offset="0.6403" stop-color="#B9AEAB" stop-opacity="0.42"/>
<stop offset="0.8058" stop-color="#AEA4A2" stop-opacity="0.657"/>
<stop offset="0.9703" stop-color="#A09998" stop-opacity="0.943"/>
<stop offset="1" stop-color="#9E9797"/>
</linearGradient>
<linearGradient id="paint22_linear_3899_23135" x1="16.4802" y1="22.8012" x2="16.7726" y2="24.1587" gradientUnits="userSpaceOnUse">
<stop stop-color="#D71923" stop-opacity="0"/>
<stop offset="0.1541" stop-color="#D71923" stop-opacity="0.026"/>
<stop offset="0.3138" stop-color="#D71923" stop-opacity="0.105"/>
<stop offset="0.4761" stop-color="#D71923" stop-opacity="0.236"/>
<stop offset="0.6403" stop-color="#D71923" stop-opacity="0.42"/>
<stop offset="0.8058" stop-color="#D71923" stop-opacity="0.657"/>
<stop offset="0.9703" stop-color="#D71923" stop-opacity="0.943"/>
<stop offset="1" stop-color="#D71923"/>
</linearGradient>
<linearGradient id="paint23_linear_3899_23135" x1="18.5337" y1="6.09621" x2="15.9649" y2="7.55812" gradientUnits="userSpaceOnUse">
<stop stop-color="#D71923"/>
<stop offset="0.3084" stop-color="#D71923"/>
<stop offset="0.6279" stop-color="#D71923"/>
<stop offset="0.9515" stop-color="#D71923"/>
<stop offset="1" stop-color="#D71923"/>
</linearGradient>
<linearGradient id="paint24_linear_3899_23135" x1="17.2539" y1="8.19293" x2="17.0659" y2="9.50865" gradientUnits="userSpaceOnUse">
<stop stop-color="#D71923" stop-opacity="0"/>
<stop offset="0.1541" stop-color="#D71923" stop-opacity="0.026"/>
<stop offset="0.3138" stop-color="#D71923" stop-opacity="0.105"/>
<stop offset="0.4761" stop-color="#D71923" stop-opacity="0.236"/>
<stop offset="0.6403" stop-color="#D71923" stop-opacity="0.42"/>
<stop offset="0.8058" stop-color="#D71923" stop-opacity="0.657"/>
<stop offset="0.9703" stop-color="#D71923" stop-opacity="0.943"/>
<stop offset="1" stop-color="#D71923"/>
</linearGradient>
<clipPath id="clip0_3899_23135">
<rect width="30" height="30" fill="white"/>
</clipPath>
</defs>
</svg>
