<svg xmlns="http://www.w3.org/2000/svg" width="18" height="18" viewBox="0 0 18 18" fill="currentColor">
<path d="M8.25 13.5C6.7875 13.5 5.54688 12.9906 4.52813 11.9719C3.50938 10.9531 3 9.7125 3 8.25V2.25H13.875C14.6 2.25 15.2188 2.50625 15.7313 3.01875C16.2438 3.53125 16.5 4.15 16.5 4.875C16.5 5.6 16.2438 6.21875 15.7313 6.73125C15.2188 7.24375 14.6 7.5 13.875 7.5H13.5V8.25C13.5 9.7125 12.9906 10.9531 11.9719 11.9719C10.9531 12.9906 9.7125 13.5 8.25 13.5ZM4.5 6H12V3.75H4.5V6ZM8.25 12C9.2875 12 10.1719 11.6344 10.9031 10.9031C11.6344 10.1719 12 9.2875 12 8.25V7.5H4.5V8.25C4.5 9.2875 4.86563 10.1719 5.59688 10.9031C6.32813 11.6344 7.2125 12 8.25 12ZM13.5 6H13.875C14.1875 6 14.4531 5.89063 14.6719 5.67188C14.8906 5.45313 15 5.1875 15 4.875C15 4.5625 14.8906 4.29688 14.6719 4.07813C14.4531 3.85938 14.1875 3.75 13.875 3.75H13.5V6ZM3 15.75V14.25H15V15.75H3Z" fill="currentColor"/>
</svg>
