<svg width="100" height="100" viewBox="0 0 100 100" fill="none" xmlns="http://www.w3.org/2000/svg">
<path d="M79.2055 34.0511V46.5387H67.5036V52.7695H79.2055V52.7747H85.5V34.0511H79.2055Z" fill="black"/>
<path d="M79.2055 72.4918H67.5036V78.7226H79.2055V78.7278H85.5V59.999H79.2055V72.4918Z" fill="black"/>
<path d="M74.1289 58.215H67.8974V62.9583H43.8375V84.8598H22.0875C22.0875 84.8598 19.8879 80.8446 23.211 63.4732H16.9217C14.1236 73.0171 13.6721 82.795 15.9768 91.0906H50.1215V69.1891H74.1289V58.215Z" fill="black"/>
<path d="M61.6501 72.1174H54.9828V78.7227H61.6501V72.1174Z" fill="black"/>
<path d="M54.1324 46.5439H47.8431V52.7747H54.1324V46.5439Z" fill="black"/>
<path d="M62.6896 46.5439H56.4003V52.7747H62.6896V46.5439Z" fill="black"/>
<path d="M43.3073 42.5391H75.1736V0C73.7089 0.592916 71.546 1.5343 68.8843 2.86056V36.3083H59.2457V8.25402C57.2193 9.51266 55.1088 10.9169 52.9512 12.472V36.3083H43.3125V20.258C41.1864 22.1928 39.0759 24.2784 37.0233 26.5148V54.7615H24.5655L26.8071 39.9386C24.4447 43.7614 22.3185 47.8858 20.5179 52.3379L17.6252 60.9924H43.3178V42.5391H43.3073Z" fill="black"/>
<path d="M30.335 93.7692H24.0457V100H30.335V93.7692Z" fill="black"/>
<path d="M38.8974 93.7692H32.6082V100H38.8974V93.7692Z" fill="black"/>
</svg>
