<svg xmlns="http://www.w3.org/2000/svg" width="16" height="17" viewBox="0 0 16 17" fill="none">
<path d="M1.33268 14.8812C1.6549 14.059 1.86879 13.2117 1.97435 12.3395C2.0799 11.4673 2.14379 10.5923 2.16602 9.71452C1.73268 9.54785 1.37435 9.27007 1.09102 8.88119C0.807682 8.4923 0.666016 8.04785 0.666016 7.54785L0.666016 6.21452C1.94379 5.7923 3.24657 5.14785 4.57435 4.28119C5.90213 3.41452 7.04379 2.50341 7.99935 1.54785C8.9549 2.50341 10.0966 3.41452 11.4243 4.28119C12.7521 5.14785 14.0549 5.7923 15.3327 6.21452V7.54785C15.3327 8.04785 15.191 8.4923 14.9077 8.88119C14.6243 9.27007 14.266 9.54785 13.8327 9.71452C13.8549 10.5923 13.9188 11.4673 14.0243 12.3395C14.1299 13.2117 14.3438 14.059 14.666 14.8812L1.33268 14.8812ZM3.93268 6.21452L12.066 6.21452C11.1993 5.72563 10.4188 5.22285 9.72435 4.70619C9.0299 4.18952 8.4549 3.73674 7.99935 3.34785C7.54379 3.73674 6.96879 4.18952 6.27435 4.70619C5.5799 5.22285 4.79935 5.72563 3.93268 6.21452ZM9.66601 8.54785C9.94379 8.54785 10.1799 8.45063 10.3743 8.25619C10.5688 8.06174 10.666 7.82563 10.666 7.54785H8.66602C8.66602 7.82563 8.76324 8.06174 8.95768 8.25619C9.15213 8.45063 9.38824 8.54785 9.66601 8.54785ZM6.33268 8.54785C6.61046 8.54785 6.84657 8.45063 7.04102 8.25619C7.23546 8.06174 7.33268 7.82563 7.33268 7.54785L5.33268 7.54785C5.33268 7.82563 5.4299 8.06174 5.62435 8.25619C5.81879 8.45063 6.0549 8.54785 6.33268 8.54785ZM2.99935 8.54785C3.27713 8.54785 3.51324 8.45063 3.70768 8.25619C3.90213 8.06174 3.99935 7.82563 3.99935 7.54785H1.99935C1.99935 7.82563 2.09657 8.06174 2.29102 8.25619C2.48546 8.45063 2.72157 8.54785 2.99935 8.54785ZM3.09935 13.5479H4.88268C4.98268 12.8812 5.06046 12.2201 5.11602 11.5645C5.17157 10.909 5.21602 10.2479 5.24935 9.58119C5.14935 9.52563 5.04935 9.4673 4.94935 9.40619C4.84935 9.34507 4.7549 9.27007 4.66602 9.18119C4.49935 9.34785 4.31879 9.48396 4.12435 9.58952C3.9299 9.69507 3.72157 9.77563 3.49935 9.83119C3.47713 10.4645 3.43824 11.0895 3.38268 11.7062C3.32713 12.3229 3.23268 12.9367 3.09935 13.5479ZM6.23268 13.5479H9.76602C9.67713 12.9367 9.60768 12.3256 9.55768 11.7145C9.50768 11.1034 9.46601 10.4867 9.43268 9.86452C9.14379 9.8423 8.8799 9.77285 8.64102 9.65619C8.40213 9.53952 8.18824 9.38674 7.99935 9.19785C7.81046 9.38674 7.59102 9.53952 7.34102 9.65619C7.09102 9.77285 6.83268 9.8423 6.56602 9.86452C6.53268 10.4867 6.49102 11.1034 6.44102 11.7145C6.39102 12.3256 6.32157 12.9367 6.23268 13.5479ZM11.116 13.5479L12.8993 13.5479C12.766 12.9367 12.6716 12.3229 12.616 11.7062C12.5605 11.0895 12.5216 10.4645 12.4993 9.83119C12.2771 9.77563 12.066 9.69507 11.866 9.58952C11.666 9.48396 11.4882 9.34785 11.3327 9.18119C11.2438 9.27007 11.1493 9.34507 11.0493 9.40619C10.9493 9.4673 10.8493 9.52563 10.7493 9.58119C10.7827 10.2479 10.8299 10.909 10.891 11.5645C10.9521 12.2201 11.0271 12.8812 11.116 13.5479ZM12.9993 8.54785C13.2771 8.54785 13.5132 8.45063 13.7077 8.25619C13.9021 8.06174 13.9993 7.82563 13.9993 7.54785H11.9993C11.9993 7.82563 12.0966 8.06174 12.291 8.25619C12.4855 8.45063 12.7216 8.54785 12.9993 8.54785Z" fill="#D71923"/>
</svg>
